ISO-10303-21;
HEADER;
FILE_DESCRIPTION (( 'STEP AP214' ),
    '1' );
FILE_NAME ('BACF-C2G1-P-D8-L190-M5-N5(嘉立创FA jlcfa.com).step',
    '2026-09-04T13:47:23',
    ( '' ),
    ( 'Aliyun' ),
    'FaSTEP 2.0',
    'Forface 3D 2012',
    '' );
FILE_SCHEMA (( 'AUTOMOTIVE_DESIGN' ));
ENDSEC;

DATA;
#1 = DIRECTION ( 'NONE',  ( 0.0000000000000000000, 0.0000000000000000000, -1.000000000000000000 ) ) ;
#2 = DIRECTION ( 'NONE',  ( 0.0000000000000000000, 0.0000000000000000000, -1.000000000000000000 ) ) ;
#3 = CARTESIAN_POINT ( 'NONE',  ( -85.00000000000001400, 0.0000000000000000000, 0.0000000000000000000 ) ) ;
#4 = DIRECTION ( 'NONE',  ( 0.0000000000000000000, 0.0000000000000000000, 1.000000000000000000 ) ) ;
#5 = DIRECTION ( 'NONE',  ( -1.000000000000000000, -0.0000000000000000000, -0.0000000000000000000 ) ) ;
#6 = DIRECTION ( 'NONE',  ( 0.0000000000000000000, 0.0000000000000000000, 1.000000000000000000 ) ) ;
#7 = CARTESIAN_POINT ( 'NONE',  ( 0.0000000000000000000, 0.0000000000000000000, 0.0000000000000000000 ) ) ;
#8 = DIRECTION ( 'NONE',  ( -1.000000000000000000, -0.0000000000000000000, -0.0000000000000000000 ) ) ;
#9 = DIRECTION ( 'NONE',  ( 0.0000000000000000000, 0.0000000000000000000, 1.000000000000000000 ) ) ;
#10 = CARTESIAN_POINT ( 'NONE',  ( 0.0000000000000000000, 0.0000000000000000000, 0.0000000000000000000 ) ) ;
#11 = DIRECTION ( 'NONE',  ( 1.000000000000000000, 0.0000000000000000000, 0.0000000000000000000 ) ) ;
#12 = DIRECTION ( 'NONE',  ( -1.000000000000000000, -0.0000000000000000000, -0.0000000000000000000 ) ) ;
#13 = PLANE ( 'NONE',  #225 ) ;
#14 = CARTESIAN_POINT ( 'NONE',  ( 95.00000000000000000, 0.0000000000000000000, 0.0000000000000000000 ) ) ;
#15 = CARTESIAN_POINT ( 'NONE',  ( -95.00000000000000000, 0.0000000000000000000, 0.0000000000000000000 ) ) ;
#16 = DIRECTION ( 'NONE',  ( 1.000000000000000000, 0.0000000000000000000, 0.0000000000000000000 ) ) ;
#17 = CARTESIAN_POINT ( 'NONE',  ( 0.0000000000000000000, 0.0000000000000000000, 0.0000000000000000000 ) ) ;
#18 = DIRECTION ( 'NONE',  ( 0.0000000000000000000, 0.0000000000000000000, 1.000000000000000000 ) ) ;
#19 = DIRECTION ( 'NONE',  ( 0.0000000000000000000, 0.0000000000000000000, -1.000000000000000000 ) ) ;
#20 = DIRECTION ( 'NONE',  ( 0.0000000000000000000, 0.0000000000000000000, 1.000000000000000000 ) ) ;
#21 = DIRECTION ( 'NONE',  ( 1.000000000000000000, 0.0000000000000000000, 0.0000000000000000000 ) ) ;
#22 = DIRECTION ( 'NONE',  ( -1.000000000000000000, -0.0000000000000000000, -0.0000000000000000000 ) ) ;
#23 = PLANE ( 'NONE',  #202 ) ;
#24 = CARTESIAN_POINT ( 'NONE',  ( -95.00000000000000000, 0.0000000000000000000, 0.0000000000000000000 ) ) ;
#25 = CARTESIAN_POINT ( 'NONE',  ( 0.0000000000000000000, 0.0000000000000000000, 0.0000000000000000000 ) ) ;
#26 = CARTESIAN_POINT ( 'NONE',  ( 0.0000000000000000000, 0.0000000000000000000, 0.0000000000000000000 ) ) ;
#27 = DIRECTION ( 'NONE',  ( -1.000000000000000000, -0.0000000000000000000, -0.0000000000000000000 ) ) ;
#28 = DIRECTION ( 'NONE',  ( -1.000000000000000000, -0.0000000000000000000, -0.0000000000000000000 ) ) ;
#29 = DIRECTION ( 'NONE',  ( 0.0000000000000000000, 0.0000000000000000000, 1.000000000000000000 ) ) ;
#30 = CARTESIAN_POINT ( 'NONE',  ( -95.00000000000000000, 0.0000000000000000000, 0.0000000000000000000 ) ) ;
#31 = DIRECTION ( 'NONE',  ( 1.000000000000000000, 0.0000000000000000000, 0.0000000000000000000 ) ) ;
#32 = DIRECTION ( 'NONE',  ( 0.0000000000000000000, 0.0000000000000000000, -1.000000000000000000 ) ) ;
#33 = DIRECTION ( 'NONE',  ( -1.000000000000000000, -0.0000000000000000000, -0.0000000000000000000 ) ) ;
#34 = CARTESIAN_POINT ( 'NONE',  ( 94.49999999999998600, 4.898587196589412800E-016, -4.000000000000000000 ) ) ;
#35 = DIRECTION ( 'NONE',  ( -1.000000000000000000, -0.0000000000000000000, -0.0000000000000000000 ) ) ;
#36 = CARTESIAN_POINT ( 'NONE',  ( 0.0000000000000000000, 4.898587196589412800E-016, -4.000000000000000000 ) ) ;
#37 = CARTESIAN_POINT ( 'NONE',  ( 85.00000000000001400, 2.632990618166814700E-016, 2.150000000000004400 ) ) ;
#38 = DIRECTION ( 'NONE',  ( 0.0000000000000000000, 0.0000000000000000000, 1.000000000000000000 ) ) ;
#39 = DIRECTION ( 'NONE',  ( 0.0000000000000000000, 0.0000000000000000000, 1.000000000000000000 ) ) ;
#40 = CARTESIAN_POINT ( 'NONE',  ( -95.00000000000000000, 0.0000000000000000000, -3.499999999999975100 ) ) ;
#41 = DIRECTION ( 'NONE',  ( 0.7071067811865401300, 0.0000000000000000000, -0.7071067811865549000 ) ) ;
#42 = CARTESIAN_POINT ( 'NONE',  ( 85.00000000000001400, 0.0000000000000000000, 0.0000000000000000000 ) ) ;
#43 = DIRECTION ( 'NONE',  ( 0.0000000000000000000, 0.0000000000000000000, -1.000000000000000000 ) ) ;
#44 = DIRECTION ( 'NONE',  ( -1.000000000000000000, -0.0000000000000000000, -0.0000000000000000000 ) ) ;
#45 = CARTESIAN_POINT ( 'NONE',  ( 85.00000000000001400, 0.0000000000000000000, 0.0000000000000000000 ) ) ;
#46 = DIRECTION ( 'NONE',  ( -0.7071067811865597900, 8.659560562354782500E-017, -0.7071067811865352500 ) ) ;
#47 = DIRECTION ( 'NONE',  ( 0.0000000000000000000, 0.0000000000000000000, -1.000000000000000000 ) ) ;
#48 = DIRECTION ( 'NONE',  ( 0.0000000000000000000, 0.0000000000000000000, 1.000000000000000000 ) ) ;
#49 = DIRECTION ( 'NONE',  ( -1.000000000000000000, -0.0000000000000000000, -0.0000000000000000000 ) ) ;
#50 = DIRECTION ( 'NONE',  ( 0.0000000000000000000, 0.0000000000000000000, 1.000000000000000000 ) ) ;
#51 = CARTESIAN_POINT ( 'NONE',  ( -95.00000000000000000, 0.0000000000000000000, 0.0000000000000000000 ) ) ;
#52 = CARTESIAN_POINT ( 'NONE',  ( -95.00000000000000000, 4.286263797015706000E-016, 3.499999999999975100 ) ) ;
#53 = DIRECTION ( 'NONE',  ( 1.000000000000000000, 0.0000000000000000000, 0.0000000000000000000 ) ) ;
#54 = DIRECTION ( 'NONE',  ( -1.000000000000000000, -0.0000000000000000000, -0.0000000000000000000 ) ) ;
#55 = CARTESIAN_POINT ( 'NONE',  ( -95.00000000000000000, 0.0000000000000000000, 0.0000000000000000000 ) ) ;
#56 = DIRECTION ( 'NONE',  ( -1.000000000000000000, -0.0000000000000000000, -0.0000000000000000000 ) ) ;
#57 = DIRECTION ( 'NONE',  ( 0.0000000000000000000, 0.0000000000000000000, 1.000000000000000000 ) ) ;
#58 = CARTESIAN_POINT ( 'NONE',  ( 94.49999999999998600, 0.0000000000000000000, 0.0000000000000000000 ) ) ;
#59 = CARTESIAN_POINT ( 'NONE',  ( 95.00000000000000000, 0.0000000000000000000, 0.0000000000000000000 ) ) ;
#60 = DIRECTION ( 'NONE',  ( -1.000000000000000000, -0.0000000000000000000, -0.0000000000000000000 ) ) ;
#61 = CARTESIAN_POINT ( 'NONE',  ( -85.00000000000001400, 0.0000000000000000000, 0.0000000000000000000 ) ) ;
#62 = DIRECTION ( 'NONE',  ( 0.0000000000000000000, 0.0000000000000000000, 1.000000000000000000 ) ) ;
#63 = DIRECTION ( 'NONE',  ( -1.000000000000000000, -0.0000000000000000000, -0.0000000000000000000 ) ) ;
#64 = DIRECTION ( 'NONE',  ( 0.0000000000000000000, 0.0000000000000000000, 1.000000000000000000 ) ) ;
#65 = DIRECTION ( 'NONE',  ( 1.000000000000000000, 0.0000000000000000000, 0.0000000000000000000 ) ) ;
#66 = CARTESIAN_POINT ( 'NONE',  ( 85.00000000000001400, 0.0000000000000000000, 0.0000000000000000000 ) ) ;
#67 = CARTESIAN_POINT ( 'NONE',  ( 0.0000000000000000000, 0.0000000000000000000, 0.0000000000000000000 ) ) ;
#68 = DIRECTION ( 'NONE',  ( -1.000000000000000000, -0.0000000000000000000, -0.0000000000000000000 ) ) ;
#69 = CARTESIAN_POINT ( 'NONE',  ( 0.0000000000000000000, 2.632990618166808700E-016, -2.149999999999999500 ) ) ;
#70 = CARTESIAN_POINT ( 'NONE',  ( 94.49999999999998600, 0.0000000000000000000, 0.0000000000000000000 ) ) ;
#71 = CARTESIAN_POINT ( 'NONE',  ( 0.0000000000000000000, 2.632990618166816100E-016, -2.150000000000005200 ) ) ;
#72 = DIRECTION ( 'NONE',  ( 0.0000000000000000000, 0.0000000000000000000, -1.000000000000000000 ) ) ;
#73 = DIRECTION ( 'NONE',  ( -1.000000000000000000, -0.0000000000000000000, -0.0000000000000000000 ) ) ;
#74 = CARTESIAN_POINT ( 'NONE',  ( 0.0000000000000000000, 0.0000000000000000000, 4.000000000000000000 ) ) ;
#75 = DIRECTION ( 'NONE',  ( 0.0000000000000000000, 0.0000000000000000000, -1.000000000000000000 ) ) ;
#76 = CARTESIAN_POINT ( 'NONE',  ( -94.49999999999998600, 0.0000000000000000000, 0.0000000000000000000 ) ) ;
#77 = DIRECTION ( 'NONE',  ( 1.000000000000000000, 0.0000000000000000000, 0.0000000000000000000 ) ) ;
#78 = CARTESIAN_POINT ( 'NONE',  ( -85.00000000000001400, 0.0000000000000000000, 0.0000000000000000000 ) ) ;
#79 = DIRECTION ( 'NONE',  ( 0.0000000000000000000, 0.0000000000000000000, 1.000000000000000000 ) ) ;
#80 = DIRECTION ( 'NONE',  ( 0.7071067811865401300, 8.659560562355022800E-017, 0.7071067811865549000 ) ) ;
#81 = CARTESIAN_POINT ( 'NONE',  ( 95.00000000000000000, 0.0000000000000000000, 0.0000000000000000000 ) ) ;
#82 = CARTESIAN_POINT ( 'NONE',  ( -95.00000000000000000, 0.0000000000000000000, 0.0000000000000000000 ) ) ;
#83 = DIRECTION ( 'NONE',  ( 0.0000000000000000000, 0.0000000000000000000, 1.000000000000000000 ) ) ;
#84 = DIRECTION ( 'NONE',  ( -1.000000000000000000, -0.0000000000000000000, -0.0000000000000000000 ) ) ;
#85 = DIRECTION ( 'NONE',  ( -1.000000000000000000, -0.0000000000000000000, -0.0000000000000000000 ) ) ;
#86 = DIRECTION ( 'NONE',  ( -0.5150380749100504900, 0.0000000000000000000, 0.8571673007021146700 ) ) ;
#87 = DIRECTION ( 'NONE',  ( -1.000000000000000000, -0.0000000000000000000, -0.0000000000000000000 ) ) ;
#88 = DIRECTION ( 'NONE',  ( -1.000000000000000000, -0.0000000000000000000, -0.0000000000000000000 ) ) ;
#89 = DIRECTION ( 'NONE',  ( 0.5150380749100536000, 0.0000000000000000000, -0.8571673007021125600 ) ) ;
#90 = CARTESIAN_POINT ( 'NONE',  ( -85.00000000000001400, 2.632990618166808200E-016, -2.149999999999999000 ) ) ;
#91 = DIRECTION ( 'NONE',  ( 0.5150380749100536000, 1.049727191138618900E-016, 0.8571673007021125600 ) ) ;
#92 = DIRECTION ( 'NONE',  ( -1.000000000000000000, -0.0000000000000000000, -0.0000000000000000000 ) ) ;
#93 = DIRECTION ( 'NONE',  ( -1.000000000000000000, -0.0000000000000000000, -0.0000000000000000000 ) ) ;
#94 = DIRECTION ( 'NONE',  ( 0.0000000000000000000, 0.0000000000000000000, 1.000000000000000000 ) ) ;
#95 = CARTESIAN_POINT ( 'NONE',  ( 94.49999999999998600, 0.0000000000000000000, 0.0000000000000000000 ) ) ;
#96 = DIRECTION ( 'NONE',  ( -1.000000000000000000, -0.0000000000000000000, -0.0000000000000000000 ) ) ;
#97 = DIRECTION ( 'NONE',  ( 0.0000000000000000000, 0.0000000000000000000, -1.000000000000000000 ) ) ;
#98 = CARTESIAN_POINT ( 'NONE',  ( -85.00000000000001400, 0.0000000000000000000, 2.149999999999999000 ) ) ;
#99 = DIRECTION ( 'NONE',  ( -0.5150380749100504900, 1.049727191138621500E-016, -0.8571673007021146700 ) ) ;
#100 = CARTESIAN_POINT ( 'NONE',  ( 85.00000000000001400, 0.0000000000000000000, -2.150000000000004400 ) ) ;
#101 = DIRECTION ( 'NONE',  ( 0.0000000000000000000, 0.0000000000000000000, -1.000000000000000000 ) ) ;
#102 = CARTESIAN_POINT ( 'NONE',  ( -85.00000000000001400, 0.0000000000000000000, 0.0000000000000000000 ) ) ;
#103 = CARTESIAN_POINT ( 'NONE',  ( 94.49999999999998600, 0.0000000000000000000, 0.0000000000000000000 ) ) ;
#104 = DIRECTION ( 'NONE',  ( -1.000000000000000000, -0.0000000000000000000, -0.0000000000000000000 ) ) ;
#105 = CARTESIAN_POINT ( 'NONE',  ( 95.00000000000000000, 0.0000000000000000000, 0.0000000000000000000 ) ) ;
#106 = CARTESIAN_POINT ( 'NONE',  ( 95.00000000000000000, 4.592425496802575900E-016, -3.500000000000003100 ) ) ;
#107 = CARTESIAN_POINT ( 'NONE',  ( 85.00000000000001400, 0.0000000000000000000, 0.0000000000000000000 ) ) ;
#108 = DIRECTION ( 'NONE',  ( -1.000000000000000000, -0.0000000000000000000, -0.0000000000000000000 ) ) ;
#109 = CARTESIAN_POINT ( 'NONE',  ( -83.70814966909077300, 0.0000000000000000000, 0.0000000000000000000 ) ) ;
#110 = DIRECTION ( 'NONE',  ( -1.000000000000000000, -0.0000000000000000000, -0.0000000000000000000 ) ) ;
#111 = CARTESIAN_POINT ( 'NONE',  ( -94.49999999999998600, 0.0000000000000000000, 4.000000000000000000 ) ) ;
#112 = CARTESIAN_POINT ( 'NONE',  ( 94.49999999999998600, 0.0000000000000000000, 4.000000000000000000 ) ) ;
#113 = CARTESIAN_POINT ( 'NONE',  ( 95.00000000000000000, 2.632990618166816600E-016, -2.150000000000005700 ) ) ;
#114 = DIRECTION ( 'NONE',  ( 0.0000000000000000000, 0.0000000000000000000, -1.000000000000000000 ) ) ;
#115 = CARTESIAN_POINT ( 'NONE',  ( -95.00000000000000000, 0.0000000000000000000, 2.149999999999999900 ) ) ;
#116 = FILL_AREA_STYLE_COLOUR ( '', #433 ) ;
#117 = FILL_AREA_STYLE ('',( #138 ) ) ;
#118 =( LENGTH_UNIT ( ) NAMED_UNIT ( * ) SI_UNIT ( .MILLI., .METRE. ) );
#119 = CARTESIAN_POINT ( 'NONE',  ( 85.00000000000001400, 0.0000000000000000000, -2.150000000000004400 ) ) ;
#120 = CARTESIAN_POINT ( 'NONE',  ( 94.49999999999998600, 0.0000000000000000000, 4.000000000000000000 ) ) ;
#121 = CARTESIAN_POINT ( 'NONE',  ( 95.00000000000000000, 0.0000000000000000000, 3.500000000000003100 ) ) ;
#122 = DIRECTION ( 'NONE',  ( 0.0000000000000000000, 0.0000000000000000000, -1.000000000000000000 ) ) ;
#123 = DIRECTION ( 'NONE',  ( 0.0000000000000000000, 0.0000000000000000000, -1.000000000000000000 ) ) ;
#124 = CARTESIAN_POINT ( 'NONE',  ( 0.0000000000000000000, 0.0000000000000000000, 2.149999999999999500 ) ) ;
#125 = DIRECTION ( 'NONE',  ( -1.000000000000000000, -0.0000000000000000000, -0.0000000000000000000 ) ) ;
#126 = CARTESIAN_POINT ( 'NONE',  ( -95.00000000000000000, 4.592425496802559200E-016, 3.499999999999975100 ) ) ;
#127 =( LENGTH_UNIT ( ) NAMED_UNIT ( * ) SI_UNIT ( .MILLI., .METRE. ) );
#128 = CARTESIAN_POINT ( 'NONE',  ( -94.49999999999998600, 0.0000000000000000000, 0.0000000000000000000 ) ) ;
#129 = CARTESIAN_POINT ( 'NONE',  ( 94.49999999999998600, 4.898587196589412800E-016, -4.000000000000000000 ) ) ;
#130 = CARTESIAN_POINT ( 'NONE',  ( 95.00000000000000000, 0.0000000000000000000, 2.150000000000005700 ) ) ;
#131 = CARTESIAN_POINT ( 'NONE',  ( 0.0000000000000000000, 0.0000000000000000000, 2.150000000000005200 ) ) ;
#132 = SURFACE_SIDE_STYLE ('',( #437 ) ) ;
#133 = SURFACE_STYLE_USAGE ( .BOTH. , #132 ) ;
#134 = DIRECTION ( 'NONE',  ( 0.0000000000000000000, 0.0000000000000000000, -1.000000000000000000 ) ) ;
#135 = CARTESIAN_POINT ( 'NONE',  ( -95.00000000000000000, 2.632990618166809200E-016, -2.149999999999999900 ) ) ;
#136 = CARTESIAN_POINT ( 'NONE',  ( -94.49999999999998600, 4.898587196589412800E-016, -4.000000000000000000 ) ) ;
#137 = CARTESIAN_POINT ( 'NONE',  ( 95.00000000000000000, 0.0000000000000000000, 0.0000000000000000000 ) ) ;
#138 = FILL_AREA_STYLE_COLOUR ( '', #424 ) ;
#139 =( NAMED_UNIT ( * ) PLANE_ANGLE_UNIT ( ) SI_UNIT ( $, .RADIAN. ) );
#140 = DIRECTION ( 'NONE',  ( 1.000000000000000000, 0.0000000000000000000, 0.0000000000000000000 ) ) ;
#141 = CARTESIAN_POINT ( 'NONE',  ( -95.00000000000000000, 0.0000000000000000000, -3.499999999999975100 ) ) ;
#142 = DIRECTION ( 'NONE',  ( 1.000000000000000000, 0.0000000000000000000, 0.0000000000000000000 ) ) ;
#143 = CARTESIAN_POINT ( 'NONE',  ( -95.00000000000000000, 0.0000000000000000000, 0.0000000000000000000 ) ) ;
#144 = CARTESIAN_POINT ( 'NONE',  ( 83.70814966909075800, 0.0000000000000000000, 0.0000000000000000000 ) ) ;
#145 = CARTESIAN_POINT ( 'NONE',  ( 85.00000000000001400, 2.632990618166814700E-016, 2.150000000000004400 ) ) ;
#146 =( NAMED_UNIT ( * ) SI_UNIT ( $, .STERADIAN. ) SOLID_ANGLE_UNIT ( ) );
#147 = DIRECTION ( 'NONE',  ( 0.0000000000000000000, 0.0000000000000000000, 1.000000000000000000 ) ) ;
#148 = DIRECTION ( 'NONE',  ( 0.0000000000000000000, 0.0000000000000000000, 1.000000000000000000 ) ) ;
#149 = DIRECTION ( 'NONE',  ( 1.000000000000000000, 0.0000000000000000000, 0.0000000000000000000 ) ) ;
#150 = CARTESIAN_POINT ( 'NONE',  ( -85.00000000000001400, 2.632990618166808700E-016, -2.149999999999999000 ) ) ;
#151 = CARTESIAN_POINT ( 'NONE',  ( -85.00000000000001400, 0.0000000000000000000, 2.149999999999999000 ) ) ;
#152 = DIRECTION ( 'NONE',  ( -1.000000000000000000, -0.0000000000000000000, -0.0000000000000000000 ) ) ;
#153 = DIRECTION ( 'NONE',  ( -0.7071067811865597900, 0.0000000000000000000, 0.7071067811865352500 ) ) ;
#154 = SURFACE_SIDE_STYLE ('',( #434 ) ) ;
#155 = APPLICATION_PROTOCOL_DEFINITION ( 'draft international standard', 'automotive_design', 1998, #162 ) ;
#156 = DIRECTION ( 'NONE',  ( 1.000000000000000000, 0.0000000000000000000, 0.0000000000000000000 ) ) ;
#157 = FILL_AREA_STYLE ('',( #116 ) ) ;
#158 =( NAMED_UNIT ( * ) SI_UNIT ( $, .STERADIAN. ) SOLID_ANGLE_UNIT ( ) );
#159 =( NAMED_UNIT ( * ) PLANE_ANGLE_UNIT ( ) SI_UNIT ( $, .RADIAN. ) );
#160 = PRODUCT_CONTEXT ( 'NONE', #164, 'mechanical' ) ;
#161 = CARTESIAN_POINT ( 'NONE',  ( 0.0000000000000000000, 0.0000000000000000000, 0.0000000000000000000 ) ) ;
#162 = APPLICATION_CONTEXT ( 'automotive_design' ) ;
#163 = APPLICATION_PROTOCOL_DEFINITION ( 'draft international standard', 'automotive_design', 1998, #164 ) ;
#164 = APPLICATION_CONTEXT ( 'automotive_design' ) ;
#165 =( LENGTH_UNIT ( ) NAMED_UNIT ( * ) SI_UNIT ( .MILLI., .METRE. ) );
#166 = DIRECTION ( 'NONE',  ( 0.0000000000000000000, 0.0000000000000000000, 1.000000000000000000 ) ) ;
#167 =( NAMED_UNIT ( * ) PLANE_ANGLE_UNIT ( ) SI_UNIT ( $, .RADIAN. ) );
#168 =( NAMED_UNIT ( * ) SI_UNIT ( $, .STERADIAN. ) SOLID_ANGLE_UNIT ( ) );
#169 = SURFACE_STYLE_USAGE ( .BOTH. , #154 ) ;
#170 = PRODUCT_DEFINITION_CONTEXT ( 'detailed design', #162, 'design' ) ;
#171 = PRODUCT_DEFINITION_SHAPE ( 'NONE', 'NONE',  #249 ) ;
#172 = ADVANCED_FACE ( 'NONE', ( #284, #288 ), #13, .T. ) ;
#173 = ADVANCED_FACE ( 'NONE', ( #324 ), #330, .F. ) ;
#174 = ADVANCED_FACE ( 'NONE', ( #331 ), #403, .T. ) ;
#175 = ADVANCED_FACE ( 'NONE', ( #329 ), #419, .F. ) ;
#176 = ADVANCED_FACE ( 'NONE', ( #334 ), #376, .T. ) ;
#177 = ADVANCED_FACE ( 'NONE', ( #343, #402 ), #23, .F. ) ;
#178 = ADVANCED_FACE ( 'NONE', ( #328 ), #396, .F. ) ;
#179 = ADVANCED_FACE ( 'NONE', ( #404 ), #393, .T. ) ;
#180 = ADVANCED_FACE ( 'NONE', ( #391 ), #413, .F. ) ;
#181 = ADVANCED_FACE ( 'NONE', ( #372 ), #395, .T. ) ;
#182 = ADVANCED_FACE ( 'NONE', ( #412 ), #408, .F. ) ;
#183 = ADVANCED_FACE ( 'NONE', ( #409 ), #370, .F. ) ;
#184 = ADVANCED_FACE ( 'NONE', ( #414 ), #397, .F. ) ;
#185 = ADVANCED_FACE ( 'NONE', ( #405 ), #399, .F. ) ;
#186 = ADVANCED_FACE ( 'NONE', ( #371 ), #384, .T. ) ;
#187 = ADVANCED_FACE ( 'NONE', ( #417 ), #411, .T. ) ;
#188 = EDGE_CURVE ( 'NONE', #266, #270, #377, .T. ) ;
#189 = EDGE_CURVE ( 'NONE', #271, #310, #398, .T. ) ;
#190 = AXIS2_PLACEMENT_3D ( 'NONE', #128, #149, #114 ) ;
#191 = AXIS2_PLACEMENT_3D ( 'NONE', #137, #140, #122 ) ;
#192 = AXIS2_PLACEMENT_3D ( 'NONE', #143, #108, #123 ) ;
#193 = EDGE_CURVE ( 'NONE', #267, #299, #415, .T. ) ;
#194 = EDGE_CURVE ( 'NONE', #299, #304, #390, .T. ) ;
#195 = EDGE_CURVE ( 'NONE', #286, #302, #410, .T. ) ;
#196 = EDGE_CURVE ( 'NONE', #289, #271, #416, .T. ) ;
#197 = EDGE_CURVE ( 'NONE', #310, #271, #379, .T. ) ;
#198 = EDGE_CURVE ( 'NONE', #316, #304, #373, .T. ) ;
#199 = AXIS2_PLACEMENT_3D ( 'NONE', #15, #16, #2 ) ;
#200 = EDGE_CURVE ( 'NONE', #273, #275, #380, .T. ) ;
#201 = EDGE_CURVE ( 'NONE', #305, #270, #400, .T. ) ;
#202 = AXIS2_PLACEMENT_3D ( 'NONE', #24, #21, #19 ) ;
#203 = AXIS2_PLACEMENT_3D ( 'NONE', #51, #63, #62 ) ;
#204 = AXIS2_PLACEMENT_3D ( 'NONE', #103, #92, #97 ) ;
#205 = AXIS2_PLACEMENT_3D ( 'NONE', #95, #88, #75 ) ;
#206 = EDGE_CURVE ( 'NONE', #309, #275, #386, .T. ) ;
#207 = AXIS2_PLACEMENT_3D ( 'NONE', #67, #56, #38 ) ;
#208 = EDGE_CURVE ( 'NONE', #272, #319, #374, .T. ) ;
#209 = EDGE_CURVE ( 'NONE', #305, #266, #383, .T. ) ;
#210 = AXIS2_PLACEMENT_3D ( 'NONE', #3, #5, #6 ) ;
#211 = AXIS2_PLACEMENT_3D ( 'NONE', #42, #65, #47 ) ;
#212 = EDGE_CURVE ( 'NONE', #309, #299, #407, .T. ) ;
#213 = EDGE_CURVE ( 'NONE', #272, #289, #420, .T. ) ;
#214 = EDGE_CURVE ( 'NONE', #304, #275, #387, .T. ) ;
#215 = EDGE_CURVE ( 'NONE', #319, #289, #389, .T. ) ;
#216 = EDGE_CURVE ( 'NONE', #299, #309, #394, .T. ) ;
#217 = AXIS2_PLACEMENT_3D ( 'NONE', #61, #33, #39 ) ;
#218 = AXIS2_PLACEMENT_3D ( 'NONE', #26, #27, #20 ) ;
#219 = EDGE_CURVE ( 'NONE', #289, #319, #423, .T. ) ;
#220 = EDGE_CURVE ( 'NONE', #273, #316, #427, .T. ) ;
#221 = AXIS2_PLACEMENT_3D ( 'NONE', #70, #68, #48 ) ;
#222 = AXIS2_PLACEMENT_3D ( 'NONE', #58, #44, #50 ) ;
#223 = AXIS2_PLACEMENT_3D ( 'NONE', #59, #60, #64 ) ;
#224 = AXIS2_PLACEMENT_3D ( 'NONE', #55, #96, #83 ) ;
#225 = AXIS2_PLACEMENT_3D ( 'NONE', #14, #11, #1 ) ;
#226 = AXIS2_PLACEMENT_3D ( 'NONE', #10, #12, #4 ) ;
#227 = AXIS2_PLACEMENT_3D ( 'NONE', #30, #31, #32 ) ;
#228 = AXIS2_PLACEMENT_3D ( 'NONE', #76, #77, #101 ) ;
#229 = EDGE_CURVE ( 'NONE', #302, #286, #428, .T. ) ;
#230 = AXIS2_PLACEMENT_3D ( 'NONE', #102, #84, #94 ) ;
#231 = EDGE_CURVE ( 'NONE', #302, #266, #425, .T. ) ;
#232 = AXIS2_PLACEMENT_3D ( 'NONE', #81, #85, #148 ) ;
#233 = AXIS2_PLACEMENT_3D ( 'NONE', #17, #22, #18 ) ;
#234 = AXIS2_PLACEMENT_3D ( 'NONE', #78, #93, #79 ) ;
#235 = AXIS2_PLACEMENT_3D ( 'NONE', #45, #54, #57 ) ;
#236 = AXIS2_PLACEMENT_3D ( 'NONE', #82, #104, #72 ) ;
#237 = EDGE_CURVE ( 'NONE', #286, #270, #436, .T. ) ;
#238 = AXIS2_PLACEMENT_3D ( 'NONE', #105, #142, #134 ) ;
#239 = EDGE_CURVE ( 'NONE', #267, #279, #443, .T. ) ;
#240 = EDGE_CURVE ( 'NONE', #275, #304, #438, .T. ) ;
#241 = EDGE_CURVE ( 'NONE', #279, #267, #429, .T. ) ;
#242 = EDGE_CURVE ( 'NONE', #319, #310, #431, .T. ) ;
#243 = AXIS2_PLACEMENT_3D ( 'NONE', #7, #8, #9 ) ;
#244 = EDGE_CURVE ( 'NONE', #316, #273, #430, .T. ) ;
#245 = AXIS2_PLACEMENT_3D ( 'NONE', #66, #53, #43 ) ;
#246 = EDGE_CURVE ( 'NONE', #279, #309, #426, .T. ) ;
#247 = AXIS2_PLACEMENT_3D ( 'NONE', #25, #28, #29 ) ;
#248 = EDGE_CURVE ( 'NONE', #270, #266, #422, .T. ) ;
#249 = PRODUCT_DEFINITION ( '未知', '', #262, #170 ) ;
#250 = AXIS2_PLACEMENT_3D ( 'NONE', #107, #110, #147 ) ;
#251 = PRESENTATION_LAYER_ASSIGNMENT (  '', '', ( #256 ) ) ;
#252 = MECHANICAL_DESIGN_GEOMETRIC_PRESENTATION_REPRESENTATION (  '', ( #256 ), #261 ) ;
#253 = AXIS2_PLACEMENT_3D ( 'NONE', #161, #166, #156 ) ;
#254 =( GEOMETRIC_REPRESENTATION_CONTEXT ( 3 ) GLOBAL_UNCERTAINTY_ASSIGNED_CONTEXT ( ( #448 ) ) GLOBAL_UNIT_ASSIGNED_CONTEXT ( ( #118, #139, #146 ) ) REPRESENTATION_CONTEXT ( 'NONE', 'WORKASPACE' ) );
#255 = PRODUCT_RELATED_PRODUCT_CATEGORY ( 'part', '', ( #263 ) ) ;
#256 = STYLED_ITEM ( 'NONE', ( #435 ), #447 ) ;
#257 =( GEOMETRIC_REPRESENTATION_CONTEXT ( 3 ) GLOBAL_UNCERTAINTY_ASSIGNED_CONTEXT ( ( #445 ) ) GLOBAL_UNIT_ASSIGNED_CONTEXT ( ( #127, #159, #168 ) ) REPRESENTATION_CONTEXT ( 'NONE', 'WORKASPACE' ) );
#258 = STYLED_ITEM ( 'NONE', ( #439 ), #444 ) ;
#259 = PRESENTATION_LAYER_ASSIGNMENT (  '', '', ( #258 ) ) ;
#260 = MECHANICAL_DESIGN_GEOMETRIC_PRESENTATION_REPRESENTATION (  '', ( #258 ), #254 ) ;
#261 =( GEOMETRIC_REPRESENTATION_CONTEXT ( 3 ) GLOBAL_UNCERTAINTY_ASSIGNED_CONTEXT ( ( #446 ) ) GLOBAL_UNIT_ASSIGNED_CONTEXT ( ( #165, #167, #158 ) ) REPRESENTATION_CONTEXT ( 'NONE', 'WORKASPACE' ) );
#262 = PRODUCT_DEFINITION_FORMATION_WITH_SPECIFIED_SOURCE ( '任何', '', #263, .NOT_KNOWN. ) ;
#263 = PRODUCT ( 'BACF-C2G1-P-D8-L190-M5-N5(嘉立创FA jlcfa.com)', 'BACF-C2G1-P-D8-L190-M5-N5(嘉立创FA jlcfa.com)', '', ( #160 ) ) ;
#264 = EDGE_LOOP ( 'NONE', ( #307, #277, #293 ) ) ;
#265 = EDGE_LOOP ( 'NONE', ( #366, #368, #346, #354 ) ) ;
#266 = VERTEX_POINT ( 'NONE', #119 ) ;
#267 = VERTEX_POINT ( 'NONE', #106 ) ;
#268 = EDGE_LOOP ( 'NONE', ( #353, #283, #349, #351 ) ) ;
#269 = EDGE_LOOP ( 'NONE', ( #323, #369 ) ) ;
#270 = VERTEX_POINT ( 'NONE', #145 ) ;
#271 = VERTEX_POINT ( 'NONE', #135 ) ;
#272 = VERTEX_POINT ( 'NONE', #109 ) ;
#273 = VERTEX_POINT ( 'NONE', #126 ) ;
#274 = ORIENTED_EDGE ( 'NONE', *, *, #213, .T. ) ;
#275 = VERTEX_POINT ( 'NONE', #111 ) ;
#276 = ORIENTED_EDGE ( 'NONE', *, *, #246, .F. ) ;
#277 = ORIENTED_EDGE ( 'NONE', *, *, #209, .T. ) ;
#278 = EDGE_LOOP ( 'NONE', ( #360, #361, #325, #339 ) ) ;
#279 = VERTEX_POINT ( 'NONE', #121 ) ;
#280 = ORIENTED_EDGE ( 'NONE', *, *, #201, .T. ) ;
#281 = ORIENTED_EDGE ( 'NONE', *, *, #214, .F. ) ;
#282 = ORIENTED_EDGE ( 'NONE', *, *, #214, .T. ) ;
#283 = ORIENTED_EDGE ( 'NONE', *, *, #231, .T. ) ;
#284 = FACE_OUTER_BOUND ( 'NONE', #313, .T. ) ;
#285 = EDGE_LOOP ( 'NONE', ( #290, #365, #281, #291 ) ) ;
#286 = VERTEX_POINT ( 'NONE', #130 ) ;
#287 = ORIENTED_EDGE ( 'NONE', *, *, #209, .F. ) ;
#288 = FACE_BOUND ( 'NONE', #269, .T. ) ;
#289 = VERTEX_POINT ( 'NONE', #150 ) ;
#290 = ORIENTED_EDGE ( 'NONE', *, *, #220, .F. ) ;
#291 = ORIENTED_EDGE ( 'NONE', *, *, #198, .F. ) ;
#292 = EDGE_LOOP ( 'NONE', ( #357, #355, #321, #364 ) ) ;
#293 = ORIENTED_EDGE ( 'NONE', *, *, #248, .F. ) ;
#294 = EDGE_LOOP ( 'NONE', ( #348, #274, #335 ) ) ;
#295 = ORIENTED_EDGE ( 'NONE', *, *, #212, .T. ) ;
#296 = ORIENTED_EDGE ( 'NONE', *, *, #188, .F. ) ;
#297 = EDGE_LOOP ( 'NONE', ( #332, #327 ) ) ;
#298 = EDGE_LOOP ( 'NONE', ( #363, #367 ) ) ;
#299 = VERTEX_POINT ( 'NONE', #129 ) ;
#300 = EDGE_LOOP ( 'NONE', ( #295, #340, #282, #344 ) ) ;
#301 = EDGE_LOOP ( 'NONE', ( #287, #280, #296 ) ) ;
#302 = VERTEX_POINT ( 'NONE', #113 ) ;
#303 = ORIENTED_EDGE ( 'NONE', *, *, #242, .F. ) ;
#304 = VERTEX_POINT ( 'NONE', #136 ) ;
#305 = VERTEX_POINT ( 'NONE', #144 ) ;
#306 = EDGE_LOOP ( 'NONE', ( #341, #338, #345 ) ) ;
#307 = ORIENTED_EDGE ( 'NONE', *, *, #201, .F. ) ;
#308 = ORIENTED_EDGE ( 'NONE', *, *, #239, .F. ) ;
#309 = VERTEX_POINT ( 'NONE', #112 ) ;
#310 = VERTEX_POINT ( 'NONE', #115 ) ;
#311 = EDGE_LOOP ( 'NONE', ( #342, #320, #352, #333 ) ) ;
#312 = EDGE_LOOP ( 'NONE', ( #308, #315, #317, #276 ) ) ;
#313 = EDGE_LOOP ( 'NONE', ( #356, #322 ) ) ;
#314 = EDGE_LOOP ( 'NONE', ( #347, #350, #362, #303 ) ) ;
#315 = ORIENTED_EDGE ( 'NONE', *, *, #193, .T. ) ;
#316 = VERTEX_POINT ( 'NONE', #141 ) ;
#317 = ORIENTED_EDGE ( 'NONE', *, *, #212, .F. ) ;
#318 = EDGE_LOOP ( 'NONE', ( #326, #358, #359, #336 ) ) ;
#319 = VERTEX_POINT ( 'NONE', #151 ) ;
#320 = ORIENTED_EDGE ( 'NONE', *, *, #195, .F. ) ;
#321 = ORIENTED_EDGE ( 'NONE', *, *, #198, .T. ) ;
#322 = ORIENTED_EDGE ( 'NONE', *, *, #239, .T. ) ;
#323 = ORIENTED_EDGE ( 'NONE', *, *, #195, .T. ) ;
#324 = FACE_OUTER_BOUND ( 'NONE', #318, .T. ) ;
#325 = ORIENTED_EDGE ( 'NONE', *, *, #206, .T. ) ;
#326 = ORIENTED_EDGE ( 'NONE', *, *, #196, .F. ) ;
#327 = ORIENTED_EDGE ( 'NONE', *, *, #220, .T. ) ;
#328 = FACE_OUTER_BOUND ( 'NONE', #314, .T. ) ;
#329 = FACE_OUTER_BOUND ( 'NONE', #294, .T. ) ;
#330 = CYLINDRICAL_SURFACE ( 'NONE', #226, 2.149999999999999500 ) ;
#331 = FACE_OUTER_BOUND ( 'NONE', #292, .T. ) ;
#332 = ORIENTED_EDGE ( 'NONE', *, *, #244, .T. ) ;
#333 = ORIENTED_EDGE ( 'NONE', *, *, #248, .T. ) ;
#334 = FACE_OUTER_BOUND ( 'NONE', #300, .T. ) ;
#335 = ORIENTED_EDGE ( 'NONE', *, *, #219, .T. ) ;
#336 = ORIENTED_EDGE ( 'NONE', *, *, #197, .T. ) ;
#337 = CLOSED_SHELL ( 'NONE', ( #181, #186, #175, #178, #176, #182, #185, #184, #180, #172, #179, #177, #173, #183, #187, #174 ) ) ;
#338 = ORIENTED_EDGE ( 'NONE', *, *, #208, .T. ) ;
#339 = ORIENTED_EDGE ( 'NONE', *, *, #240, .T. ) ;
#340 = ORIENTED_EDGE ( 'NONE', *, *, #194, .T. ) ;
#341 = ORIENTED_EDGE ( 'NONE', *, *, #213, .F. ) ;
#342 = ORIENTED_EDGE ( 'NONE', *, *, #231, .F. ) ;
#343 = FACE_OUTER_BOUND ( 'NONE', #297, .T. ) ;
#344 = ORIENTED_EDGE ( 'NONE', *, *, #206, .F. ) ;
#345 = ORIENTED_EDGE ( 'NONE', *, *, #215, .T. ) ;
#346 = ORIENTED_EDGE ( 'NONE', *, *, #246, .T. ) ;
#347 = ORIENTED_EDGE ( 'NONE', *, *, #219, .F. ) ;
#348 = ORIENTED_EDGE ( 'NONE', *, *, #208, .F. ) ;
#349 = ORIENTED_EDGE ( 'NONE', *, *, #188, .T. ) ;
#350 = ORIENTED_EDGE ( 'NONE', *, *, #196, .T. ) ;
#351 = ORIENTED_EDGE ( 'NONE', *, *, #237, .F. ) ;
#352 = ORIENTED_EDGE ( 'NONE', *, *, #237, .T. ) ;
#353 = ORIENTED_EDGE ( 'NONE', *, *, #229, .F. ) ;
#354 = ORIENTED_EDGE ( 'NONE', *, *, #216, .F. ) ;
#355 = ORIENTED_EDGE ( 'NONE', *, *, #244, .F. ) ;
#356 = ORIENTED_EDGE ( 'NONE', *, *, #241, .T. ) ;
#357 = ORIENTED_EDGE ( 'NONE', *, *, #200, .F. ) ;
#358 = ORIENTED_EDGE ( 'NONE', *, *, #215, .F. ) ;
#359 = ORIENTED_EDGE ( 'NONE', *, *, #242, .T. ) ;
#360 = ORIENTED_EDGE ( 'NONE', *, *, #194, .F. ) ;
#361 = ORIENTED_EDGE ( 'NONE', *, *, #216, .T. ) ;
#362 = ORIENTED_EDGE ( 'NONE', *, *, #189, .T. ) ;
#363 = ORIENTED_EDGE ( 'NONE', *, *, #197, .F. ) ;
#364 = ORIENTED_EDGE ( 'NONE', *, *, #240, .F. ) ;
#365 = ORIENTED_EDGE ( 'NONE', *, *, #200, .T. ) ;
#366 = ORIENTED_EDGE ( 'NONE', *, *, #193, .F. ) ;
#367 = ORIENTED_EDGE ( 'NONE', *, *, #189, .F. ) ;
#368 = ORIENTED_EDGE ( 'NONE', *, *, #241, .F. ) ;
#369 = ORIENTED_EDGE ( 'NONE', *, *, #229, .T. ) ;
#370 = CONICAL_SURFACE ( 'NONE', #217, 2.149999999999999000, 1.029744258676658800 ) ;
#371 = FACE_OUTER_BOUND ( 'NONE', #312, .T. ) ;
#372 = FACE_OUTER_BOUND ( 'NONE', #285, .T. ) ;
#373 = LINE ( 'NONE', #40, #385 ) ;
#374 = LINE ( 'NONE', #98, #401 ) ;
#375 = VECTOR ( 'NONE', #91, 1000.000000000000100 ) ;
#376 = CYLINDRICAL_SURFACE ( 'NONE', #243, 4.000000000000000000 ) ;
#377 = CIRCLE ( 'NONE', #235, 2.150000000000004400 ) ;
#378 = VECTOR ( 'NONE', #46, 1000.000000000000000 ) ;
#379 = CIRCLE ( 'NONE', #224, 2.149999999999999900 ) ;
#380 = LINE ( 'NONE', #52, #392 ) ;
#381 = VECTOR ( 'NONE', #99, 999.9999999999998900 ) ;
#382 = VECTOR ( 'NONE', #87, 1000.000000000000000 ) ;
#383 = LINE ( 'NONE', #100, #406 ) ;
#384 = CONICAL_SURFACE ( 'NONE', #221, 4.000000000000000000, 0.7853981633974309600 ) ;
#385 = VECTOR ( 'NONE', #41, 1000.000000000000000 ) ;
#386 = LINE ( 'NONE', #74, #382 ) ;
#387 = CIRCLE ( 'NONE', #228, 4.000000000000000000 ) ;
#388 = VECTOR ( 'NONE', #49, 1000.000000000000000 ) ;
#389 = CIRCLE ( 'NONE', #230, 2.149999999999999000 ) ;
#390 = LINE ( 'NONE', #36, #388 ) ;
#391 = FACE_OUTER_BOUND ( 'NONE', #311, .T. ) ;
#392 = VECTOR ( 'NONE', #80, 1000.000000000000000 ) ;
#393 = CYLINDRICAL_SURFACE ( 'NONE', #247, 4.000000000000000000 ) ;
#394 = CIRCLE ( 'NONE', #205, 4.000000000000000000 ) ;
#395 = CONICAL_SURFACE ( 'NONE', #227, 3.499999999999975100, 0.7853981633974587200 ) ;
#396 = CYLINDRICAL_SURFACE ( 'NONE', #218, 2.149999999999999500 ) ;
#397 = CONICAL_SURFACE ( 'NONE', #245, 2.150000000000004400, 1.029744258676655200 ) ;
#398 = CIRCLE ( 'NONE', #203, 2.149999999999999900 ) ;
#399 = CONICAL_SURFACE ( 'NONE', #211, 2.150000000000004400, 1.029744258676655200 ) ;
#400 = LINE ( 'NONE', #37, #375 ) ;
#401 = VECTOR ( 'NONE', #86, 999.9999999999998900 ) ;
#402 = FACE_BOUND ( 'NONE', #298, .T. ) ;
#403 = CONICAL_SURFACE ( 'NONE', #199, 3.499999999999975100, 0.7853981633974587200 ) ;
#404 = FACE_OUTER_BOUND ( 'NONE', #278, .T. ) ;
#405 = FACE_OUTER_BOUND ( 'NONE', #301, .T. ) ;
#406 = VECTOR ( 'NONE', #89, 1000.000000000000100 ) ;
#407 = CIRCLE ( 'NONE', #204, 4.000000000000000000 ) ;
#408 = CYLINDRICAL_SURFACE ( 'NONE', #207, 2.150000000000005200 ) ;
#409 = FACE_OUTER_BOUND ( 'NONE', #306, .T. ) ;
#410 = CIRCLE ( 'NONE', #223, 2.150000000000005700 ) ;
#411 = CONICAL_SURFACE ( 'NONE', #222, 4.000000000000000000, 0.7853981633974309600 ) ;
#412 = FACE_OUTER_BOUND ( 'NONE', #268, .T. ) ;
#413 = CYLINDRICAL_SURFACE ( 'NONE', #233, 2.150000000000005200 ) ;
#414 = FACE_OUTER_BOUND ( 'NONE', #264, .T. ) ;
#415 = LINE ( 'NONE', #34, #378 ) ;
#416 = LINE ( 'NONE', #69, #418 ) ;
#417 = FACE_OUTER_BOUND ( 'NONE', #265, .T. ) ;
#418 = VECTOR ( 'NONE', #35, 1000.000000000000000 ) ;
#419 = CONICAL_SURFACE ( 'NONE', #210, 2.149999999999999000, 1.029744258676658800 ) ;
#420 = LINE ( 'NONE', #90, #381 ) ;
#421 = VECTOR ( 'NONE', #152, 1000.000000000000000 ) ;
#422 = CIRCLE ( 'NONE', #250, 2.150000000000004400 ) ;
#423 = CIRCLE ( 'NONE', #234, 2.149999999999999000 ) ;
#424 = COLOUR_RGB ( '',0.7529411764705882200, 0.7529411764705882200, 0.7529411764705882200 ) ;
#425 = LINE ( 'NONE', #71, #441 ) ;
#426 = LINE ( 'NONE', #120, #432 ) ;
#427 = CIRCLE ( 'NONE', #236, 3.499999999999975100 ) ;
#428 = CIRCLE ( 'NONE', #232, 2.150000000000005700 ) ;
#429 = CIRCLE ( 'NONE', #191, 3.500000000000003100 ) ;
#430 = CIRCLE ( 'NONE', #192, 3.499999999999975100 ) ;
#431 = LINE ( 'NONE', #124, #421 ) ;
#432 = VECTOR ( 'NONE', #153, 1000.000000000000000 ) ;
#433 = COLOUR_RGB ( '',0.7529411764705882200, 0.7529411764705882200, 0.7529411764705882200 ) ;
#434 = SURFACE_STYLE_FILL_AREA ( #157 ) ;
#435 = PRESENTATION_STYLE_ASSIGNMENT (( #169 ) ) ;
#436 = LINE ( 'NONE', #131, #440 ) ;
#437 = SURFACE_STYLE_FILL_AREA ( #117 ) ;
#438 = CIRCLE ( 'NONE', #190, 4.000000000000000000 ) ;
#439 = PRESENTATION_STYLE_ASSIGNMENT (( #133 ) ) ;
#440 = VECTOR ( 'NONE', #125, 1000.000000000000000 ) ;
#441 = VECTOR ( 'NONE', #73, 1000.000000000000000 ) ;
#442 = SHAPE_DEFINITION_REPRESENTATION ( #171, #447 ) ;
#443 = CIRCLE ( 'NONE', #238, 3.500000000000003100 ) ;
#444 = MANIFOLD_SOLID_BREP ( '倒角1', #337 ) ;
#445 = UNCERTAINTY_MEASURE_WITH_UNIT (LENGTH_MEASURE( 1.000000000000000100E-005 ), #127, 'distance_accuracy_value', 'NONE');
#446 = UNCERTAINTY_MEASURE_WITH_UNIT (LENGTH_MEASURE( 1.000000000000000100E-005 ), #165, 'distance_accuracy_value', 'NONE');
#447 = ADVANCED_BREP_SHAPE_REPRESENTATION ( 'BACF-C2G1-P-D8-L190-M5-N5(嘉立创FA jlcfa.com)', ( #444, #253 ), #257 ) ;
#448 = UNCERTAINTY_MEASURE_WITH_UNIT (LENGTH_MEASURE( 1.000000000000000100E-005 ), #118, 'distance_accuracy_value', 'NONE');
ENDSEC;
END-ISO-10303-21;
