ISO-10303-21;
HEADER;
FILE_DESCRIPTION (( 'STEP AP214' ),
    '1' );
FILE_NAME ('BACF-C2G1-P-D8-L200-M5-N5(嘉立创FA jlcfa.com).step',
    '2026-09-04T13:22:10',
    ( '' ),
    ( 'Aliyun' ),
    'FaSTEP 2.0',
    'Forface 3D 2012',
    '' );
FILE_SCHEMA (( 'AUTOMOTIVE_DESIGN' ));
ENDSEC;

DATA;
#1 = VERTEX_POINT ( 'NONE', #330 ) ;
#2 = VERTEX_POINT ( 'NONE', #339 ) ;
#3 = VERTEX_POINT ( 'NONE', #332 ) ;
#4 = VERTEX_POINT ( 'NONE', #338 ) ;
#5 = VERTEX_POINT ( 'NONE', #337 ) ;
#6 = ORIENTED_EDGE ( 'NONE', *, *, #399, .T. ) ;
#7 = ORIENTED_EDGE ( 'NONE', *, *, #412, .T. ) ;
#8 = VERTEX_POINT ( 'NONE', #326 ) ;
#9 = ORIENTED_EDGE ( 'NONE', *, *, #404, .F. ) ;
#10 = ORIENTED_EDGE ( 'NONE', *, *, #393, .T. ) ;
#11 = ORIENTED_EDGE ( 'NONE', *, *, #400, .F. ) ;
#12 = ORIENTED_EDGE ( 'NONE', *, *, #428, .F. ) ;
#13 = ORIENTED_EDGE ( 'NONE', *, *, #436, .F. ) ;
#14 = VERTEX_POINT ( 'NONE', #340 ) ;
#15 = ORIENTED_EDGE ( 'NONE', *, *, #411, .T. ) ;
#16 = VERTEX_POINT ( 'NONE', #336 ) ;
#17 = ORIENTED_EDGE ( 'NONE', *, *, #399, .F. ) ;
#18 = VERTEX_POINT ( 'NONE', #324 ) ;
#19 = VERTEX_POINT ( 'NONE', #327 ) ;
#20 = ORIENTED_EDGE ( 'NONE', *, *, #386, .F. ) ;
#21 = VERTEX_POINT ( 'NONE', #328 ) ;
#22 = VERTEX_POINT ( 'NONE', #325 ) ;
#23 = VERTEX_POINT ( 'NONE', #329 ) ;
#24 = VERTEX_POINT ( 'NONE', #341 ) ;
#25 = VERTEX_POINT ( 'NONE', #331 ) ;
#26 = EDGE_LOOP ( 'NONE', ( #67, #77, #29, #38 ) ) ;
#27 = ORIENTED_EDGE ( 'NONE', *, *, #422, .T. ) ;
#28 = EDGE_LOOP ( 'NONE', ( #9, #10, #6 ) ) ;
#29 = ORIENTED_EDGE ( 'NONE', *, *, #376, .T. ) ;
#30 = ORIENTED_EDGE ( 'NONE', *, *, #420, .F. ) ;
#31 = EDGE_LOOP ( 'NONE', ( #17, #76, #70, #64 ) ) ;
#32 = ORIENTED_EDGE ( 'NONE', *, *, #413, .T. ) ;
#33 = ORIENTED_EDGE ( 'NONE', *, *, #430, .F. ) ;
#34 = ORIENTED_EDGE ( 'NONE', *, *, #412, .F. ) ;
#35 = ORIENTED_EDGE ( 'NONE', *, *, #434, .F. ) ;
#36 = ORIENTED_EDGE ( 'NONE', *, *, #430, .T. ) ;
#37 = ORIENTED_EDGE ( 'NONE', *, *, #377, .T. ) ;
#38 = ORIENTED_EDGE ( 'NONE', *, *, #385, .T. ) ;
#39 = ORIENTED_EDGE ( 'NONE', *, *, #406, .F. ) ;
#40 = EDGE_LOOP ( 'NONE', ( #11, #7, #13, #74 ) ) ;
#41 = ORIENTED_EDGE ( 'NONE', *, *, #435, .T. ) ;
#42 = ORIENTED_EDGE ( 'NONE', *, *, #414, .T. ) ;
#43 = EDGE_LOOP ( 'NONE', ( #12, #15, #20, #79 ) ) ;
#44 = ORIENTED_EDGE ( 'NONE', *, *, #403, .T. ) ;
#45 = ORIENTED_EDGE ( 'NONE', *, *, #406, .T. ) ;
#46 = ORIENTED_EDGE ( 'NONE', *, *, #393, .F. ) ;
#47 = ORIENTED_EDGE ( 'NONE', *, *, #427, .T. ) ;
#48 = ORIENTED_EDGE ( 'NONE', *, *, #387, .T. ) ;
#49 = ORIENTED_EDGE ( 'NONE', *, *, #432, .T. ) ;
#50 = ORIENTED_EDGE ( 'NONE', *, *, #410, .F. ) ;
#51 = CLOSED_SHELL ( 'NONE', ( #192, #195, #200, #189, #190, #194, #199, #187, #201, #196, #193, #197, #188, #198, #186, #191 ) ) ;
#52 = ORIENTED_EDGE ( 'NONE', *, *, #376, .F. ) ;
#53 = ORIENTED_EDGE ( 'NONE', *, *, #436, .T. ) ;
#54 = ORIENTED_EDGE ( 'NONE', *, *, #434, .T. ) ;
#55 = ORIENTED_EDGE ( 'NONE', *, *, #387, .F. ) ;
#56 = ORIENTED_EDGE ( 'NONE', *, *, #422, .F. ) ;
#57 = EDGE_LOOP ( 'NONE', ( #33, #49, #81, #27 ) ) ;
#58 = ORIENTED_EDGE ( 'NONE', *, *, #411, .F. ) ;
#59 = ORIENTED_EDGE ( 'NONE', *, *, #396, .F. ) ;
#60 = EDGE_LOOP ( 'NONE', ( #82, #69 ) ) ;
#61 = ORIENTED_EDGE ( 'NONE', *, *, #405, .F. ) ;
#62 = ORIENTED_EDGE ( 'NONE', *, *, #428, .T. ) ;
#63 = ORIENTED_EDGE ( 'NONE', *, *, #423, .T. ) ;
#64 = ORIENTED_EDGE ( 'NONE', *, *, #427, .F. ) ;
#65 = ORIENTED_EDGE ( 'NONE', *, *, #386, .T. ) ;
#66 = EDGE_LOOP ( 'NONE', ( #34, #59, #63, #56 ) ) ;
#67 = ORIENTED_EDGE ( 'NONE', *, *, #413, .F. ) ;
#68 = ORIENTED_EDGE ( 'NONE', *, *, #374, .F. ) ;
#69 = ORIENTED_EDGE ( 'NONE', *, *, #400, .T. ) ;
#70 = ORIENTED_EDGE ( 'NONE', *, *, #420, .T. ) ;
#71 = EDGE_LOOP ( 'NONE', ( #61, #80, #47, #86 ) ) ;
#72 = ORIENTED_EDGE ( 'NONE', *, *, #404, .T. ) ;
#73 = ORIENTED_EDGE ( 'NONE', *, *, #375, .F. ) ;
#74 = ORIENTED_EDGE ( 'NONE', *, *, #423, .F. ) ;
#75 = ORIENTED_EDGE ( 'NONE', *, *, #375, .T. ) ;
#76 = ORIENTED_EDGE ( 'NONE', *, *, #405, .T. ) ;
#77 = ORIENTED_EDGE ( 'NONE', *, *, #403, .F. ) ;
#78 = ORIENTED_EDGE ( 'NONE', *, *, #377, .F. ) ;
#79 = ORIENTED_EDGE ( 'NONE', *, *, #414, .F. ) ;
#80 = ORIENTED_EDGE ( 'NONE', *, *, #435, .F. ) ;
#81 = ORIENTED_EDGE ( 'NONE', *, *, #374, .T. ) ;
#82 = ORIENTED_EDGE ( 'NONE', *, *, #396, .T. ) ;
#83 = EDGE_LOOP ( 'NONE', ( #44, #75 ) ) ;
#84 = EDGE_LOOP ( 'NONE', ( #65, #36, #53, #68 ) ) ;
#85 = ORIENTED_EDGE ( 'NONE', *, *, #432, .F. ) ;
#86 = ORIENTED_EDGE ( 'NONE', *, *, #410, .T. ) ;
#87 = EDGE_LOOP ( 'NONE', ( #48, #62 ) ) ;
#88 = ORIENTED_EDGE ( 'NONE', *, *, #385, .F. ) ;
#89 = FACE_OUTER_BOUND ( 'NONE', #87, .T. ) ;
#90 = FACE_OUTER_BOUND ( 'NONE', #124, .T. ) ;
#91 = VECTOR ( 'NONE', #217, 1000.000000000000000 ) ;
#92 = EDGE_LOOP ( 'NONE', ( #46, #72, #41 ) ) ;
#93 = FACE_OUTER_BOUND ( 'NONE', #40, .T. ) ;
#94 = EDGE_LOOP ( 'NONE', ( #73, #32, #54, #52 ) ) ;
#95 = FACE_OUTER_BOUND ( 'NONE', #60, .T. ) ;
#96 = VERTEX_POINT ( 'NONE', #333 ) ;
#97 = CONICAL_SURFACE ( 'NONE', #381, 3.500000000000003100, 0.7853981633974587200 ) ;
#98 = VERTEX_POINT ( 'NONE', #334 ) ;
#99 = FACE_BOUND ( 'NONE', #83, .T. ) ;
#100 = CONICAL_SURFACE ( 'NONE', #379, 2.150000000000005200, 1.029744258676645200 ) ;
#101 = CONICAL_SURFACE ( 'NONE', #402, 2.149999999999999000, 1.029744258676658800 ) ;
#102 = CYLINDRICAL_SURFACE ( 'NONE', #383, 2.150000000000005700 ) ;
#103 = CONICAL_SURFACE ( 'NONE', #388, 2.149999999999999000, 1.029744258676658800 ) ;
#104 = LINE ( 'NONE', #212, #134 ) ;
#105 = LINE ( 'NONE', #224, #115 ) ;
#106 = VERTEX_POINT ( 'NONE', #355 ) ;
#107 = COLOUR_RGB ( '',0.7529411764705882200, 0.7529411764705882200, 0.7529411764705882200 ) ;
#108 = CYLINDRICAL_SURFACE ( 'NONE', #431, 2.149999999999999500 ) ;
#109 = CYLINDRICAL_SURFACE ( 'NONE', #417, 4.000000000000000000 ) ;
#110 = PRESENTATION_STYLE_ASSIGNMENT (( #346 ) ) ;
#111 = FACE_OUTER_BOUND ( 'NONE', #84, .T. ) ;
#112 = FACE_OUTER_BOUND ( 'NONE', #66, .T. ) ;
#113 = EDGE_LOOP ( 'NONE', ( #78, #45, #88 ) ) ;
#114 = EDGE_LOOP ( 'NONE', ( #39, #37, #35 ) ) ;
#115 = VECTOR ( 'NONE', #235, 1000.000000000000100 ) ;
#116 = SURFACE_STYLE_FILL_AREA ( #352 ) ;
#117 = CONICAL_SURFACE ( 'NONE', #408, 2.150000000000005200, 1.029744258676645200 ) ;
#118 = EDGE_LOOP ( 'NONE', ( #50, #30 ) ) ;
#119 = CYLINDRICAL_SURFACE ( 'NONE', #394, 2.149999999999999500 ) ;
#120 = CONICAL_SURFACE ( 'NONE', #378, 4.000000000000000000, 0.7853981633974309600 ) ;
#121 = FACE_OUTER_BOUND ( 'NONE', #71, .T. ) ;
#122 = FACE_OUTER_BOUND ( 'NONE', #113, .T. ) ;
#123 = FACE_OUTER_BOUND ( 'NONE', #31, .T. ) ;
#124 = EDGE_LOOP ( 'NONE', ( #58, #55, #42, #85 ) ) ;
#125 = CONICAL_SURFACE ( 'NONE', #416, 3.500000000000003100, 0.7853981633974587200 ) ;
#126 = CYLINDRICAL_SURFACE ( 'NONE', #395, 4.000000000000000000 ) ;
#127 = FACE_OUTER_BOUND ( 'NONE', #94, .T. ) ;
#128 = FACE_OUTER_BOUND ( 'NONE', #57, .T. ) ;
#129 = FACE_OUTER_BOUND ( 'NONE', #92, .T. ) ;
#130 = CYLINDRICAL_SURFACE ( 'NONE', #418, 2.150000000000005700 ) ;
#131 = FACE_OUTER_BOUND ( 'NONE', #43, .T. ) ;
#132 = FACE_OUTER_BOUND ( 'NONE', #114, .T. ) ;
#133 = FACE_BOUND ( 'NONE', #118, .T. ) ;
#134 = VECTOR ( 'NONE', #211, 1000.000000000000000 ) ;
#135 = FACE_OUTER_BOUND ( 'NONE', #26, .T. ) ;
#136 = CIRCLE ( 'NONE', #409, 2.150000000000006100 ) ;
#137 = FACE_OUTER_BOUND ( 'NONE', #28, .T. ) ;
#138 = CONICAL_SURFACE ( 'NONE', #397, 4.000000000000000000, 0.7853981633974309600 ) ;
#139 = LINE ( 'NONE', #232, #91 ) ;
#140 = VECTOR ( 'NONE', #295, 1000.000000000000000 ) ;
#141 = CIRCLE ( 'NONE', #429, 3.500000000000003100 ) ;
#142 = LINE ( 'NONE', #269, #162 ) ;
#143 = LINE ( 'NONE', #276, #161 ) ;
#144 = VECTOR ( 'NONE', #261, 1000.000000000000000 ) ;
#145 = CIRCLE ( 'NONE', #384, 2.149999999999999900 ) ;
#146 = LINE ( 'NONE', #265, #140 ) ;
#147 = VECTOR ( 'NONE', #299, 1000.000000000000000 ) ;
#148 = CIRCLE ( 'NONE', #442, 2.149999999999999000 ) ;
#149 = COLOUR_RGB ( '',0.7529411764705882200, 0.7529411764705882200, 0.7529411764705882200 ) ;
#150 = LINE ( 'NONE', #248, #144 ) ;
#151 = CIRCLE ( 'NONE', #433, 2.150000000000005200 ) ;
#152 = CIRCLE ( 'NONE', #382, 2.149999999999999900 ) ;
#153 = CIRCLE ( 'NONE', #425, 3.499999999999975100 ) ;
#154 = VECTOR ( 'NONE', #278, 999.9999999999998900 ) ;
#155 = LINE ( 'NONE', #267, #164 ) ;
#156 = CIRCLE ( 'NONE', #426, 2.149999999999999000 ) ;
#157 = SHAPE_DEFINITION_REPRESENTATION ( #203, #185 ) ;
#158 = LINE ( 'NONE', #258, #168 ) ;
#159 = CIRCLE ( 'NONE', #421, 3.500000000000003100 ) ;
#160 = LINE ( 'NONE', #287, #178 ) ;
#161 = VECTOR ( 'NONE', #249, 1000.000000000000000 ) ;
#162 = VECTOR ( 'NONE', #259, 1000.000000000000000 ) ;
#163 = CIRCLE ( 'NONE', #392, 2.150000000000005200 ) ;
#164 = VECTOR ( 'NONE', #262, 1000.000000000000100 ) ;
#165 = CIRCLE ( 'NONE', #390, 3.499999999999975100 ) ;
#166 = LINE ( 'NONE', #264, #174 ) ;
#167 = LINE ( 'NONE', #272, #172 ) ;
#168 = VECTOR ( 'NONE', #280, 1000.000000000000000 ) ;
#169 = CIRCLE ( 'NONE', #391, 4.000000000000000000 ) ;
#170 = CIRCLE ( 'NONE', #389, 4.000000000000000000 ) ;
#171 = CIRCLE ( 'NONE', #445, 4.000000000000000000 ) ;
#172 = VECTOR ( 'NONE', #281, 999.9999999999998900 ) ;
#173 = LINE ( 'NONE', #250, #154 ) ;
#174 = VECTOR ( 'NONE', #266, 1000.000000000000000 ) ;
#175 = CIRCLE ( 'NONE', #424, 4.000000000000000000 ) ;
#176 = CIRCLE ( 'NONE', #380, 2.150000000000006100 ) ;
#177 = SURFACE_STYLE_FILL_AREA ( #292 ) ;
#178 = VECTOR ( 'NONE', #277, 1000.000000000000000 ) ;
#179 = PRESENTATION_STYLE_ASSIGNMENT (( #320 ) ) ;
#180 = LINE ( 'NONE', #298, #147 ) ;
#181 = UNCERTAINTY_MEASURE_WITH_UNIT (LENGTH_MEASURE( 1.000000000000000100E-005 ), #291, 'distance_accuracy_value', 'NONE');
#182 = UNCERTAINTY_MEASURE_WITH_UNIT (LENGTH_MEASURE( 1.000000000000000100E-005 ), #301, 'distance_accuracy_value', 'NONE');
#183 = UNCERTAINTY_MEASURE_WITH_UNIT (LENGTH_MEASURE( 1.000000000000000100E-005 ), #349, 'distance_accuracy_value', 'NONE');
#184 = MANIFOLD_SOLID_BREP ( '倒角1', #51 ) ;
#185 = ADVANCED_BREP_SHAPE_REPRESENTATION ( 'BACF-C2G1-P-D8-L200-M5-N5(嘉立创FA jlcfa.com)', ( #184, #441 ), #440 ) ;
#186 = ADVANCED_FACE ( 'NONE', ( #90 ), #120, .T. ) ;
#187 = ADVANCED_FACE ( 'NONE', ( #122 ), #117, .F. ) ;
#188 = ADVANCED_FACE ( 'NONE', ( #121 ), #119, .F. ) ;
#189 = ADVANCED_FACE ( 'NONE', ( #123 ), #108, .F. ) ;
#190 = ADVANCED_FACE ( 'NONE', ( #111 ), #109, .T. ) ;
#191 = ADVANCED_FACE ( 'NONE', ( #112 ), #125, .T. ) ;
#192 = ADVANCED_FACE ( 'NONE', ( #93 ), #97, .T. ) ;
#193 = ADVANCED_FACE ( 'NONE', ( #128 ), #126, .T. ) ;
#194 = ADVANCED_FACE ( 'NONE', ( #127 ), #130, .F. ) ;
#195 = ADVANCED_FACE ( 'NONE', ( #131 ), #138, .T. ) ;
#196 = ADVANCED_FACE ( 'NONE', ( #89, #99 ), #242, .T. ) ;
#197 = ADVANCED_FACE ( 'NONE', ( #95, #133 ), #210, .F. ) ;
#198 = ADVANCED_FACE ( 'NONE', ( #129 ), #101, .F. ) ;
#199 = ADVANCED_FACE ( 'NONE', ( #132 ), #100, .F. ) ;
#200 = ADVANCED_FACE ( 'NONE', ( #137 ), #103, .F. ) ;
#201 = ADVANCED_FACE ( 'NONE', ( #135 ), #102, .F. ) ;
#202 = PRODUCT_DEFINITION_CONTEXT ( 'detailed design', #321, 'design' ) ;
#203 = PRODUCT_DEFINITION_SHAPE ( 'NONE', 'NONE',  #439 ) ;
#204 = DIRECTION ( 'NONE',  ( -1.000000000000000000, -0.0000000000000000000, -0.0000000000000000000 ) ) ;
#205 = CARTESIAN_POINT ( 'NONE',  ( 100.0000000000000000, 0.0000000000000000000, 0.0000000000000000000 ) ) ;
#206 = DIRECTION ( 'NONE',  ( 1.000000000000000000, 0.0000000000000000000, 0.0000000000000000000 ) ) ;
#207 = DIRECTION ( 'NONE',  ( 0.0000000000000000000, 0.0000000000000000000, 1.000000000000000000 ) ) ;
#208 = DIRECTION ( 'NONE',  ( 0.0000000000000000000, 0.0000000000000000000, -1.000000000000000000 ) ) ;
#209 = DIRECTION ( 'NONE',  ( 0.0000000000000000000, 0.0000000000000000000, -1.000000000000000000 ) ) ;
#210 = PLANE ( 'NONE',  #419 ) ;
#211 = DIRECTION ( 'NONE',  ( -1.000000000000000000, -0.0000000000000000000, -0.0000000000000000000 ) ) ;
#212 = CARTESIAN_POINT ( 'NONE',  ( 0.0000000000000000000, 0.0000000000000000000, 4.000000000000000000 ) ) ;
#213 = CARTESIAN_POINT ( 'NONE',  ( 99.49999999999995700, 0.0000000000000000000, 0.0000000000000000000 ) ) ;
#214 = DIRECTION ( 'NONE',  ( 1.000000000000000000, 0.0000000000000000000, 0.0000000000000000000 ) ) ;
#215 = DIRECTION ( 'NONE',  ( 0.0000000000000000000, 0.0000000000000000000, -1.000000000000000000 ) ) ;
#216 = DIRECTION ( 'NONE',  ( -1.000000000000000000, -0.0000000000000000000, -0.0000000000000000000 ) ) ;
#217 = DIRECTION ( 'NONE',  ( -1.000000000000000000, -0.0000000000000000000, -0.0000000000000000000 ) ) ;
#218 = DIRECTION ( 'NONE',  ( 1.000000000000000000, 0.0000000000000000000, 0.0000000000000000000 ) ) ;
#219 = DIRECTION ( 'NONE',  ( -1.000000000000000000, -0.0000000000000000000, -0.0000000000000000000 ) ) ;
#220 = CARTESIAN_POINT ( 'NONE',  ( -90.00000000000002800, 0.0000000000000000000, 0.0000000000000000000 ) ) ;
#221 = DIRECTION ( 'NONE',  ( -1.000000000000000000, -0.0000000000000000000, -0.0000000000000000000 ) ) ;
#222 = DIRECTION ( 'NONE',  ( 0.0000000000000000000, 0.0000000000000000000, 1.000000000000000000 ) ) ;
#223 = CARTESIAN_POINT ( 'NONE',  ( 0.0000000000000000000, 0.0000000000000000000, 0.0000000000000000000 ) ) ;
#224 = CARTESIAN_POINT ( 'NONE',  ( 90.00000000000002800, 2.632990618166816100E-016, 2.150000000000005200 ) ) ;
#225 = DIRECTION ( 'NONE',  ( -1.000000000000000000, -0.0000000000000000000, -0.0000000000000000000 ) ) ;
#226 = DIRECTION ( 'NONE',  ( -1.000000000000000000, -0.0000000000000000000, -0.0000000000000000000 ) ) ;
#227 = CARTESIAN_POINT ( 'NONE',  ( -90.00000000000002800, 0.0000000000000000000, 0.0000000000000000000 ) ) ;
#228 = DIRECTION ( 'NONE',  ( 0.0000000000000000000, 0.0000000000000000000, 1.000000000000000000 ) ) ;
#229 = DIRECTION ( 'NONE',  ( 0.0000000000000000000, 0.0000000000000000000, 1.000000000000000000 ) ) ;
#230 = CARTESIAN_POINT ( 'NONE',  ( 90.00000000000002800, 0.0000000000000000000, 0.0000000000000000000 ) ) ;
#231 = DIRECTION ( 'NONE',  ( 0.0000000000000000000, 0.0000000000000000000, 1.000000000000000000 ) ) ;
#232 = CARTESIAN_POINT ( 'NONE',  ( 0.0000000000000000000, 0.0000000000000000000, 2.150000000000005700 ) ) ;
#233 = CARTESIAN_POINT ( 'NONE',  ( -100.0000000000000000, 0.0000000000000000000, 0.0000000000000000000 ) ) ;
#234 = CARTESIAN_POINT ( 'NONE',  ( 99.49999999999995700, 0.0000000000000000000, 0.0000000000000000000 ) ) ;
#235 = DIRECTION ( 'NONE',  ( 0.5150380749100621500, 1.049727191138612700E-016, 0.8571673007021074500 ) ) ;
#236 = CARTESIAN_POINT ( 'NONE',  ( 0.0000000000000000000, 0.0000000000000000000, 0.0000000000000000000 ) ) ;
#237 = DIRECTION ( 'NONE',  ( 0.0000000000000000000, 0.0000000000000000000, 1.000000000000000000 ) ) ;
#238 = DIRECTION ( 'NONE',  ( 0.0000000000000000000, 0.0000000000000000000, 1.000000000000000000 ) ) ;
#239 = DIRECTION ( 'NONE',  ( 0.0000000000000000000, 0.0000000000000000000, -1.000000000000000000 ) ) ;
#240 = CARTESIAN_POINT ( 'NONE',  ( 90.00000000000002800, 0.0000000000000000000, 0.0000000000000000000 ) ) ;
#241 = DIRECTION ( 'NONE',  ( -1.000000000000000000, -0.0000000000000000000, -0.0000000000000000000 ) ) ;
#242 = PLANE ( 'NONE',  #398 ) ;
#243 = DIRECTION ( 'NONE',  ( -1.000000000000000000, -0.0000000000000000000, -0.0000000000000000000 ) ) ;
#244 = CARTESIAN_POINT ( 'NONE',  ( 100.0000000000000000, 0.0000000000000000000, 0.0000000000000000000 ) ) ;
#245 = DIRECTION ( 'NONE',  ( -1.000000000000000000, -0.0000000000000000000, -0.0000000000000000000 ) ) ;
#246 = CARTESIAN_POINT ( 'NONE',  ( -100.0000000000000000, 0.0000000000000000000, 0.0000000000000000000 ) ) ;
#247 = DIRECTION ( 'NONE',  ( 0.0000000000000000000, 0.0000000000000000000, 1.000000000000000000 ) ) ;
#248 = CARTESIAN_POINT ( 'NONE',  ( 0.0000000000000000000, 2.632990618166816600E-016, -2.150000000000005700 ) ) ;
#249 = DIRECTION ( 'NONE',  ( 0.7071067811865401300, 0.0000000000000000000, -0.7071067811865549000 ) ) ;
#250 = CARTESIAN_POINT ( 'NONE',  ( -90.00000000000002800, 0.0000000000000000000, 2.149999999999999000 ) ) ;
#251 = DIRECTION ( 'NONE',  ( 1.000000000000000000, 0.0000000000000000000, 0.0000000000000000000 ) ) ;
#252 = DIRECTION ( 'NONE',  ( 0.0000000000000000000, 0.0000000000000000000, -1.000000000000000000 ) ) ;
#253 = DIRECTION ( 'NONE',  ( 0.0000000000000000000, 0.0000000000000000000, -1.000000000000000000 ) ) ;
#254 = DIRECTION ( 'NONE',  ( -1.000000000000000000, -0.0000000000000000000, -0.0000000000000000000 ) ) ;
#255 = DIRECTION ( 'NONE',  ( 0.0000000000000000000, 0.0000000000000000000, 1.000000000000000000 ) ) ;
#256 = DIRECTION ( 'NONE',  ( 0.0000000000000000000, 0.0000000000000000000, 1.000000000000000000 ) ) ;
#257 = DIRECTION ( 'NONE',  ( 0.0000000000000000000, 0.0000000000000000000, -1.000000000000000000 ) ) ;
#258 = CARTESIAN_POINT ( 'NONE',  ( 99.49999999999995700, 4.898587196589412800E-016, -4.000000000000000000 ) ) ;
#259 = DIRECTION ( 'NONE',  ( 0.7071067811865401300, 8.659560562355022800E-017, 0.7071067811865549000 ) ) ;
#260 = CARTESIAN_POINT ( 'NONE',  ( -99.50000000000001400, 0.0000000000000000000, 0.0000000000000000000 ) ) ;
#261 = DIRECTION ( 'NONE',  ( -1.000000000000000000, -0.0000000000000000000, -0.0000000000000000000 ) ) ;
#262 = DIRECTION ( 'NONE',  ( 0.5150380749100621500, 0.0000000000000000000, -0.8571673007021074500 ) ) ;
#263 = DIRECTION ( 'NONE',  ( -1.000000000000000000, -0.0000000000000000000, -0.0000000000000000000 ) ) ;
#264 = CARTESIAN_POINT ( 'NONE',  ( 0.0000000000000000000, 2.632990618166808700E-016, -2.149999999999999500 ) ) ;
#265 = CARTESIAN_POINT ( 'NONE',  ( 0.0000000000000000000, 0.0000000000000000000, 2.149999999999999500 ) ) ;
#266 = DIRECTION ( 'NONE',  ( -1.000000000000000000, -0.0000000000000000000, -0.0000000000000000000 ) ) ;
#267 = CARTESIAN_POINT ( 'NONE',  ( 90.00000000000002800, 0.0000000000000000000, -2.150000000000005200 ) ) ;
#268 = CARTESIAN_POINT ( 'NONE',  ( 100.0000000000000000, 0.0000000000000000000, 0.0000000000000000000 ) ) ;
#269 = CARTESIAN_POINT ( 'NONE',  ( -100.0000000000000000, 4.286263797015740000E-016, 3.500000000000003100 ) ) ;
#270 = DIRECTION ( 'NONE',  ( 0.0000000000000000000, 0.0000000000000000000, 1.000000000000000000 ) ) ;
#271 = DIRECTION ( 'NONE',  ( -1.000000000000000000, -0.0000000000000000000, -0.0000000000000000000 ) ) ;
#272 = CARTESIAN_POINT ( 'NONE',  ( -90.00000000000002800, 2.632990618166808200E-016, -2.149999999999999000 ) ) ;
#273 = DIRECTION ( 'NONE',  ( -1.000000000000000000, -0.0000000000000000000, -0.0000000000000000000 ) ) ;
#274 = DIRECTION ( 'NONE',  ( -1.000000000000000000, -0.0000000000000000000, -0.0000000000000000000 ) ) ;
#275 = CARTESIAN_POINT ( 'NONE',  ( -100.0000000000000000, 0.0000000000000000000, 0.0000000000000000000 ) ) ;
#276 = CARTESIAN_POINT ( 'NONE',  ( -100.0000000000000000, 0.0000000000000000000, -3.500000000000003100 ) ) ;
#277 = DIRECTION ( 'NONE',  ( -0.7071067811865597900, 0.0000000000000000000, 0.7071067811865352500 ) ) ;
#278 = DIRECTION ( 'NONE',  ( -0.5150380749100504900, 0.0000000000000000000, 0.8571673007021146700 ) ) ;
#279 = CARTESIAN_POINT ( 'NONE',  ( -100.0000000000000000, 0.0000000000000000000, 0.0000000000000000000 ) ) ;
#280 = DIRECTION ( 'NONE',  ( -0.7071067811865597900, 8.659560562354782500E-017, -0.7071067811865352500 ) ) ;
#281 = DIRECTION ( 'NONE',  ( -0.5150380749100504900, 1.049727191138621500E-016, -0.8571673007021146700 ) ) ;
#282 = DIRECTION ( 'NONE',  ( 1.000000000000000000, 0.0000000000000000000, 0.0000000000000000000 ) ) ;
#283 = CARTESIAN_POINT ( 'NONE',  ( -90.00000000000002800, 0.0000000000000000000, 0.0000000000000000000 ) ) ;
#284 = DIRECTION ( 'NONE',  ( 0.0000000000000000000, 0.0000000000000000000, -1.000000000000000000 ) ) ;
#285 = CARTESIAN_POINT ( 'NONE',  ( -100.0000000000000000, 0.0000000000000000000, 0.0000000000000000000 ) ) ;
#286 = CARTESIAN_POINT ( 'NONE',  ( 100.0000000000000000, 0.0000000000000000000, 0.0000000000000000000 ) ) ;
#287 = CARTESIAN_POINT ( 'NONE',  ( 99.49999999999995700, 0.0000000000000000000, 4.000000000000000000 ) ) ;
#288 = DIRECTION ( 'NONE',  ( -1.000000000000000000, -0.0000000000000000000, -0.0000000000000000000 ) ) ;
#289 =( NAMED_UNIT ( * ) SI_UNIT ( $, .STERADIAN. ) SOLID_ANGLE_UNIT ( ) );
#290 = DIRECTION ( 'NONE',  ( 0.0000000000000000000, 0.0000000000000000000, 1.000000000000000000 ) ) ;
#291 =( LENGTH_UNIT ( ) NAMED_UNIT ( * ) SI_UNIT ( .MILLI., .METRE. ) );
#292 = FILL_AREA_STYLE ('',( #306 ) ) ;
#293 = CARTESIAN_POINT ( 'NONE',  ( 99.49999999999995700, 0.0000000000000000000, 0.0000000000000000000 ) ) ;
#294 = DIRECTION ( 'NONE',  ( 0.0000000000000000000, 0.0000000000000000000, -1.000000000000000000 ) ) ;
#295 = DIRECTION ( 'NONE',  ( -1.000000000000000000, -0.0000000000000000000, -0.0000000000000000000 ) ) ;
#296 = DIRECTION ( 'NONE',  ( 1.000000000000000000, 0.0000000000000000000, 0.0000000000000000000 ) ) ;
#297 = DIRECTION ( 'NONE',  ( 0.0000000000000000000, 0.0000000000000000000, -1.000000000000000000 ) ) ;
#298 = CARTESIAN_POINT ( 'NONE',  ( 0.0000000000000000000, 4.898587196589412800E-016, -4.000000000000000000 ) ) ;
#299 = DIRECTION ( 'NONE',  ( -1.000000000000000000, -0.0000000000000000000, -0.0000000000000000000 ) ) ;
#300 = CARTESIAN_POINT ( 'NONE',  ( 90.00000000000002800, 0.0000000000000000000, 0.0000000000000000000 ) ) ;
#301 =( LENGTH_UNIT ( ) NAMED_UNIT ( * ) SI_UNIT ( .MILLI., .METRE. ) );
#302 = APPLICATION_PROTOCOL_DEFINITION ( 'draft international standard', 'automotive_design', 1998, #321 ) ;
#303 = DIRECTION ( 'NONE',  ( 0.0000000000000000000, 0.0000000000000000000, 1.000000000000000000 ) ) ;
#304 = APPLICATION_PROTOCOL_DEFINITION ( 'draft international standard', 'automotive_design', 1998, #316 ) ;
#305 = CARTESIAN_POINT ( 'NONE',  ( -99.50000000000001400, 0.0000000000000000000, 0.0000000000000000000 ) ) ;
#306 = FILL_AREA_STYLE_COLOUR ( '', #149 ) ;
#307 = DIRECTION ( 'NONE',  ( -1.000000000000000000, -0.0000000000000000000, -0.0000000000000000000 ) ) ;
#308 =( NAMED_UNIT ( * ) SI_UNIT ( $, .STERADIAN. ) SOLID_ANGLE_UNIT ( ) );
#309 = CARTESIAN_POINT ( 'NONE',  ( 0.0000000000000000000, 0.0000000000000000000, 0.0000000000000000000 ) ) ;
#310 = DIRECTION ( 'NONE',  ( -1.000000000000000000, -0.0000000000000000000, -0.0000000000000000000 ) ) ;
#311 = DIRECTION ( 'NONE',  ( 0.0000000000000000000, 0.0000000000000000000, 1.000000000000000000 ) ) ;
#312 = CARTESIAN_POINT ( 'NONE',  ( 100.0000000000000000, 0.0000000000000000000, 0.0000000000000000000 ) ) ;
#313 = DIRECTION ( 'NONE',  ( 0.0000000000000000000, 0.0000000000000000000, -1.000000000000000000 ) ) ;
#314 = DIRECTION ( 'NONE',  ( 1.000000000000000000, 0.0000000000000000000, 0.0000000000000000000 ) ) ;
#315 = SURFACE_SIDE_STYLE ('',( #177 ) ) ;
#316 = APPLICATION_CONTEXT ( 'automotive_design' ) ;
#317 =( NAMED_UNIT ( * ) PLANE_ANGLE_UNIT ( ) SI_UNIT ( $, .RADIAN. ) );
#318 = DIRECTION ( 'NONE',  ( 1.000000000000000000, 0.0000000000000000000, 0.0000000000000000000 ) ) ;
#319 =( NAMED_UNIT ( * ) PLANE_ANGLE_UNIT ( ) SI_UNIT ( $, .RADIAN. ) );
#320 = SURFACE_STYLE_USAGE ( .BOTH. , #315 ) ;
#321 = APPLICATION_CONTEXT ( 'automotive_design' ) ;
#322 = CARTESIAN_POINT ( 'NONE',  ( -90.00000000000002800, 0.0000000000000000000, 0.0000000000000000000 ) ) ;
#323 = PRODUCT_CONTEXT ( 'NONE', #316, 'mechanical' ) ;
#324 = CARTESIAN_POINT ( 'NONE',  ( -90.00000000000002800, 2.632990618166808700E-016, -2.149999999999999000 ) ) ;
#325 = CARTESIAN_POINT ( 'NONE',  ( -99.50000000000001400, 0.0000000000000000000, 4.000000000000000000 ) ) ;
#326 = CARTESIAN_POINT ( 'NONE',  ( 99.49999999999995700, 4.898587196589412800E-016, -4.000000000000000000 ) ) ;
#327 = CARTESIAN_POINT ( 'NONE',  ( -100.0000000000000000, 0.0000000000000000000, 2.149999999999999900 ) ) ;
#328 = CARTESIAN_POINT ( 'NONE',  ( -100.0000000000000000, 0.0000000000000000000, -3.500000000000003100 ) ) ;
#329 = CARTESIAN_POINT ( 'NONE',  ( -99.50000000000001400, 4.898587196589412800E-016, -4.000000000000000000 ) ) ;
#330 = CARTESIAN_POINT ( 'NONE',  ( -100.0000000000000000, 4.592425496802575900E-016, 3.500000000000003100 ) ) ;
#331 = CARTESIAN_POINT ( 'NONE',  ( 100.0000000000000000, 4.592425496802559200E-016, -3.499999999999975100 ) ) ;
#332 = CARTESIAN_POINT ( 'NONE',  ( -100.0000000000000000, 2.632990618166809200E-016, -2.149999999999999900 ) ) ;
#333 = CARTESIAN_POINT ( 'NONE',  ( 90.00000000000002800, 2.632990618166816100E-016, 2.150000000000005200 ) ) ;
#334 = CARTESIAN_POINT ( 'NONE',  ( 88.70814966909074400, -3.469446951953614200E-015, 0.0000000000000000000 ) ) ;
#335 = FILL_AREA_STYLE_COLOUR ( '', #107 ) ;
#336 = CARTESIAN_POINT ( 'NONE',  ( -88.70814966909078700, 0.0000000000000000000, 0.0000000000000000000 ) ) ;
#337 = CARTESIAN_POINT ( 'NONE',  ( 100.0000000000000000, 0.0000000000000000000, 3.499999999999975100 ) ) ;
#338 = CARTESIAN_POINT ( 'NONE',  ( 100.0000000000000000, 2.632990618166817100E-016, -2.150000000000006100 ) ) ;
#339 = CARTESIAN_POINT ( 'NONE',  ( -90.00000000000002800, 0.0000000000000000000, 2.149999999999999000 ) ) ;
#340 = CARTESIAN_POINT ( 'NONE',  ( 99.49999999999995700, 0.0000000000000000000, 4.000000000000000000 ) ) ;
#341 = CARTESIAN_POINT ( 'NONE',  ( 100.0000000000000000, 0.0000000000000000000, 2.150000000000006100 ) ) ;
#342 = DIRECTION ( 'NONE',  ( -1.000000000000000000, -0.0000000000000000000, -0.0000000000000000000 ) ) ;
#343 = CARTESIAN_POINT ( 'NONE',  ( 0.0000000000000000000, 0.0000000000000000000, 0.0000000000000000000 ) ) ;
#344 = CARTESIAN_POINT ( 'NONE',  ( 99.49999999999995700, 0.0000000000000000000, 0.0000000000000000000 ) ) ;
#345 = DIRECTION ( 'NONE',  ( 0.0000000000000000000, 0.0000000000000000000, 1.000000000000000000 ) ) ;
#346 = SURFACE_STYLE_USAGE ( .BOTH. , #348 ) ;
#347 = DIRECTION ( 'NONE',  ( 0.0000000000000000000, 0.0000000000000000000, 1.000000000000000000 ) ) ;
#348 = SURFACE_SIDE_STYLE ('',( #116 ) ) ;
#349 =( LENGTH_UNIT ( ) NAMED_UNIT ( * ) SI_UNIT ( .MILLI., .METRE. ) );
#350 =( NAMED_UNIT ( * ) SI_UNIT ( $, .STERADIAN. ) SOLID_ANGLE_UNIT ( ) );
#351 = DIRECTION ( 'NONE',  ( 1.000000000000000000, 0.0000000000000000000, 0.0000000000000000000 ) ) ;
#352 = FILL_AREA_STYLE ('',( #335 ) ) ;
#353 = DIRECTION ( 'NONE',  ( 0.0000000000000000000, 0.0000000000000000000, 1.000000000000000000 ) ) ;
#354 = CARTESIAN_POINT ( 'NONE',  ( -100.0000000000000000, 0.0000000000000000000, 0.0000000000000000000 ) ) ;
#355 = CARTESIAN_POINT ( 'NONE',  ( 90.00000000000002800, 0.0000000000000000000, -2.150000000000005200 ) ) ;
#356 = CARTESIAN_POINT ( 'NONE',  ( 90.00000000000002800, 0.0000000000000000000, 0.0000000000000000000 ) ) ;
#357 = CARTESIAN_POINT ( 'NONE',  ( 0.0000000000000000000, 0.0000000000000000000, 0.0000000000000000000 ) ) ;
#358 = DIRECTION ( 'NONE',  ( 0.0000000000000000000, 0.0000000000000000000, -1.000000000000000000 ) ) ;
#359 = DIRECTION ( 'NONE',  ( -1.000000000000000000, -0.0000000000000000000, -0.0000000000000000000 ) ) ;
#360 =( NAMED_UNIT ( * ) PLANE_ANGLE_UNIT ( ) SI_UNIT ( $, .RADIAN. ) );
#361 = DIRECTION ( 'NONE',  ( 1.000000000000000000, 0.0000000000000000000, 0.0000000000000000000 ) ) ;
#362 = CARTESIAN_POINT ( 'NONE',  ( 0.0000000000000000000, 0.0000000000000000000, 0.0000000000000000000 ) ) ;
#363 = DIRECTION ( 'NONE',  ( 0.0000000000000000000, 0.0000000000000000000, -1.000000000000000000 ) ) ;
#364 = CARTESIAN_POINT ( 'NONE',  ( -100.0000000000000000, 0.0000000000000000000, 0.0000000000000000000 ) ) ;
#365 = CARTESIAN_POINT ( 'NONE',  ( 0.0000000000000000000, 0.0000000000000000000, 0.0000000000000000000 ) ) ;
#366 = DIRECTION ( 'NONE',  ( -1.000000000000000000, -0.0000000000000000000, -0.0000000000000000000 ) ) ;
#367 = DIRECTION ( 'NONE',  ( 0.0000000000000000000, 0.0000000000000000000, 1.000000000000000000 ) ) ;
#368 = DIRECTION ( 'NONE',  ( -1.000000000000000000, -0.0000000000000000000, -0.0000000000000000000 ) ) ;
#369 = DIRECTION ( 'NONE',  ( 1.000000000000000000, 0.0000000000000000000, 0.0000000000000000000 ) ) ;
#370 = DIRECTION ( 'NONE',  ( 0.0000000000000000000, 0.0000000000000000000, -1.000000000000000000 ) ) ;
#371 = DIRECTION ( 'NONE',  ( -1.000000000000000000, -0.0000000000000000000, -0.0000000000000000000 ) ) ;
#372 = DIRECTION ( 'NONE',  ( 0.0000000000000000000, 0.0000000000000000000, 1.000000000000000000 ) ) ;
#373 = PRODUCT ( 'BACF-C2G1-P-D8-L200-M5-N5(嘉立创FA jlcfa.com)', 'BACF-C2G1-P-D8-L200-M5-N5(嘉立创FA jlcfa.com)', '', ( #323 ) ) ;
#374 = EDGE_CURVE ( 'NONE', #14, #22, #104, .T. ) ;
#375 = EDGE_CURVE ( 'NONE', #4, #24, #136, .T. ) ;
#376 = EDGE_CURVE ( 'NONE', #24, #96, #139, .T. ) ;
#377 = EDGE_CURVE ( 'NONE', #98, #96, #105, .T. ) ;
#378 = AXIS2_PLACEMENT_3D ( 'NONE', #344, #359, #367 ) ;
#379 = AXIS2_PLACEMENT_3D ( 'NONE', #230, #206, #215 ) ;
#380 = AXIS2_PLACEMENT_3D ( 'NONE', #268, #273, #256 ) ;
#381 = AXIS2_PLACEMENT_3D ( 'NONE', #364, #369, #370 ) ;
#382 = AXIS2_PLACEMENT_3D ( 'NONE', #279, #274, #270 ) ;
#383 = AXIS2_PLACEMENT_3D ( 'NONE', #223, #216, #237 ) ;
#384 = AXIS2_PLACEMENT_3D ( 'NONE', #275, #245, #247 ) ;
#385 = EDGE_CURVE ( 'NONE', #96, #106, #151, .T. ) ;
#386 = EDGE_CURVE ( 'NONE', #14, #8, #175, .T. ) ;
#387 = EDGE_CURVE ( 'NONE', #5, #25, #153, .T. ) ;
#388 = AXIS2_PLACEMENT_3D ( 'NONE', #220, #219, #222 ) ;
#389 = AXIS2_PLACEMENT_3D ( 'NONE', #260, #251, #257 ) ;
#390 = AXIS2_PLACEMENT_3D ( 'NONE', #312, #296, #297 ) ;
#391 = AXIS2_PLACEMENT_3D ( 'NONE', #293, #310, #294 ) ;
#392 = AXIS2_PLACEMENT_3D ( 'NONE', #300, #307, #303 ) ;
#393 = EDGE_CURVE ( 'NONE', #16, #18, #167, .T. ) ;
#394 = AXIS2_PLACEMENT_3D ( 'NONE', #357, #342, #345 ) ;
#395 = AXIS2_PLACEMENT_3D ( 'NONE', #365, #371, #372 ) ;
#396 = EDGE_CURVE ( 'NONE', #21, #1, #159, .T. ) ;
#397 = AXIS2_PLACEMENT_3D ( 'NONE', #234, #226, #228 ) ;
#398 = AXIS2_PLACEMENT_3D ( 'NONE', #205, #218, #209 ) ;
#399 = EDGE_CURVE ( 'NONE', #18, #2, #156, .T. ) ;
#400 = EDGE_CURVE ( 'NONE', #1, #21, #141, .T. ) ;
#401 = PRESENTATION_LAYER_ASSIGNMENT (  '', '', ( #437 ) ) ;
#402 = AXIS2_PLACEMENT_3D ( 'NONE', #227, #221, #229 ) ;
#403 = EDGE_CURVE ( 'NONE', #24, #4, #176, .T. ) ;
#404 = EDGE_CURVE ( 'NONE', #16, #2, #173, .T. ) ;
#405 = EDGE_CURVE ( 'NONE', #18, #3, #166, .T. ) ;
#406 = EDGE_CURVE ( 'NONE', #98, #106, #155, .T. ) ;
#407 =( GEOMETRIC_REPRESENTATION_CONTEXT ( 3 ) GLOBAL_UNCERTAINTY_ASSIGNED_CONTEXT ( ( #183 ) ) GLOBAL_UNIT_ASSIGNED_CONTEXT ( ( #349, #360, #350 ) ) REPRESENTATION_CONTEXT ( 'NONE', 'WORKASPACE' ) );
#408 = AXIS2_PLACEMENT_3D ( 'NONE', #356, #361, #358 ) ;
#409 = AXIS2_PLACEMENT_3D ( 'NONE', #244, #243, #231 ) ;
#410 = EDGE_CURVE ( 'NONE', #19, #3, #152, .T. ) ;
#411 = EDGE_CURVE ( 'NONE', #25, #8, #158, .T. ) ;
#412 = EDGE_CURVE ( 'NONE', #1, #22, #142, .T. ) ;
#413 = EDGE_CURVE ( 'NONE', #4, #106, #150, .T. ) ;
#414 = EDGE_CURVE ( 'NONE', #5, #14, #160, .T. ) ;
#415 = MECHANICAL_DESIGN_GEOMETRIC_PRESENTATION_REPRESENTATION (  '', ( #437 ), #407 ) ;
#416 = AXIS2_PLACEMENT_3D ( 'NONE', #354, #351, #363 ) ;
#417 = AXIS2_PLACEMENT_3D ( 'NONE', #343, #366, #353 ) ;
#418 = AXIS2_PLACEMENT_3D ( 'NONE', #236, #225, #238 ) ;
#419 = AXIS2_PLACEMENT_3D ( 'NONE', #233, #214, #239 ) ;
#420 = EDGE_CURVE ( 'NONE', #3, #19, #145, .T. ) ;
#421 = AXIS2_PLACEMENT_3D ( 'NONE', #285, #263, #253 ) ;
#422 = EDGE_CURVE ( 'NONE', #22, #23, #170, .T. ) ;
#423 = EDGE_CURVE ( 'NONE', #21, #23, #143, .T. ) ;
#424 = AXIS2_PLACEMENT_3D ( 'NONE', #213, #204, #208 ) ;
#425 = AXIS2_PLACEMENT_3D ( 'NONE', #286, #282, #252 ) ;
#426 = AXIS2_PLACEMENT_3D ( 'NONE', #283, #271, #255 ) ;
#427 = EDGE_CURVE ( 'NONE', #2, #19, #146, .T. ) ;
#428 = EDGE_CURVE ( 'NONE', #25, #5, #165, .T. ) ;
#429 = AXIS2_PLACEMENT_3D ( 'NONE', #246, #254, #284 ) ;
#430 = EDGE_CURVE ( 'NONE', #8, #23, #180, .T. ) ;
#431 = AXIS2_PLACEMENT_3D ( 'NONE', #362, #368, #347 ) ;
#432 = EDGE_CURVE ( 'NONE', #8, #14, #169, .T. ) ;
#433 = AXIS2_PLACEMENT_3D ( 'NONE', #240, #241, #207 ) ;
#434 = EDGE_CURVE ( 'NONE', #106, #96, #163, .T. ) ;
#435 = EDGE_CURVE ( 'NONE', #2, #18, #148, .T. ) ;
#436 = EDGE_CURVE ( 'NONE', #23, #22, #171, .T. ) ;
#437 = STYLED_ITEM ( 'NONE', ( #110 ), #184 ) ;
#438 = PRESENTATION_LAYER_ASSIGNMENT (  '', '', ( #447 ) ) ;
#439 = PRODUCT_DEFINITION ( '未知', '', #443, #202 ) ;
#440 =( GEOMETRIC_REPRESENTATION_CONTEXT ( 3 ) GLOBAL_UNCERTAINTY_ASSIGNED_CONTEXT ( ( #182 ) ) GLOBAL_UNIT_ASSIGNED_CONTEXT ( ( #301, #317, #289 ) ) REPRESENTATION_CONTEXT ( 'NONE', 'WORKASPACE' ) );
#441 = AXIS2_PLACEMENT_3D ( 'NONE', #309, #311, #314 ) ;
#442 = AXIS2_PLACEMENT_3D ( 'NONE', #322, #288, #290 ) ;
#443 = PRODUCT_DEFINITION_FORMATION_WITH_SPECIFIED_SOURCE ( '任何', '', #373, .NOT_KNOWN. ) ;
#444 = PRODUCT_RELATED_PRODUCT_CATEGORY ( 'part', '', ( #373 ) ) ;
#445 = AXIS2_PLACEMENT_3D ( 'NONE', #305, #318, #313 ) ;
#446 = MECHANICAL_DESIGN_GEOMETRIC_PRESENTATION_REPRESENTATION (  '', ( #447 ), #448 ) ;
#447 = STYLED_ITEM ( 'NONE', ( #179 ), #185 ) ;
#448 =( GEOMETRIC_REPRESENTATION_CONTEXT ( 3 ) GLOBAL_UNCERTAINTY_ASSIGNED_CONTEXT ( ( #181 ) ) GLOBAL_UNIT_ASSIGNED_CONTEXT ( ( #291, #319, #308 ) ) REPRESENTATION_CONTEXT ( 'NONE', 'WORKASPACE' ) );
ENDSEC;
END-ISO-10303-21;
