ISO-10303-21;
HEADER;
FILE_DESCRIPTION (( 'STEP AP214' ),
    '1' );
FILE_NAME ('EJLC-M4-L50.step',
    '2025-09-26T06:49:15',
    ( '' ),
    ( 'Aliyun' ),
    'FaSTEP 2.0',
    'Forface 3D 2012',
    '' );
FILE_SCHEMA (( 'AUTOMOTIVE_DESIGN' ));
ENDSEC;

DATA;
#1 = CARTESIAN_POINT ( 'NONE',  ( 55.86553100135114400, 3.181566929715981700, -0.4893644300510024400 ) ) ;
#2 = CARTESIAN_POINT ( 'NONE',  ( 56.00000000000000000, 0.0000000000000000000, 0.0000000000000000000 ) ) ;
#3 = CARTESIAN_POINT ( 'NONE',  ( 6.210130068258537900, -1.872580492749843300, 2.756595445294908900 ) ) ;
#4 = DIRECTION ( 'NONE',  ( 1.000000000000000000, 0.0000000000000000000, -0.0000000000000000000 ) ) ;
#5 = CARTESIAN_POINT ( 'NONE',  ( 31.00000000000000000, 0.0000000000000000000, -1.720000000000000200 ) ) ;
#6 = DIRECTION ( 'NONE',  ( 0.4999999999999979500, 0.0000000000000000000, -0.8660254037844397100 ) ) ;
#7 = CARTESIAN_POINT ( 'NONE',  ( 0.3999999999999984700, 0.0000000000000000000, 0.0000000000000000000 ) ) ;
#8 = CARTESIAN_POINT ( 'NONE',  ( 55.78909292153758800, 1.453384418782880200, -2.999999999999998700 ) ) ;
#9 = DIRECTION ( 'NONE',  ( 0.0000000000000000000, 0.0000000000000000000, 1.000000000000000000 ) ) ;
#10 = CARTESIAN_POINT ( 'NONE',  ( 5.999999999999979600, -2.450605542695812200, 1.755426690740952100 ) ) ;
#11 = CARTESIAN_POINT ( 'NONE',  ( 6.210130068258538700, 1.872580492749845300, -2.756595445294907500 ) ) ;
#12 = CARTESIAN_POINT ( 'NONE',  ( 55.86476406723667100, 1.170457327762042000, -2.999999999999997800 ) ) ;
#13 = CARTESIAN_POINT ( 'NONE',  ( 5.999999999999982200, -2.301428905094315500, -2.013808206369035200 ) ) ;
#14 = CARTESIAN_POINT ( 'NONE',  ( 6.000000000000000900, -2.598076211353316000, -1.499999999999998900 ) ) ;
#15 = DIRECTION ( 'NONE',  ( 0.0000000000000000000, 0.0000000000000000000, -1.000000000000000000 ) ) ;
#16 = DIRECTION ( 'NONE',  ( 0.0000000000000000000, 0.0000000000000000000, -1.000000000000000000 ) ) ;
#17 = DIRECTION ( 'NONE',  ( 1.000000000000000000, 0.0000000000000000000, -0.0000000000000000000 ) ) ;
#18 = CARTESIAN_POINT ( 'NONE',  ( 6.000000000000000900, -2.598076211353315600, 1.500000000000000200 ) ) ;
#19 = CARTESIAN_POINT ( 'NONE',  ( 56.00000000000003600, 2.745546880010821600, -1.244573309259048700 ) ) ;
#20 = CARTESIAN_POINT ( 'NONE',  ( 6.134468998648844500, 2.014585492990652600, -2.510635569948997500 ) ) ;
#21 = CARTESIAN_POINT ( 'NONE',  ( 6.301391112885687200, 1.732050807568879200, -2.999999999999999100 ) ) ;
#22 = DIRECTION ( 'NONE',  ( 1.000000000000000000, 0.0000000000000000000, -0.0000000000000000000 ) ) ;
#23 = DIRECTION ( 'NONE',  ( 0.0000000000000000000, 0.0000000000000000000, -1.000000000000000000 ) ) ;
#24 = CARTESIAN_POINT ( 'NONE',  ( 56.00000000000000000, 3.464101615137756600, -7.363781531772281800E-018 ) ) ;
#25 = DIRECTION ( 'NONE',  ( -1.000000000000000000, -0.0000000000000000000, -0.0000000000000000000 ) ) ;
#26 = CARTESIAN_POINT ( 'NONE',  ( 6.301391112885687200, -1.732050807568879000, -2.999999999999999100 ) ) ;
#27 = CARTESIAN_POINT ( 'NONE',  ( 55.69860888711431800, 3.464101615137756600, 1.263677032292330200E-016 ) ) ;
#28 = CARTESIAN_POINT ( 'NONE',  ( 55.69860888711431800, 1.732050807568879400, -2.999999999999999100 ) ) ;
#29 = CARTESIAN_POINT ( 'NONE',  ( 6.118187136951296300, -2.014160191341777900, -2.511372214013390700 ) ) ;
#30 = CARTESIAN_POINT ( 'NONE',  ( 6.029200453984470800, -2.302950856960404000, 2.011172108410295100 ) ) ;
#31 = CARTESIAN_POINT ( 'NONE',  ( 0.3999999999999984700, 0.0000000000000000000, 0.0000000000000000000 ) ) ;
#32 = CARTESIAN_POINT ( 'NONE',  ( 56.00000000000000000, 2.598076211353316900, -1.500000000000001100 ) ) ;
#33 = CARTESIAN_POINT ( 'NONE',  ( 6.000000000000000900, 2.598076211353315100, -1.500000000000000200 ) ) ;
#34 = CARTESIAN_POINT ( 'NONE',  ( 6.000000000000000900, 0.0000000000000000000, 0.0000000000000000000 ) ) ;
#35 = DIRECTION ( 'NONE',  ( 0.0000000000000000000, 0.0000000000000000000, 1.000000000000000000 ) ) ;
#36 = CARTESIAN_POINT ( 'NONE',  ( 6.000000000000000900, 0.0000000000000000000, 0.0000000000000000000 ) ) ;
#37 = DIRECTION ( 'NONE',  ( -1.000000000000000000, -0.0000000000000000000, -0.0000000000000000000 ) ) ;
#38 = CARTESIAN_POINT ( 'NONE',  ( 55.97079954601553500, 2.893201565746229300, -0.9888278915897070800 ) ) ;
#39 = CARTESIAN_POINT ( 'NONE',  ( 6.301391112885687200, -1.732050807568877200, 3.000000000000000000 ) ) ;
#40 = CARTESIAN_POINT ( 'NONE',  ( 6.134468998648844500, -2.014585492990650800, 2.510635569948997100 ) ) ;
#41 = CARTESIAN_POINT ( 'NONE',  ( 55.78986993174147100, 3.323571929956791800, -0.2434045547050917600 ) ) ;
#42 = DIRECTION ( 'NONE',  ( -1.000000000000000000, -0.0000000000000000000, -0.0000000000000000000 ) ) ;
#43 = CARTESIAN_POINT ( 'NONE',  ( 5.999999999999979600, 2.450605542695813500, -1.755426690740953000 ) ) ;
#44 = CARTESIAN_POINT ( 'NONE',  ( 6.029200453984472600, 2.302950856960406200, -2.011172108410295100 ) ) ;
#45 = CARTESIAN_POINT ( 'NONE',  ( 55.97069537300858100, 0.5915413661075757900, -2.999999999999999600 ) ) ;
#46 = CARTESIAN_POINT ( 'NONE',  ( 6.000000000000000900, 2.598076211353316000, 1.499999999999999600 ) ) ;
#47 = CARTESIAN_POINT ( 'NONE',  ( 56.00000000000000000, 1.732050807568879200, 3.000000000000000000 ) ) ;
#48 = CARTESIAN_POINT ( 'NONE',  ( 6.134468998648845400, 3.181566929715983000, 0.4893644300510018300 ) ) ;
#49 = CARTESIAN_POINT ( 'NONE',  ( 6.000000000000000900, 0.0000000000000000000, 2.999999999999999600 ) ) ;
#50 = CARTESIAN_POINT ( 'NONE',  ( 6.000000000000000000, -0.2936766384352079200, 3.000000000000000400 ) ) ;
#51 = DIRECTION ( 'NONE',  ( -1.000000000000000000, -0.0000000000000000000, -0.0000000000000000000 ) ) ;
#52 = CARTESIAN_POINT ( 'NONE',  ( 56.00000000000000000, 2.598076211353317300, 1.500000000000000400 ) ) ;
#53 = CARTESIAN_POINT ( 'NONE',  ( 31.00000000000000000, 2.106392494533447800E-016, 1.720000000000000200 ) ) ;
#54 = DIRECTION ( 'NONE',  ( 1.000000000000000000, 0.0000000000000000000, -0.0000000000000000000 ) ) ;
#55 = DIRECTION ( 'NONE',  ( -1.000000000000000000, -0.0000000000000000000, -0.0000000000000000000 ) ) ;
#56 = CARTESIAN_POINT ( 'NONE',  ( 6.000000000000000900, 2.598076211353316000, 1.499999999999999600 ) ) ;
#57 = DIRECTION ( 'NONE',  ( 0.0000000000000000000, 0.0000000000000000000, 1.000000000000000000 ) ) ;
#58 = CARTESIAN_POINT ( 'NONE',  ( 6.000000000000000900, 0.0000000000000000000, 0.0000000000000000000 ) ) ;
#59 = DIRECTION ( 'NONE',  ( 1.000000000000000000, 0.0000000000000000000, -0.0000000000000000000 ) ) ;
#60 = CARTESIAN_POINT ( 'NONE',  ( 6.000000000000000900, 0.0000000000000000000, 0.0000000000000000000 ) ) ;
#61 = DIRECTION ( 'NONE',  ( 0.0000000000000000000, 0.0000000000000000000, -1.000000000000000000 ) ) ;
#62 = CARTESIAN_POINT ( 'NONE',  ( 6.118187136951296300, 2.014160191341778800, 2.511372214013391600 ) ) ;
#63 = CARTESIAN_POINT ( 'NONE',  ( 6.210375388298762900, -1.451746956673745300, 2.999999999999999600 ) ) ;
#64 = CARTESIAN_POINT ( 'NONE',  ( 5.999999999999980500, 2.745546880010821100, 1.244573309259048500 ) ) ;
#65 = CARTESIAN_POINT ( 'NONE',  ( 6.029200453984472600, 2.893201565746230200, 0.9888278915897057400 ) ) ;
#66 = CARTESIAN_POINT ( 'NONE',  ( 6.301391112885688100, 3.464101615137756600, -1.352198841929620400E-016 ) ) ;
#67 = CARTESIAN_POINT ( 'NONE',  ( 5.999999999999982200, 2.301428905094316400, 2.013808206369035700 ) ) ;
#68 = CARTESIAN_POINT ( 'NONE',  ( 56.00000000000002100, 2.894723517612319200, 0.9861917936309652100 ) ) ;
#69 = CARTESIAN_POINT ( 'NONE',  ( 6.301391112885687200, -1.732050807568877200, 3.000000000000000000 ) ) ;
#70 = DIRECTION ( 'NONE',  ( 1.000000000000000000, -0.0000000000000000000, -0.0000000000000000000 ) ) ;
#71 = DIRECTION ( 'NONE',  ( 0.7071067811865462400, 0.0000000000000000000, -0.7071067811865489100 ) ) ;
#72 = CARTESIAN_POINT ( 'NONE',  ( 0.0000000000000000000, 0.0000000000000000000, 0.0000000000000000000 ) ) ;
#73 = CARTESIAN_POINT ( 'NONE',  ( 56.00000000000003600, 2.450605542695813500, 1.755426690740952800 ) ) ;
#74 = CARTESIAN_POINT ( 'NONE',  ( 55.88181286304870800, 3.181992231364856800, 0.4886277859866091600 ) ) ;
#75 = DIRECTION ( 'NONE',  ( 0.0000000000000000000, 0.0000000000000000000, -1.000000000000000000 ) ) ;
#76 = CARTESIAN_POINT ( 'NONE',  ( 56.00000000000000000, 2.598076211353317300, 1.500000000000000400 ) ) ;
#77 = CARTESIAN_POINT ( 'NONE',  ( 0.0000000000000000000, 0.0000000000000000000, 0.0000000000000000000 ) ) ;
#78 = DIRECTION ( 'NONE',  ( -1.000000000000000000, -0.0000000000000000000, -0.0000000000000000000 ) ) ;
#79 = DIRECTION ( 'NONE',  ( 0.0000000000000000000, 0.0000000000000000000, 1.000000000000000000 ) ) ;
#80 = CARTESIAN_POINT ( 'NONE',  ( 55.69860888711431800, 3.464101615137756600, 1.263677032292330200E-016 ) ) ;
#81 = CARTESIAN_POINT ( 'NONE',  ( 6.210130068258540500, 3.323571929956790500, 0.2434045547050920900 ) ) ;
#82 = CARTESIAN_POINT ( 'NONE',  ( 6.133550488692646900, -1.163304456661725700, 3.000000000000000400 ) ) ;
#83 = DIRECTION ( 'NONE',  ( -1.000000000000000000, -0.0000000000000000000, -0.0000000000000000000 ) ) ;
#84 = CARTESIAN_POINT ( 'NONE',  ( 0.0000000000000000000, 0.0000000000000000000, 2.000000000000000000 ) ) ;
#85 = CARTESIAN_POINT ( 'NONE',  ( 0.3999999999999984700, 0.0000000000000000000, -2.000000000000000000 ) ) ;
#86 = CARTESIAN_POINT ( 'NONE',  ( 6.301391112885687200, 1.732050807568879400, 3.000000000000000000 ) ) ;
#87 = CARTESIAN_POINT ( 'NONE',  ( 6.028479038842686300, -0.5849218311394214200, 3.000000000000000400 ) ) ;
#88 =( LENGTH_UNIT ( ) NAMED_UNIT ( * ) SI_UNIT ( .MILLI., .METRE. ) );
#89 = SURFACE_STYLE_USAGE ( .BOTH. , #101 ) ;
#90 = APPLICATION_CONTEXT ( 'automotive_design' ) ;
#91 = APPLICATION_PROTOCOL_DEFINITION ( 'draft international standard', 'automotive_design', 1998, #90 ) ;
#92 = CARTESIAN_POINT ( 'NONE',  ( 0.0000000000000000000, 2.449293598294706400E-016, -2.000000000000000000 ) ) ;
#93 = APPLICATION_CONTEXT ( 'automotive_design' ) ;
#94 = DIRECTION ( 'NONE',  ( 0.0000000000000000000, 0.0000000000000000000, 1.000000000000000000 ) ) ;
#95 = FILL_AREA_STYLE_COLOUR ( '', #471 ) ;
#96 = CARTESIAN_POINT ( 'NONE',  ( 55.97079954601553500, 2.302950856960406700, 2.011172108410295600 ) ) ;
#97 =( NAMED_UNIT ( * ) SI_UNIT ( $, .STERADIAN. ) SOLID_ANGLE_UNIT ( ) );
#98 = CARTESIAN_POINT ( 'NONE',  ( 0.0000000000000000000, 0.0000000000000000000, 0.0000000000000000000 ) ) ;
#99 = CARTESIAN_POINT ( 'NONE',  ( 55.78986993174147100, 1.872580492749845300, 2.756595445294908400 ) ) ;
#100 = CARTESIAN_POINT ( 'NONE',  ( 55.69860888711431800, 1.732050807568879200, 3.000000000000000000 ) ) ;
#101 = SURFACE_SIDE_STYLE ('',( #472 ) ) ;
#102 = DIRECTION ( 'NONE',  ( -1.000000000000000000, -0.0000000000000000000, -0.0000000000000000000 ) ) ;
#103 = DIRECTION ( 'NONE',  ( 1.000000000000000000, 0.0000000000000000000, 0.0000000000000000000 ) ) ;
#104 =( LENGTH_UNIT ( ) NAMED_UNIT ( * ) SI_UNIT ( .MILLI., .METRE. ) );
#105 =( NAMED_UNIT ( * ) SI_UNIT ( $, .STERADIAN. ) SOLID_ANGLE_UNIT ( ) );
#106 = APPLICATION_PROTOCOL_DEFINITION ( 'draft international standard', 'automotive_design', 1998, #93 ) ;
#107 = CARTESIAN_POINT ( 'NONE',  ( 55.86553100135116500, 2.014585492990652600, 2.510635569948997900 ) ) ;
#108 = PRODUCT_CONTEXT ( 'NONE', #90, 'mechanical' ) ;
#109 = FILL_AREA_STYLE ('',( #95 ) ) ;
#110 =( NAMED_UNIT ( * ) PLANE_ANGLE_UNIT ( ) SI_UNIT ( $, .RADIAN. ) );
#111 =( NAMED_UNIT ( * ) PLANE_ANGLE_UNIT ( ) SI_UNIT ( $, .RADIAN. ) );
#112 = CARTESIAN_POINT ( 'NONE',  ( 0.0000000000000000000, 2.204364238465235600E-016, 1.600000000000000100 ) ) ;
#113 = CARTESIAN_POINT ( 'NONE',  ( 31.00000000000000000, 0.0000000000000000000, -1.720000000000000200 ) ) ;
#114 =( NAMED_UNIT ( * ) PLANE_ANGLE_UNIT ( ) SI_UNIT ( $, .RADIAN. ) );
#115 = CARTESIAN_POINT ( 'NONE',  ( 6.000000000000000900, -2.598076211353315600, 1.500000000000000200 ) ) ;
#116 = CARTESIAN_POINT ( 'NONE',  ( 6.301391112885688100, 3.464101615137756600, -1.352198841929620400E-016 ) ) ;
#117 = CARTESIAN_POINT ( 'NONE',  ( 30.00695753699384800, 0.0000000000000000000, 0.0000000000000000000 ) ) ;
#118 = CARTESIAN_POINT ( 'NONE',  ( 55.69860888711431800, 1.732050807568879200, 3.000000000000000000 ) ) ;
#119 =( LENGTH_UNIT ( ) NAMED_UNIT ( * ) SI_UNIT ( .MILLI., .METRE. ) );
#120 = CARTESIAN_POINT ( 'NONE',  ( 6.301391112885687200, 1.732050807568879400, 3.000000000000000000 ) ) ;
#121 = SURFACE_SIDE_STYLE ('',( #481 ) ) ;
#122 = CARTESIAN_POINT ( 'NONE',  ( 55.69860888711431800, 1.732050807568879400, -2.999999999999999100 ) ) ;
#123 = CARTESIAN_POINT ( 'NONE',  ( 0.3999999999999984700, 2.449293598294706400E-016, 2.000000000000000000 ) ) ;
#124 = CARTESIAN_POINT ( 'NONE',  ( 0.3999999999999984700, 0.0000000000000000000, -2.000000000000000000 ) ) ;
#125 = CARTESIAN_POINT ( 'NONE',  ( 0.0000000000000000000, 0.0000000000000000000, -1.600000000000000100 ) ) ;
#126 = CARTESIAN_POINT ( 'NONE',  ( 6.000000000000000900, 0.0000000000000000000, 2.999999999999999600 ) ) ;
#127 = CARTESIAN_POINT ( 'NONE',  ( 56.00000000000000000, 2.598076211353317300, 1.500000000000000400 ) ) ;
#128 = FILL_AREA_STYLE_COLOUR ( '', #654 ) ;
#129 = CARTESIAN_POINT ( 'NONE',  ( 31.00000000000000000, 2.106392494533447800E-016, 1.720000000000000200 ) ) ;
#130 = CARTESIAN_POINT ( 'NONE',  ( 56.00000000000000000, -2.598076211353317800, -1.500000000000000200 ) ) ;
#131 = CARTESIAN_POINT ( 'NONE',  ( 6.000000000000000900, 2.598076211353315100, -1.500000000000000200 ) ) ;
#132 = CARTESIAN_POINT ( 'NONE',  ( 6.000000000000000900, 2.598076211353316000, 1.499999999999999600 ) ) ;
#133 =( NAMED_UNIT ( * ) SI_UNIT ( $, .STERADIAN. ) SOLID_ANGLE_UNIT ( ) );
#134 = CARTESIAN_POINT ( 'NONE',  ( 56.00000000000000000, 0.0000000000000000000, -2.999999999999999100 ) ) ;
#135 = CARTESIAN_POINT ( 'NONE',  ( 6.000000000000000900, 0.0000000000000000000, -2.999999999999999100 ) ) ;
#136 = CARTESIAN_POINT ( 'NONE',  ( 55.69860888711431800, -3.464101615137754800, 7.717100280975476100E-016 ) ) ;
#137 = CARTESIAN_POINT ( 'NONE',  ( 6.000000000000000900, 2.449293598294706400E-016, -2.000000000000000000 ) ) ;
#138 = CARTESIAN_POINT ( 'NONE',  ( 6.000000000000000900, 0.0000000000000000000, 2.000000000000000000 ) ) ;
#139 = CARTESIAN_POINT ( 'NONE',  ( 56.00000000000000000, 2.106392494533447800E-016, 1.720000000000000200 ) ) ;
#140 = FILL_AREA_STYLE ('',( #128 ) ) ;
#141 = CARTESIAN_POINT ( 'NONE',  ( 6.301391112885687200, 1.732050807568879200, -2.999999999999999100 ) ) ;
#142 = CARTESIAN_POINT ( 'NONE',  ( 6.000000000000000900, -2.598076211353316000, -1.499999999999998900 ) ) ;
#143 = CARTESIAN_POINT ( 'NONE',  ( 56.00000000000000000, 2.598076211353316900, -1.500000000000001100 ) ) ;
#144 = CARTESIAN_POINT ( 'NONE',  ( 55.69860888711431800, -1.732050807568877200, 3.000000000000000000 ) ) ;
#145 = CARTESIAN_POINT ( 'NONE',  ( 55.69860888711431800, -1.732050807568879200, -2.999999999999999100 ) ) ;
#146 = CARTESIAN_POINT ( 'NONE',  ( 56.00000000000000000, 0.0000000000000000000, 3.000000000000001300 ) ) ;
#147 = CARTESIAN_POINT ( 'NONE',  ( 56.00000000000000000, -2.598076211353316900, 1.500000000000000900 ) ) ;
#148 = CARTESIAN_POINT ( 'NONE',  ( 6.301391112885687200, -1.732050807568877200, 3.000000000000000000 ) ) ;
#149 = SURFACE_STYLE_USAGE ( .BOTH. , #121 ) ;
#150 = CARTESIAN_POINT ( 'NONE',  ( 55.69860888711431800, 3.464101615137756600, 1.263677032292330200E-016 ) ) ;
#151 = DIRECTION ( 'NONE',  ( 0.0000000000000000000, 0.0000000000000000000, 1.000000000000000000 ) ) ;
#152 = DIRECTION ( 'NONE',  ( 1.000000000000000000, 0.0000000000000000000, 0.0000000000000000000 ) ) ;
#153 = CARTESIAN_POINT ( 'NONE',  ( 31.00000000000000000, 0.0000000000000000000, 0.0000000000000000000 ) ) ;
#154 = CARTESIAN_POINT ( 'NONE',  ( 0.0000000000000000000, 0.0000000000000000000, 0.0000000000000000000 ) ) ;
#155 = DIRECTION ( 'NONE',  ( 0.0000000000000000000, 0.0000000000000000000, -1.000000000000000000 ) ) ;
#156 = CARTESIAN_POINT ( 'NONE',  ( 56.00000000000000000, 0.0000000000000000000, -1.720000000000000200 ) ) ;
#157 = CARTESIAN_POINT ( 'NONE',  ( 31.00000000000000000, 0.0000000000000000000, 0.0000000000000000000 ) ) ;
#158 = CARTESIAN_POINT ( 'NONE',  ( 6.301391112885687200, -3.464101615137754800, 6.980407924270982600E-016 ) ) ;
#159 = DIRECTION ( 'NONE',  ( 0.0000000000000000000, 0.0000000000000000000, -1.000000000000000000 ) ) ;
#160 = DIRECTION ( 'NONE',  ( -1.000000000000000000, 0.0000000000000000000, -0.0000000000000000000 ) ) ;
#161 = DIRECTION ( 'NONE',  ( -1.000000000000000000, 0.0000000000000000000, 0.0000000000000000000 ) ) ;
#162 = CARTESIAN_POINT ( 'NONE',  ( 56.00000000000000000, 1.732050807568879200, 3.000000000000000000 ) ) ;
#163 = DIRECTION ( 'NONE',  ( 1.000000000000000000, 0.0000000000000000000, 0.0000000000000000000 ) ) ;
#164 = DIRECTION ( 'NONE',  ( 0.0000000000000000000, -0.5000000000000002200, -0.8660254037844384900 ) ) ;
#165 = DIRECTION ( 'NONE',  ( 0.0000000000000000000, 0.0000000000000000000, -1.000000000000000000 ) ) ;
#166 = CARTESIAN_POINT ( 'NONE',  ( 6.000000000000000900, 0.0000000000000000000, 0.0000000000000000000 ) ) ;
#167 = DIRECTION ( 'NONE',  ( 1.000000000000000000, 0.0000000000000000000, -0.0000000000000000000 ) ) ;
#168 = DIRECTION ( 'NONE',  ( -0.0000000000000000000, 0.0000000000000000000, -1.000000000000000000 ) ) ;
#169 = CARTESIAN_POINT ( 'NONE',  ( 0.3999999999999984700, 0.0000000000000000000, 0.0000000000000000000 ) ) ;
#170 = CARTESIAN_POINT ( 'NONE',  ( 6.000000000000000900, 0.0000000000000000000, 0.0000000000000000000 ) ) ;
#171 = CARTESIAN_POINT ( 'NONE',  ( 56.00000000000000000, -1.732050807568877200, 3.000000000000000000 ) ) ;
#172 = CARTESIAN_POINT ( 'NONE',  ( 56.00000000000000000, 1.732050807568879200, -2.999999999999999100 ) ) ;
#173 = CARTESIAN_POINT ( 'NONE',  ( 6.301391112885687200, -1.732050807568879000, -2.999999999999999100 ) ) ;
#174 = DIRECTION ( 'NONE',  ( 0.0000000000000000000, 0.5000000000000001100, 0.8660254037844386000 ) ) ;
#175 = DIRECTION ( 'NONE',  ( 0.0000000000000000000, 0.0000000000000000000, -1.000000000000000000 ) ) ;
#176 = PLANE ( 'NONE',  #791 ) ;
#177 = DIRECTION ( 'NONE',  ( 1.000000000000000000, -0.0000000000000000000, -0.0000000000000000000 ) ) ;
#178 = CARTESIAN_POINT ( 'NONE',  ( 6.000000000000000900, 0.0000000000000000000, 0.0000000000000000000 ) ) ;
#179 = DIRECTION ( 'NONE',  ( -1.000000000000000000, -0.0000000000000000000, -0.0000000000000000000 ) ) ;
#180 = DIRECTION ( 'NONE',  ( 1.000000000000000000, -0.0000000000000000000, -0.0000000000000000000 ) ) ;
#181 = PLANE ( 'NONE',  #792 ) ;
#182 = DIRECTION ( 'NONE',  ( 0.0000000000000000000, 0.0000000000000000000, 1.000000000000000000 ) ) ;
#183 = DIRECTION ( 'NONE',  ( 1.000000000000000000, 0.0000000000000000000, 0.0000000000000000000 ) ) ;
#184 = CARTESIAN_POINT ( 'NONE',  ( 0.0000000000000000000, 0.0000000000000000000, 0.0000000000000000000 ) ) ;
#185 = DIRECTION ( 'NONE',  ( 0.0000000000000000000, 0.0000000000000000000, 1.000000000000000000 ) ) ;
#186 = DIRECTION ( 'NONE',  ( 0.0000000000000000000, 0.8660254037844386000, -0.5000000000000001100 ) ) ;
#187 = DIRECTION ( 'NONE',  ( 0.0000000000000000000, -0.8660254037844386000, 0.5000000000000003300 ) ) ;
#188 = DIRECTION ( 'NONE',  ( 1.000000000000000000, 0.0000000000000000000, 0.0000000000000000000 ) ) ;
#189 = DIRECTION ( 'NONE',  ( 0.0000000000000000000, 0.0000000000000000000, -1.000000000000000000 ) ) ;
#190 = PLANE ( 'NONE',  #801 ) ;
#191 = DIRECTION ( 'NONE',  ( 1.000000000000000000, 0.0000000000000000000, 0.0000000000000000000 ) ) ;
#192 = PLANE ( 'NONE',  #816 ) ;
#193 = PLANE ( 'NONE',  #795 ) ;
#194 = DIRECTION ( 'NONE',  ( 0.0000000000000000000, 0.0000000000000000000, -1.000000000000000000 ) ) ;
#195 = CARTESIAN_POINT ( 'NONE',  ( 56.00000000000000000, 0.0000000000000000000, 0.0000000000000000000 ) ) ;
#196 = CARTESIAN_POINT ( 'NONE',  ( 6.000000000000000900, 0.0000000000000000000, 0.0000000000000000000 ) ) ;
#197 = DIRECTION ( 'NONE',  ( 0.0000000000000000000, 0.0000000000000000000, 1.000000000000000000 ) ) ;
#198 = DIRECTION ( 'NONE',  ( 1.000000000000000000, 0.0000000000000000000, -0.0000000000000000000 ) ) ;
#199 = CARTESIAN_POINT ( 'NONE',  ( 6.000000000000000900, 0.0000000000000000000, 0.0000000000000000000 ) ) ;
#200 = CARTESIAN_POINT ( 'NONE',  ( 0.0000000000000000000, 0.0000000000000000000, 0.0000000000000000000 ) ) ;
#201 = DIRECTION ( 'NONE',  ( -1.000000000000000000, -0.0000000000000000000, -0.0000000000000000000 ) ) ;
#202 = CARTESIAN_POINT ( 'NONE',  ( 56.00000000000000000, -1.732050807568879000, -2.999999999999999100 ) ) ;
#203 = DIRECTION ( 'NONE',  ( 0.0000000000000000000, 0.0000000000000000000, 1.000000000000000000 ) ) ;
#204 = CARTESIAN_POINT ( 'NONE',  ( 6.000000000000000900, 0.0000000000000000000, 0.0000000000000000000 ) ) ;
#205 = DIRECTION ( 'NONE',  ( 1.000000000000000000, -0.0000000000000000000, -0.0000000000000000000 ) ) ;
#206 = DIRECTION ( 'NONE',  ( 0.0000000000000000000, 0.0000000000000000000, 1.000000000000000000 ) ) ;
#207 = DIRECTION ( 'NONE',  ( 1.000000000000000000, 0.0000000000000000000, -0.0000000000000000000 ) ) ;
#208 = PLANE ( 'NONE',  #803 ) ;
#209 = DIRECTION ( 'NONE',  ( -1.000000000000000000, 0.0000000000000000000, 0.0000000000000000000 ) ) ;
#210 = DIRECTION ( 'NONE',  ( 0.0000000000000000000, 0.0000000000000000000, 1.000000000000000000 ) ) ;
#211 = CARTESIAN_POINT ( 'NONE',  ( 56.00000000000000000, 0.0000000000000000000, 0.0000000000000000000 ) ) ;
#212 = CARTESIAN_POINT ( 'NONE',  ( 6.000000000000000900, 0.0000000000000000000, 0.0000000000000000000 ) ) ;
#213 = DIRECTION ( 'NONE',  ( 0.0000000000000000000, 0.4999999999999998900, -0.8660254037844386000 ) ) ;
#214 = CARTESIAN_POINT ( 'NONE',  ( 56.00000000000000000, 0.0000000000000000000, 0.0000000000000000000 ) ) ;
#215 = DIRECTION ( 'NONE',  ( 1.000000000000000000, 0.0000000000000000000, 0.0000000000000000000 ) ) ;
#216 = CARTESIAN_POINT ( 'NONE',  ( 0.3999999999999984700, 0.0000000000000000000, 0.0000000000000000000 ) ) ;
#217 = CARTESIAN_POINT ( 'NONE',  ( 56.00000000000000000, 0.0000000000000000000, 0.0000000000000000000 ) ) ;
#218 = DIRECTION ( 'NONE',  ( -1.000000000000000000, 0.0000000000000000000, 0.0000000000000000000 ) ) ;
#219 = DIRECTION ( 'NONE',  ( -1.000000000000000000, 0.0000000000000000000, 0.0000000000000000000 ) ) ;
#220 = DIRECTION ( 'NONE',  ( 0.0000000000000000000, 0.0000000000000000000, -1.000000000000000000 ) ) ;
#221 = DIRECTION ( 'NONE',  ( 1.000000000000000000, -0.0000000000000000000, -0.0000000000000000000 ) ) ;
#222 = CARTESIAN_POINT ( 'NONE',  ( 56.00000000000000000, 0.0000000000000000000, 0.0000000000000000000 ) ) ;
#223 = PLANE ( 'NONE',  #807 ) ;
#224 = DIRECTION ( 'NONE',  ( 0.0000000000000000000, -0.8660254037844387100, -0.4999999999999999400 ) ) ;
#225 = CARTESIAN_POINT ( 'NONE',  ( 31.00000000000000000, 0.0000000000000000000, 0.0000000000000000000 ) ) ;
#226 = DIRECTION ( 'NONE',  ( 0.0000000000000000000, 0.0000000000000000000, -1.000000000000000000 ) ) ;
#227 = DIRECTION ( 'NONE',  ( 1.000000000000000000, 0.0000000000000000000, 0.0000000000000000000 ) ) ;
#228 = DIRECTION ( 'NONE',  ( 0.0000000000000000000, 0.0000000000000000000, -1.000000000000000000 ) ) ;
#229 = DIRECTION ( 'NONE',  ( 1.000000000000000000, 0.0000000000000000000, 0.0000000000000000000 ) ) ;
#230 = DIRECTION ( 'NONE',  ( 1.000000000000000000, 0.0000000000000000000, 0.0000000000000000000 ) ) ;
#231 = CARTESIAN_POINT ( 'NONE',  ( 56.00000000000000000, 0.0000000000000000000, 0.0000000000000000000 ) ) ;
#232 = DIRECTION ( 'NONE',  ( -0.0000000000000000000, 0.0000000000000000000, -1.000000000000000000 ) ) ;
#233 = CARTESIAN_POINT ( 'NONE',  ( 31.00000000000000000, 0.0000000000000000000, 0.0000000000000000000 ) ) ;
#234 = DIRECTION ( 'NONE',  ( 0.0000000000000000000, 0.0000000000000000000, 1.000000000000000000 ) ) ;
#235 = DIRECTION ( 'NONE',  ( 0.0000000000000000000, 0.0000000000000000000, -1.000000000000000000 ) ) ;
#236 = DIRECTION ( 'NONE',  ( 0.0000000000000000000, 0.0000000000000000000, 1.000000000000000000 ) ) ;
#237 = CARTESIAN_POINT ( 'NONE',  ( 56.00000000000000000, 3.464101615137756600, -7.363781531772281800E-018 ) ) ;
#238 = CARTESIAN_POINT ( 'NONE',  ( 55.69860888711431800, -1.732050807568879200, -2.999999999999999100 ) ) ;
#239 = DIRECTION ( 'NONE',  ( -1.000000000000000000, 0.0000000000000000000, 0.0000000000000000000 ) ) ;
#240 = DIRECTION ( 'NONE',  ( 0.0000000000000000000, 0.0000000000000000000, -1.000000000000000000 ) ) ;
#241 = DIRECTION ( 'NONE',  ( 0.0000000000000000000, 0.0000000000000000000, -1.000000000000000000 ) ) ;
#242 = DIRECTION ( 'NONE',  ( 0.0000000000000000000, 0.0000000000000000000, -1.000000000000000000 ) ) ;
#243 = PLANE ( 'NONE',  #808 ) ;
#244 = CARTESIAN_POINT ( 'NONE',  ( 6.000000000000002700, 0.2932442331627077600, -2.999999999999999100 ) ) ;
#245 = CARTESIAN_POINT ( 'NONE',  ( 56.00000000000000000, 0.0000000000000000000, 0.0000000000000000000 ) ) ;
#246 = CARTESIAN_POINT ( 'NONE',  ( 56.00000000000000000, 0.0000000000000000000, 0.0000000000000000000 ) ) ;
#247 = DIRECTION ( 'NONE',  ( 1.000000000000000000, 0.0000000000000000000, 0.0000000000000000000 ) ) ;
#248 = DIRECTION ( 'NONE',  ( 0.0000000000000000000, 0.0000000000000000000, -1.000000000000000000 ) ) ;
#249 = CARTESIAN_POINT ( 'NONE',  ( 6.301391112885687200, 1.732050807568879200, -2.999999999999999100 ) ) ;
#250 = CARTESIAN_POINT ( 'NONE',  ( 55.86553100135116500, -2.014585492990652600, -2.510635569948996200 ) ) ;
#251 = CARTESIAN_POINT ( 'NONE',  ( 55.69860888711431800, -1.732050807568879200, -2.999999999999999100 ) ) ;
#252 = CARTESIAN_POINT ( 'NONE',  ( 55.86644951130735800, -1.163304456661727700, -2.999999999999999100 ) ) ;
#253 = CARTESIAN_POINT ( 'NONE',  ( 55.78986993174147100, -1.872580492749845100, -2.756595445294907500 ) ) ;
#254 = CARTESIAN_POINT ( 'NONE',  ( 6.301391112885688100, 3.464101615137756600, -1.352198841929620400E-016 ) ) ;
#255 = DIRECTION ( 'NONE',  ( 1.000000000000000000, 0.0000000000000000000, -0.0000000000000000000 ) ) ;
#256 = CARTESIAN_POINT ( 'NONE',  ( 6.118187136951297200, 3.181992231364856800, -0.4886277859866095000 ) ) ;
#257 = CARTESIAN_POINT ( 'NONE',  ( 6.000000000000000900, 2.598076211353315100, -1.500000000000000200 ) ) ;
#258 = DIRECTION ( 'NONE',  ( 0.0000000000000000000, 0.0000000000000000000, -1.000000000000000000 ) ) ;
#259 = CARTESIAN_POINT ( 'NONE',  ( 6.135235932763317900, 1.170457327762042300, -2.999999999999999100 ) ) ;
#260 = DIRECTION ( 'NONE',  ( 1.000000000000000000, 0.0000000000000000000, 0.0000000000000000000 ) ) ;
#261 = CARTESIAN_POINT ( 'NONE',  ( 56.00000000000000000, -0.2936766384352090300, -2.999999999999999100 ) ) ;
#262 = DIRECTION ( 'NONE',  ( 1.000000000000000000, 0.0000000000000000000, 0.0000000000000000000 ) ) ;
#263 = CARTESIAN_POINT ( 'NONE',  ( 56.00000000000000000, -3.464101615137754800, 6.259146537023867200E-016 ) ) ;
#264 = CARTESIAN_POINT ( 'NONE',  ( 55.97079954601553500, -2.302950856960405400, -2.011172108410293800 ) ) ;
#265 = CARTESIAN_POINT ( 'NONE',  ( 31.00000000000000000, 0.0000000000000000000, 0.0000000000000000000 ) ) ;
#266 = CARTESIAN_POINT ( 'NONE',  ( 55.78962461170122800, -1.451746956673749500, -2.999999999999998200 ) ) ;
#267 = DIRECTION ( 'NONE',  ( -1.000000000000000000, 0.0000000000000000000, 0.0000000000000000000 ) ) ;
#268 = CARTESIAN_POINT ( 'NONE',  ( 56.00000000000000000, 0.0000000000000000000, -2.999999999999999100 ) ) ;
#269 = CARTESIAN_POINT ( 'NONE',  ( 56.00000000000000000, -1.732050807568879000, -2.999999999999999100 ) ) ;
#270 = CARTESIAN_POINT ( 'NONE',  ( 55.69860888711431800, -3.464101615137754800, 7.717100280975476100E-016 ) ) ;
#271 = CARTESIAN_POINT ( 'NONE',  ( 6.029304626991432800, 0.5915413661075748000, -2.999999999999997800 ) ) ;
#272 = CARTESIAN_POINT ( 'NONE',  ( 6.000000000000000900, 0.0000000000000000000, -2.999999999999999100 ) ) ;
#273 = CARTESIAN_POINT ( 'NONE',  ( 56.00000000000000000, 0.0000000000000000000, 0.0000000000000000000 ) ) ;
#274 = CARTESIAN_POINT ( 'NONE',  ( 55.88181286304870800, -3.181992231364855400, -0.4886277859866081100 ) ) ;
#275 = CARTESIAN_POINT ( 'NONE',  ( 6.000000000000000900, 0.0000000000000000000, 2.999999999999999600 ) ) ;
#276 = DIRECTION ( 'NONE',  ( 0.0000000000000000000, 0.0000000000000000000, -1.000000000000000000 ) ) ;
#277 = CARTESIAN_POINT ( 'NONE',  ( 56.00000000000000000, -2.598076211353317800, -1.500000000000000200 ) ) ;
#278 = DIRECTION ( 'NONE',  ( 0.0000000000000000000, 0.0000000000000000000, -1.000000000000000000 ) ) ;
#279 = CARTESIAN_POINT ( 'NONE',  ( 6.000000000000000000, 0.2932442331627088700, 2.999999999999999600 ) ) ;
#280 = DIRECTION ( 'NONE',  ( 1.000000000000000000, -0.0000000000000000000, -0.0000000000000000000 ) ) ;
#281 = PLANE ( 'NONE',  #843 ) ;
#282 = CARTESIAN_POINT ( 'NONE',  ( 6.000000000000000900, 0.0000000000000000000, 0.0000000000000000000 ) ) ;
#283 = DIRECTION ( 'NONE',  ( 0.0000000000000000000, 0.0000000000000000000, -1.000000000000000000 ) ) ;
#284 = CARTESIAN_POINT ( 'NONE',  ( 55.97152096115731700, -0.5849218311394229800, -2.999999999999997800 ) ) ;
#285 = DIRECTION ( 'NONE',  ( -0.0000000000000000000, 0.8660254037844388200, 0.4999999999999997200 ) ) ;
#286 = DIRECTION ( 'NONE',  ( -1.000000000000000000, -0.0000000000000000000, -0.0000000000000000000 ) ) ;
#287 = CARTESIAN_POINT ( 'NONE',  ( 31.00000000000000000, 0.0000000000000000000, -1.720000000000000200 ) ) ;
#288 = CARTESIAN_POINT ( 'NONE',  ( 6.210907078462409600, 1.453384418782879500, -2.999999999999998200 ) ) ;
#289 = CARTESIAN_POINT ( 'NONE',  ( 56.00000000000003600, -2.450605542695813100, -1.755426690740951700 ) ) ;
#290 = CARTESIAN_POINT ( 'NONE',  ( 5.999999999999982200, 2.894723517612319200, -0.9861917936309654300 ) ) ;
#291 = DIRECTION ( 'NONE',  ( 0.0000000000000000000, -0.4999999999999997200, 0.8660254037844388200 ) ) ;
#292 = CARTESIAN_POINT ( 'NONE',  ( 6.029304626991434500, 0.5915413661075756800, 3.000000000000000400 ) ) ;
#293 = CARTESIAN_POINT ( 'NONE',  ( 6.000000000000000900, 0.0000000000000000000, 0.0000000000000000000 ) ) ;
#294 = CARTESIAN_POINT ( 'NONE',  ( 56.00000000000000000, -2.598076211353317800, -1.500000000000000200 ) ) ;
#295 = CARTESIAN_POINT ( 'NONE',  ( 56.00000000000002100, -2.301428905094314600, 2.013808206369035200 ) ) ;
#296 = CARTESIAN_POINT ( 'NONE',  ( 56.00000000000000700, -0.2936766384352090800, 3.000000000000000000 ) ) ;
#297 = CARTESIAN_POINT ( 'NONE',  ( 56.00000000000000000, -2.598076211353316900, 1.500000000000000900 ) ) ;
#298 = CARTESIAN_POINT ( 'NONE',  ( 55.88181286304870800, -2.014160191341776600, 2.511372214013391600 ) ) ;
#299 = CARTESIAN_POINT ( 'NONE',  ( 6.134468998648845400, -3.181566929715980300, -0.4893644300510016100 ) ) ;
#300 = DIRECTION ( 'NONE',  ( 0.0000000000000000000, 0.0000000000000000000, -1.000000000000000000 ) ) ;
#301 = CARTESIAN_POINT ( 'NONE',  ( 56.00000000000002100, -2.894723517612317800, -0.9861917936309643200 ) ) ;
#302 = CARTESIAN_POINT ( 'NONE',  ( 56.00000000000000000, 0.0000000000000000000, 0.0000000000000000000 ) ) ;
#303 = CARTESIAN_POINT ( 'NONE',  ( 6.210907078462409600, 1.453384418782879500, 3.000000000000000400 ) ) ;
#304 = CARTESIAN_POINT ( 'NONE',  ( 55.69860888711431800, -1.732050807568877200, 3.000000000000000000 ) ) ;
#305 = CARTESIAN_POINT ( 'NONE',  ( 6.029200453984472600, -2.893201565746228400, -0.9888278915897055200 ) ) ;
#306 = CARTESIAN_POINT ( 'NONE',  ( 31.00000000000000000, 2.106392494533447800E-016, 1.720000000000000200 ) ) ;
#307 = CARTESIAN_POINT ( 'NONE',  ( 0.3999999999999984700, 2.449293598294706400E-016, 2.000000000000000000 ) ) ;
#308 = CARTESIAN_POINT ( 'NONE',  ( 6.301391112885687200, -3.464101615137754800, 6.980407924270982600E-016 ) ) ;
#309 = CARTESIAN_POINT ( 'NONE',  ( 56.00000000000000000, 0.0000000000000000000, 0.0000000000000000000 ) ) ;
#310 = CARTESIAN_POINT ( 'NONE',  ( 55.69860888711431800, 1.732050807568879400, -2.999999999999999100 ) ) ;
#311 = CARTESIAN_POINT ( 'NONE',  ( 56.00000000000000000, 0.0000000000000000000, 3.000000000000001300 ) ) ;
#312 = CARTESIAN_POINT ( 'NONE',  ( 6.135235932763316100, 1.170457327762042000, 3.000000000000000400 ) ) ;
#313 = DIRECTION ( 'NONE',  ( 0.7071067811865462400, 8.659560562354950100E-017, 0.7071067811865489100 ) ) ;
#314 = DIRECTION ( 'NONE',  ( 0.4999999999999979500, 1.060575238724908100E-016, 0.8660254037844397100 ) ) ;
#315 = CARTESIAN_POINT ( 'NONE',  ( 55.86644951130734400, -1.163304456661727200, 3.000000000000000400 ) ) ;
#316 = CARTESIAN_POINT ( 'NONE',  ( 55.69860888711431800, -1.732050807568877200, 3.000000000000000000 ) ) ;
#317 = CARTESIAN_POINT ( 'NONE',  ( 55.88181286304870800, 2.014160191341778400, -2.511372214013391200 ) ) ;
#318 = CARTESIAN_POINT ( 'NONE',  ( 6.301391112885687200, -1.732050807568879000, -2.999999999999999100 ) ) ;
#319 = CARTESIAN_POINT ( 'NONE',  ( 6.000000000000000900, -2.598076211353316000, -1.499999999999998900 ) ) ;
#320 = CARTESIAN_POINT ( 'NONE',  ( 56.00000000000000000, 2.598076211353316900, -1.500000000000001100 ) ) ;
#321 = CARTESIAN_POINT ( 'NONE',  ( 56.00000000000000000, 1.732050807568879200, -2.999999999999999100 ) ) ;
#322 = CARTESIAN_POINT ( 'NONE',  ( 6.210130068258538700, -3.323571929956789200, -0.2434045547050917900 ) ) ;
#323 = DIRECTION ( 'NONE',  ( -1.000000000000000000, -0.0000000000000000000, -0.0000000000000000000 ) ) ;
#324 = CARTESIAN_POINT ( 'NONE',  ( 6.301391112885687200, 1.732050807568879400, 3.000000000000000000 ) ) ;
#325 = CARTESIAN_POINT ( 'NONE',  ( 6.133550488692646000, -1.163304456661727000, -2.999999999999997800 ) ) ;
#326 = CARTESIAN_POINT ( 'NONE',  ( 6.210375388298764700, -1.451746956673747100, -2.999999999999999100 ) ) ;
#327 = DIRECTION ( 'NONE',  ( 1.000000000000000000, 0.0000000000000000000, -0.0000000000000000000 ) ) ;
#328 = CARTESIAN_POINT ( 'NONE',  ( 55.97152096115732400, -0.5849218311394226400, 3.000000000000000400 ) ) ;
#329 = CARTESIAN_POINT ( 'NONE',  ( 55.78962461170122800, -1.451746956673748000, 3.000000000000000400 ) ) ;
#330 = DIRECTION ( 'NONE',  ( 1.000000000000000000, 0.0000000000000000000, -0.0000000000000000000 ) ) ;
#331 = DIRECTION ( 'NONE',  ( 1.000000000000000000, 0.0000000000000000000, -0.0000000000000000000 ) ) ;
#332 = DIRECTION ( 'NONE',  ( 0.0000000000000000000, 0.0000000000000000000, -1.000000000000000000 ) ) ;
#333 = CARTESIAN_POINT ( 'NONE',  ( 6.000000000000000900, 0.0000000000000000000, -2.999999999999999100 ) ) ;
#334 = CARTESIAN_POINT ( 'NONE',  ( 6.028479038842689000, -0.5849218311394232000, -2.999999999999999100 ) ) ;
#335 = DIRECTION ( 'NONE',  ( 0.0000000000000000000, 0.0000000000000000000, -1.000000000000000000 ) ) ;
#336 = CARTESIAN_POINT ( 'NONE',  ( 56.00000000000002100, 2.301428905094316400, -2.013808206369035700 ) ) ;
#337 = CARTESIAN_POINT ( 'NONE',  ( 6.000000000000000000, -0.2936766384352093000, -2.999999999999998200 ) ) ;
#338 = CARTESIAN_POINT ( 'NONE',  ( 5.999999999999980500, -2.745546880010820300, -1.244573309259048100 ) ) ;
#339 = CARTESIAN_POINT ( 'NONE',  ( 31.00000000000000000, 0.0000000000000000000, 0.0000000000000000000 ) ) ;
#340 = CARTESIAN_POINT ( 'NONE',  ( 55.78909292153758800, 1.453384418782880600, 2.999999999999999600 ) ) ;
#341 = DIRECTION ( 'NONE',  ( 0.0000000000000000000, 0.0000000000000000000, -1.000000000000000000 ) ) ;
#342 = CARTESIAN_POINT ( 'NONE',  ( 56.00000000000000000, 0.0000000000000000000, 3.000000000000001300 ) ) ;
#343 = CARTESIAN_POINT ( 'NONE',  ( 55.78986993174147100, -3.323571929956789200, 0.2434045547050918700 ) ) ;
#344 = DIRECTION ( 'NONE',  ( 1.000000000000000000, 0.0000000000000000000, 0.0000000000000000000 ) ) ;
#345 = CARTESIAN_POINT ( 'NONE',  ( 55.69860888711431800, 1.732050807568879200, 3.000000000000000000 ) ) ;
#346 = DIRECTION ( 'NONE',  ( 0.0000000000000000000, 0.0000000000000000000, -1.000000000000000000 ) ) ;
#347 = CARTESIAN_POINT ( 'NONE',  ( 56.00000000000003600, -2.745546880010820300, 1.244573309259047600 ) ) ;
#348 = CARTESIAN_POINT ( 'NONE',  ( 6.000000000000000900, 0.0000000000000000000, 0.0000000000000000000 ) ) ;
#349 = DIRECTION ( 'NONE',  ( 0.0000000000000000000, 0.0000000000000000000, 1.000000000000000000 ) ) ;
#350 = CARTESIAN_POINT ( 'NONE',  ( 55.69860888711431800, -3.464101615137754800, 7.717100280975476100E-016 ) ) ;
#351 = CARTESIAN_POINT ( 'NONE',  ( 56.00000000000000000, -1.732050807568877200, 3.000000000000000000 ) ) ;
#352 = DIRECTION ( 'NONE',  ( 0.0000000000000000000, 0.0000000000000000000, -1.000000000000000000 ) ) ;
#353 = CARTESIAN_POINT ( 'NONE',  ( 6.000000000000000900, 0.0000000000000000000, 0.0000000000000000000 ) ) ;
#354 = CARTESIAN_POINT ( 'NONE',  ( 56.00000000000000000, 0.0000000000000000000, 0.0000000000000000000 ) ) ;
#355 = CARTESIAN_POINT ( 'NONE',  ( 56.00000000000000000, 0.0000000000000000000, -2.999999999999999100 ) ) ;
#356 = DIRECTION ( 'NONE',  ( 0.0000000000000000000, 0.0000000000000000000, -1.000000000000000000 ) ) ;
#357 = DIRECTION ( 'NONE',  ( -1.000000000000000000, 0.0000000000000000000, 0.0000000000000000000 ) ) ;
#358 = DIRECTION ( 'NONE',  ( 0.0000000000000000000, 0.0000000000000000000, -1.000000000000000000 ) ) ;
#359 = DIRECTION ( 'NONE',  ( 1.000000000000000000, 0.0000000000000000000, -0.0000000000000000000 ) ) ;
#360 = CARTESIAN_POINT ( 'NONE',  ( 6.301391112885687200, -3.464101615137754800, 6.980407924270982600E-016 ) ) ;
#361 = DIRECTION ( 'NONE',  ( 1.000000000000000000, 0.0000000000000000000, -0.0000000000000000000 ) ) ;
#362 = CARTESIAN_POINT ( 'NONE',  ( 55.86476406723669200, 1.170457327762042300, 3.000000000000000400 ) ) ;
#363 = CARTESIAN_POINT ( 'NONE',  ( 56.00000000000000000, 0.2932442331627075900, 3.000000000000000400 ) ) ;
#364 = DIRECTION ( 'NONE',  ( 1.000000000000000000, 0.0000000000000000000, -0.0000000000000000000 ) ) ;
#365 = CARTESIAN_POINT ( 'NONE',  ( 6.000000000000000900, -2.598076211353315600, 1.500000000000000200 ) ) ;
#366 = DIRECTION ( 'NONE',  ( 1.000000000000000000, 0.0000000000000000000, 0.0000000000000000000 ) ) ;
#367 = CARTESIAN_POINT ( 'NONE',  ( 6.118187136951295500, -3.181992231364855000, 0.4886277859866091600 ) ) ;
#368 = DIRECTION ( 'NONE',  ( -1.000000000000000000, -0.0000000000000000000, -0.0000000000000000000 ) ) ;
#369 = DIRECTION ( 'NONE',  ( -1.000000000000000000, -0.0000000000000000000, -0.0000000000000000000 ) ) ;
#370 = CARTESIAN_POINT ( 'NONE',  ( 5.999999999999981300, -2.894723517612317400, 0.9861917936309647600 ) ) ;
#371 = CARTESIAN_POINT ( 'NONE',  ( 56.00000000000000000, 0.0000000000000000000, 0.0000000000000000000 ) ) ;
#372 = CARTESIAN_POINT ( 'NONE',  ( 56.00000000000002100, 0.2932442331627080900, -2.999999999999999100 ) ) ;
#373 = CARTESIAN_POINT ( 'NONE',  ( 56.00000000000000000, -2.598076211353316900, 1.500000000000000900 ) ) ;
#374 = CARTESIAN_POINT ( 'NONE',  ( 55.97069537300856000, 0.5915413661075748000, 3.000000000000000400 ) ) ;
#375 = CARTESIAN_POINT ( 'NONE',  ( 56.00000000000000000, -3.464101615137754800, 6.259146537023867200E-016 ) ) ;
#376 = CARTESIAN_POINT ( 'NONE',  ( 55.97079954601553500, -2.893201565746228000, 0.9888278915897059700 ) ) ;
#377 = CARTESIAN_POINT ( 'NONE',  ( 56.00000000000000000, 0.0000000000000000000, 0.0000000000000000000 ) ) ;
#378 = CARTESIAN_POINT ( 'NONE',  ( 55.86553100135116500, -3.181566929715980300, 0.4893644300510018300 ) ) ;
#379 = PRODUCT_DEFINITION_SHAPE ( 'NONE', 'NONE',  #856 ) ;
#380 = PRODUCT_DEFINITION_CONTEXT ( 'detailed design', #93, 'design' ) ;
#381 = ADVANCED_BREP_SHAPE_REPRESENTATION ( 'EJLC-M4-L50', ( #385, #829 ), #833 ) ;
#382 = B_SPLINE_CURVE_WITH_KNOTS ( 'NONE', 3,
 ( #238, #266, #252, #284, #261, #268 ),
 .UNSPECIFIED., .F., .F.,
 ( 4, 2, 4 ),
 ( 0.002997931459550570500, 0.003878060575408619200, 0.004758189691266667500 ),
 .UNSPECIFIED. ) ;
#383 = B_SPLINE_CURVE_WITH_KNOTS ( 'NONE', 3,
 ( #26, #29, #13, #14 ),
 .UNSPECIFIED., .F., .F.,
 ( 4, 4 ),
 ( 2.398399543830752600E-007, 0.001758122521152073500 ),
 .UNSPECIFIED. ) ;
#384 = B_SPLINE_CURVE_WITH_KNOTS ( 'NONE', 3,
 ( #310, #317, #336, #320 ),
 .UNSPECIFIED., .F., .F.,
 ( 4, 4 ),
 ( 2.398399543824901700E-007, 0.001758122521152071600 ),
 .UNSPECIFIED. ) ;
#385 = MANIFOLD_SOLID_BREP ( '�г�-����4', #509 ) ;
#386 = B_SPLINE_CURVE_WITH_KNOTS ( 'NONE', 3,
 ( #360, #367, #370, #365 ),
 .UNSPECIFIED., .F., .F.,
 ( 4, 4 ),
 ( 2.398399543829686900E-007, 0.001758122521152074600 ),
 .UNSPECIFIED. ) ;
#387 = B_SPLINE_CURVE_WITH_KNOTS ( 'NONE', 3,
 ( #18, #10, #30, #40, #3, #39 ),
 .UNSPECIFIED., .F., .F.,
 ( 4, 2, 4 ),
 ( 0.001758122521152074600, 0.002632009217400496700, 0.003505895913648918900 ),
 .UNSPECIFIED. ) ;
#388 = B_SPLINE_CURVE_WITH_KNOTS ( 'NONE', 3,
 ( #69, #63, #82, #87, #50, #49 ),
 .UNSPECIFIED., .F., .F.,
 ( 4, 2, 4 ),
 ( 0.002997931459550574800, 0.003878060575408620900, 0.004758189691266667500 ),
 .UNSPECIFIED. ) ;
#389 = B_SPLINE_CURVE_WITH_KNOTS ( 'NONE', 3,
 ( #76, #73, #96, #107, #99, #100 ),
 .UNSPECIFIED., .F., .F.,
 ( 4, 2, 4 ),
 ( 0.001758122521152074400, 0.002632009217400497200, 0.003505895913648919700 ),
 .UNSPECIFIED. ) ;
#390 = UNCERTAINTY_MEASURE_WITH_UNIT (LENGTH_MEASURE( 1.000000000000000100E-005 ), #104, 'distance_accuracy_value', 'NONE');
#391 = B_SPLINE_CURVE_WITH_KNOTS ( 'NONE', 3,
 ( #270, #274, #301, #294 ),
 .UNSPECIFIED., .F., .F.,
 ( 4, 4 ),
 ( 2.398399543822267400E-007, 0.001758122521152073700 ),
 .UNSPECIFIED. ) ;
#392 = B_SPLINE_CURVE_WITH_KNOTS ( 'NONE', 3,
 ( #277, #289, #264, #250, #253, #251 ),
 .UNSPECIFIED., .F., .F.,
 ( 4, 2, 4 ),
 ( 0.001758122521152073700, 0.002632009217400496300, 0.003505895913648918900 ),
 .UNSPECIFIED. ) ;
#393 = B_SPLINE_CURVE_WITH_KNOTS ( 'NONE', 3,
 ( #56, #64, #65, #48, #81, #66 ),
 .UNSPECIFIED., .F., .F.,
 ( 4, 2, 4 ),
 ( 0.001758122521152074200, 0.002632009217400497200, 0.003505895913648919700 ),
 .UNSPECIFIED. ) ;
#394 = B_SPLINE_CURVE_WITH_KNOTS ( 'NONE', 3,
 ( #304, #298, #295, #297 ),
 .UNSPECIFIED., .F., .F.,
 ( 4, 4 ),
 ( 2.398399543829681600E-007, 0.001758122521152074200 ),
 .UNSPECIFIED. ) ;
#395 = B_SPLINE_CURVE_WITH_KNOTS ( 'NONE', 3,
 ( #254, #256, #290, #257 ),
 .UNSPECIFIED., .F., .F.,
 ( 4, 4 ),
 ( 2.398399543836305400E-007, 0.001758122521152076600 ),
 .UNSPECIFIED. ) ;
#396 = B_SPLINE_CURVE_WITH_KNOTS ( 'NONE', 3,
 ( #33, #43, #44, #20, #11, #21 ),
 .UNSPECIFIED., .F., .F.,
 ( 4, 2, 4 ),
 ( 0.001758122521152076600, 0.002632009217400498000, 0.003505895913648919700 ),
 .UNSPECIFIED. ) ;
#397 = UNCERTAINTY_MEASURE_WITH_UNIT (LENGTH_MEASURE( 1.000000000000000100E-005 ), #88, 'distance_accuracy_value', 'NONE');
#398 = UNCERTAINTY_MEASURE_WITH_UNIT (LENGTH_MEASURE( 1.000000000000000100E-005 ), #119, 'distance_accuracy_value', 'NONE');
#399 = B_SPLINE_CURVE_WITH_KNOTS ( 'NONE', 3,
 ( #249, #288, #259, #271, #244, #272 ),
 .UNSPECIFIED., .F., .F.,
 ( 4, 2, 4 ),
 ( 0.007393453290267393800, 0.008274198936844326000, 0.009154944583421259100 ),
 .UNSPECIFIED. ) ;
#400 = B_SPLINE_CURVE_WITH_KNOTS ( 'NONE', 3,
 ( #355, #372, #45, #12, #8, #28 ),
 .UNSPECIFIED., .F., .F.,
 ( 4, 2, 4 ),
 ( 0.004758189691266667500, 0.005637022917631408600, 0.006515856143996150500 ),
 .UNSPECIFIED. ) ;
#401 = B_SPLINE_CURVE_WITH_KNOTS ( 'NONE', 3,
 ( #319, #338, #305, #299, #322, #308 ),
 .UNSPECIFIED., .F., .F.,
 ( 4, 2, 4 ),
 ( 0.001758122521152073500, 0.002632009217400496300, 0.003505895913648918900 ),
 .UNSPECIFIED. ) ;
#402 = B_SPLINE_CURVE_WITH_KNOTS ( 'NONE', 3,
 ( #275, #279, #292, #312, #303, #324 ),
 .UNSPECIFIED., .F., .F.,
 ( 4, 2, 4 ),
 ( 0.004758189691266667500, 0.005637022917631407700, 0.006515856143996147900 ),
 .UNSPECIFIED. ) ;
#403 = B_SPLINE_CURVE_WITH_KNOTS ( 'NONE', 3,
 ( #311, #296, #328, #315, #329, #316 ),
 .UNSPECIFIED., .F., .F.,
 ( 4, 2, 4 ),
 ( 0.009154944583421259100, 0.01003698893946368900, 0.01091903329550611900 ),
 .UNSPECIFIED. ) ;
#404 = B_SPLINE_CURVE_WITH_KNOTS ( 'NONE', 3,
 ( #373, #347, #376, #378, #343, #350 ),
 .UNSPECIFIED., .F., .F.,
 ( 4, 2, 4 ),
 ( 0.001758122521152074200, 0.002632009217400497200, 0.003505895913648920200 ),
 .UNSPECIFIED. ) ;
#405 = B_SPLINE_CURVE_WITH_KNOTS ( 'NONE', 3,
 ( #86, #62, #67, #46 ),
 .UNSPECIFIED., .F., .F.,
 ( 4, 4 ),
 ( 2.398399543834462000E-007, 0.001758122521152074200 ),
 .UNSPECIFIED. ) ;
#406 = B_SPLINE_CURVE_WITH_KNOTS ( 'NONE', 3,
 ( #80, #74, #68, #52 ),
 .UNSPECIFIED., .F., .F.,
 ( 4, 4 ),
 ( 2.398399543822163100E-007, 0.001758122521152074400 ),
 .UNSPECIFIED. ) ;
#407 = B_SPLINE_CURVE_WITH_KNOTS ( 'NONE', 3,
 ( #345, #340, #362, #374, #363, #342 ),
 .UNSPECIFIED., .F., .F.,
 ( 4, 2, 4 ),
 ( 0.007393453290267395500, 0.008274198936844327800, 0.009154944583421259100 ),
 .UNSPECIFIED. ) ;
#408 = B_SPLINE_CURVE_WITH_KNOTS ( 'NONE', 3,
 ( #32, #19, #38, #1, #41, #27 ),
 .UNSPECIFIED., .F., .F.,
 ( 4, 2, 4 ),
 ( 0.001758122521152071600, 0.002632009217400495400, 0.003505895913648919700 ),
 .UNSPECIFIED. ) ;
#409 = B_SPLINE_CURVE_WITH_KNOTS ( 'NONE', 3,
 ( #333, #337, #334, #325, #326, #318 ),
 .UNSPECIFIED., .F., .F.,
 ( 4, 2, 4 ),
 ( 0.009154944583421259100, 0.01003698893946368900, 0.01091903329550611900 ),
 .UNSPECIFIED. ) ;
#410 = CIRCLE ( 'NONE', #827, 1.720000000000000200 ) ;
#411 = CONICAL_SURFACE ( 'NONE', #809, 2.999999999999999600, 0.9948376736367700000 ) ;
#412 = CYLINDRICAL_SURFACE ( 'NONE', #789, 1.720000000000000200 ) ;
#413 = FACE_OUTER_BOUND ( 'NONE', #521, .T. ) ;
#414 = CIRCLE ( 'NONE', #852, 2.999999999999999100 ) ;
#415 = CONICAL_SURFACE ( 'NONE', #820, 2.000000000000000000, 0.7853981633974501700 ) ;
#416 = VECTOR ( 'NONE', #286, 1000.000000000000000 ) ;
#417 = FACE_OUTER_BOUND ( 'NONE', #540, .T. ) ;
#418 = LINE ( 'NONE', #321, #445 ) ;
#419 = VECTOR ( 'NONE', #369, 1000.000000000000000 ) ;
#420 = CIRCLE ( 'NONE', #846, 2.999999999999999100 ) ;
#421 = LINE ( 'NONE', #351, #453 ) ;
#422 = CIRCLE ( 'NONE', #847, 2.000000000000000000 ) ;
#423 = LINE ( 'NONE', #269, #416 ) ;
#424 = VECTOR ( 'NONE', #280, 1000.000000000000000 ) ;
#425 = FACE_OUTER_BOUND ( 'NONE', #523, .T. ) ;
#426 = FACE_OUTER_BOUND ( 'NONE', #525, .T. ) ;
#427 = VECTOR ( 'NONE', #314, 1000.000000000000100 ) ;
#428 = CIRCLE ( 'NONE', #830, 1.720000000000000200 ) ;
#429 = CIRCLE ( 'NONE', #849, 2.000000000000000000 ) ;
#430 = FACE_OUTER_BOUND ( 'NONE', #518, .T. ) ;
#431 = LINE ( 'NONE', #85, #456 ) ;
#432 = CONICAL_SURFACE ( 'NONE', #824, 3.000000000000001300, 0.9948376736367700000 ) ;
#433 = LINE ( 'NONE', #24, #434 ) ;
#434 = VECTOR ( 'NONE', #37, 1000.000000000000000 ) ;
#435 = CONICAL_SURFACE ( 'NONE', #802, 1.720000000000000200, 1.047197551196600100 ) ;
#436 = FACE_OUTER_BOUND ( 'NONE', #552, .T. ) ;
#437 = CIRCLE ( 'NONE', #836, 2.000000000000000000 ) ;
#438 = FACE_OUTER_BOUND ( 'NONE', #539, .T. ) ;
#439 = FACE_OUTER_BOUND ( 'NONE', #535, .T. ) ;
#440 = CIRCLE ( 'NONE', #839, 1.720000000000000200 ) ;
#441 = CIRCLE ( 'NONE', #844, 3.000000000000001300 ) ;
#442 = LINE ( 'NONE', #306, #427 ) ;
#443 = CIRCLE ( 'NONE', #850, 3.000000000000001300 ) ;
#444 = VECTOR ( 'NONE', #313, 999.9999999999998900 ) ;
#445 = VECTOR ( 'NONE', #323, 1000.000000000000000 ) ;
#446 = CIRCLE ( 'NONE', #842, 3.000000000000001300 ) ;
#447 = CIRCLE ( 'NONE', #855, 3.000000000000001300 ) ;
#448 = CIRCLE ( 'NONE', #848, 1.720000000000000200 ) ;
#449 = CONICAL_SURFACE ( 'NONE', #821, 3.000000000000001300, 0.9948376736367700000 ) ;
#450 = CIRCLE ( 'NONE', #841, 2.999999999999999100 ) ;
#451 = CIRCLE ( 'NONE', #845, 3.000000000000001300 ) ;
#452 = LINE ( 'NONE', #375, #419 ) ;
#453 = VECTOR ( 'NONE', #368, 1000.000000000000000 ) ;
#454 = CIRCLE ( 'NONE', #851, 3.000000000000001300 ) ;
#455 = LINE ( 'NONE', #307, #444 ) ;
#456 = VECTOR ( 'NONE', #71, 999.9999999999998900 ) ;
#457 = LINE ( 'NONE', #5, #460 ) ;
#458 = CONICAL_SURFACE ( 'NONE', #804, 3.000000000000001300, 0.9948376736367700000 ) ;
#459 = LINE ( 'NONE', #287, #424 ) ;
#460 = VECTOR ( 'NONE', #6, 1000.000000000000100 ) ;
#461 = CIRCLE ( 'NONE', #832, 2.999999999999999600 ) ;
#462 = CIRCLE ( 'NONE', #853, 1.600000000000000100 ) ;
#463 = CIRCLE ( 'NONE', #838, 2.000000000000000000 ) ;
#464 = LINE ( 'NONE', #84, #465 ) ;
#465 = VECTOR ( 'NONE', #51, 1000.000000000000000 ) ;
#466 = LINE ( 'NONE', #53, #476 ) ;
#467 = CYLINDRICAL_SURFACE ( 'NONE', #825, 2.000000000000000000 ) ;
#468 = CIRCLE ( 'NONE', #837, 2.999999999999999100 ) ;
#469 = CIRCLE ( 'NONE', #840, 2.999999999999999100 ) ;
#470 = LINE ( 'NONE', #47, #475 ) ;
#471 = COLOUR_RGB ( '',0.8274509803921568100, 0.6666666666666666300, 0.1294117647058823400 ) ;
#472 = SURFACE_STYLE_FILL_AREA ( #109 ) ;
#473 = CIRCLE ( 'NONE', #854, 1.600000000000000100 ) ;
#474 = SHAPE_DEFINITION_REPRESENTATION ( #379, #381 ) ;
#475 = VECTOR ( 'NONE', #55, 1000.000000000000000 ) ;
#476 = VECTOR ( 'NONE', #70, 1000.000000000000000 ) ;
#477 = PRESENTATION_STYLE_ASSIGNMENT (( #89 ) ) ;
#478 = LINE ( 'NONE', #92, #479 ) ;
#479 = VECTOR ( 'NONE', #102, 1000.000000000000000 ) ;
#480 = VERTEX_POINT ( 'NONE', #142 ) ;
#481 = SURFACE_STYLE_FILL_AREA ( #140 ) ;
#482 = VERTEX_POINT ( 'NONE', #122 ) ;
#483 = VERTEX_POINT ( 'NONE', #117 ) ;
#484 = VERTEX_POINT ( 'NONE', #127 ) ;
#485 = VERTEX_POINT ( 'NONE', #112 ) ;
#486 = VERTEX_POINT ( 'NONE', #123 ) ;
#487 = VERTEX_POINT ( 'NONE', #124 ) ;
#488 = VERTEX_POINT ( 'NONE', #138 ) ;
#489 = VERTEX_POINT ( 'NONE', #113 ) ;
#490 = VERTEX_POINT ( 'NONE', #139 ) ;
#491 = VERTEX_POINT ( 'NONE', #141 ) ;
#492 = VERTEX_POINT ( 'NONE', #143 ) ;
#493 = VERTEX_POINT ( 'NONE', #144 ) ;
#494 = VERTEX_POINT ( 'NONE', #118 ) ;
#495 = VERTEX_POINT ( 'NONE', #125 ) ;
#496 = VERTEX_POINT ( 'NONE', #148 ) ;
#497 = VERTEX_POINT ( 'NONE', #145 ) ;
#498 = VERTEX_POINT ( 'NONE', #146 ) ;
#499 = VERTEX_POINT ( 'NONE', #120 ) ;
#500 = VERTEX_POINT ( 'NONE', #147 ) ;
#501 = VERTEX_POINT ( 'NONE', #115 ) ;
#502 = VERTEX_POINT ( 'NONE', #116 ) ;
#503 = VERTEX_POINT ( 'NONE', #129 ) ;
#504 = VERTEX_POINT ( 'NONE', #126 ) ;
#505 = VERTEX_POINT ( 'NONE', #130 ) ;
#506 = VERTEX_POINT ( 'NONE', #132 ) ;
#507 = VERTEX_POINT ( 'NONE', #134 ) ;
#508 = VERTEX_POINT ( 'NONE', #135 ) ;
#509 = CLOSED_SHELL ( 'NONE', ( #731, #725, #726, #710, #714, #724, #707, #706, #732, #728, #719, #733, #730, #727, #709, #720, #723, #708, #722, #718, #729, #716, #721, #715, #717, #712, #711, #705, #713 ) ) ;
#510 = VERTEX_POINT ( 'NONE', #131 ) ;
#511 = VERTEX_POINT ( 'NONE', #136 ) ;
#512 = VERTEX_POINT ( 'NONE', #137 ) ;
#513 = VERTEX_POINT ( 'NONE', #150 ) ;
#514 = VERTEX_POINT ( 'NONE', #158 ) ;
#515 = VERTEX_POINT ( 'NONE', #156 ) ;
#516 = VERTEX_POINT ( 'NONE', #173 ) ;
#517 = ORIENTED_EDGE ( 'NONE', *, *, #767, .F. ) ;
#518 = EDGE_LOOP ( 'NONE', ( #603, #588, #582, #597, #575, #607 ) ) ;
#519 = ORIENTED_EDGE ( 'NONE', *, *, #752, .F. ) ;
#520 = ORIENTED_EDGE ( 'NONE', *, *, #810, .T. ) ;
#521 = EDGE_LOOP ( 'NONE', ( #624, #616, #631 ) ) ;
#522 = EDGE_LOOP ( 'NONE', ( #563, #580, #527, #646, #618, #641 ) ) ;
#523 = EDGE_LOOP ( 'NONE', ( #698, #689, #669, #677 ) ) ;
#524 = EDGE_LOOP ( 'NONE', ( #562, #595, #584, #565, #520, #610 ) ) ;
#525 = EDGE_LOOP ( 'NONE', ( #692, #679, #656, #653 ) ) ;
#526 = EDGE_LOOP ( 'NONE', ( #587, #556, #577, #606, #592, #544 ) ) ;
#527 = ORIENTED_EDGE ( 'NONE', *, *, #751, .T. ) ;
#528 = EDGE_LOOP ( 'NONE', ( #687, #693, #699, #609, #559, #567 ) ) ;
#529 = EDGE_LOOP ( 'NONE', ( #596, #594, #585 ) ) ;
#530 = EDGE_LOOP ( 'NONE', ( #561, #586, #517, #564, #579, #599 ) ) ;
#531 = EDGE_LOOP ( 'NONE', ( #622, #638, #632 ) ) ;
#532 = EDGE_LOOP ( 'NONE', ( #617, #611, #639 ) ) ;
#533 = EDGE_LOOP ( 'NONE', ( #629, #636, #613 ) ) ;
#534 = EDGE_LOOP ( 'NONE', ( #695, #670, #676 ) ) ;
#535 = EDGE_LOOP ( 'NONE', ( #569, #602, #558 ) ) ;
#536 = EDGE_LOOP ( 'NONE', ( #593, #600, #581 ) ) ;
#537 = EDGE_LOOP ( 'NONE', ( #605, #583 ) ) ;
#538 = EDGE_LOOP ( 'NONE', ( #615, #614, #625 ) ) ;
#539 = EDGE_LOOP ( 'NONE', ( #572, #576, #548, #550, #578, #590 ) ) ;
#540 = EDGE_LOOP ( 'NONE', ( #566, #571, #574 ) ) ;
#541 = EDGE_LOOP ( 'NONE', ( #619, #628 ) ) ;
#542 = EDGE_LOOP ( 'NONE', ( #568, #591, #589 ) ) ;
#543 = EDGE_LOOP ( 'NONE', ( #642, #637 ) ) ;
#544 = ORIENTED_EDGE ( 'NONE', *, *, #799, .F. ) ;
#545 = EDGE_LOOP ( 'NONE', ( #647, #621, #623, #626 ) ) ;
#546 = EDGE_LOOP ( 'NONE', ( #633, #650, #612, #635, #627, #645 ) ) ;
#547 = EDGE_LOOP ( 'NONE', ( #634, #640, #630, #620 ) ) ;
#548 = ORIENTED_EDGE ( 'NONE', *, *, #734, .F. ) ;
#549 = EDGE_LOOP ( 'NONE', ( #519, #557, #604 ) ) ;
#550 = ORIENTED_EDGE ( 'NONE', *, *, #744, .F. ) ;
#551 = EDGE_LOOP ( 'NONE', ( #573, #601, #560, #608 ) ) ;
#552 = EDGE_LOOP ( 'NONE', ( #570, #598, #555 ) ) ;
#553 = EDGE_LOOP ( 'NONE', ( #663, #666, #649, #658 ) ) ;
#554 = EDGE_LOOP ( 'NONE', ( #643, #644, #648 ) ) ;
#555 = ORIENTED_EDGE ( 'NONE', *, *, #758, .F. ) ;
#556 = ORIENTED_EDGE ( 'NONE', *, *, #810, .F. ) ;
#557 = ORIENTED_EDGE ( 'NONE', *, *, #781, .T. ) ;
#558 = ORIENTED_EDGE ( 'NONE', *, *, #745, .F. ) ;
#559 = ORIENTED_EDGE ( 'NONE', *, *, #756, .T. ) ;
#560 = ORIENTED_EDGE ( 'NONE', *, *, #741, .T. ) ;
#561 = ORIENTED_EDGE ( 'NONE', *, *, #764, .F. ) ;
#562 = ORIENTED_EDGE ( 'NONE', *, *, #797, .F. ) ;
#563 = ORIENTED_EDGE ( 'NONE', *, *, #757, .T. ) ;
#564 = ORIENTED_EDGE ( 'NONE', *, *, #750, .F. ) ;
#565 = ORIENTED_EDGE ( 'NONE', *, *, #760, .F. ) ;
#566 = ORIENTED_EDGE ( 'NONE', *, *, #754, .T. ) ;
#567 = ORIENTED_EDGE ( 'NONE', *, *, #778, .F. ) ;
#568 = ORIENTED_EDGE ( 'NONE', *, *, #776, .T. ) ;
#569 = ORIENTED_EDGE ( 'NONE', *, *, #767, .T. ) ;
#570 = ORIENTED_EDGE ( 'NONE', *, *, #813, .T. ) ;
#571 = ORIENTED_EDGE ( 'NONE', *, *, #750, .T. ) ;
#572 = ORIENTED_EDGE ( 'NONE', *, *, #770, .F. ) ;
#573 = ORIENTED_EDGE ( 'NONE', *, *, #796, .F. ) ;
#574 = ORIENTED_EDGE ( 'NONE', *, *, #773, .F. ) ;
#575 = ORIENTED_EDGE ( 'NONE', *, *, #738, .T. ) ;
#576 = ORIENTED_EDGE ( 'NONE', *, *, #738, .F. ) ;
#577 = ORIENTED_EDGE ( 'NONE', *, *, #813, .F. ) ;
#578 = ORIENTED_EDGE ( 'NONE', *, *, #765, .T. ) ;
#579 = ORIENTED_EDGE ( 'NONE', *, *, #766, .T. ) ;
#580 = ORIENTED_EDGE ( 'NONE', *, *, #739, .T. ) ;
#581 = ORIENTED_EDGE ( 'NONE', *, *, #757, .F. ) ;
#582 = ORIENTED_EDGE ( 'NONE', *, *, #768, .F. ) ;
#583 = ORIENTED_EDGE ( 'NONE', *, *, #740, .F. ) ;
#584 = ORIENTED_EDGE ( 'NONE', *, *, #754, .F. ) ;
#585 = ORIENTED_EDGE ( 'NONE', *, *, #768, .T. ) ;
#586 = ORIENTED_EDGE ( 'NONE', *, *, #765, .F. ) ;
#587 = ORIENTED_EDGE ( 'NONE', *, *, #785, .F. ) ;
#588 = ORIENTED_EDGE ( 'NONE', *, *, #756, .F. ) ;
#589 = ORIENTED_EDGE ( 'NONE', *, *, #751, .F. ) ;
#590 = ORIENTED_EDGE ( 'NONE', *, *, #746, .F. ) ;
#591 = ORIENTED_EDGE ( 'NONE', *, *, #798, .T. ) ;
#592 = ORIENTED_EDGE ( 'NONE', *, *, #772, .T. ) ;
#593 = ORIENTED_EDGE ( 'NONE', *, *, #734, .T. ) ;
#594 = ORIENTED_EDGE ( 'NONE', *, *, #739, .F. ) ;
#595 = ORIENTED_EDGE ( 'NONE', *, *, #766, .F. ) ;
#596 = ORIENTED_EDGE ( 'NONE', *, *, #755, .T. ) ;
#597 = ORIENTED_EDGE ( 'NONE', *, *, #735, .F. ) ;
#598 = ORIENTED_EDGE ( 'NONE', *, *, #760, .T. ) ;
#599 = ORIENTED_EDGE ( 'NONE', *, *, #774, .F. ) ;
#600 = ORIENTED_EDGE ( 'NONE', *, *, #735, .T. ) ;
#601 = ORIENTED_EDGE ( 'NONE', *, *, #759, .F. ) ;
#602 = ORIENTED_EDGE ( 'NONE', *, *, #744, .T. ) ;
#603 = ORIENTED_EDGE ( 'NONE', *, *, #743, .F. ) ;
#604 = ORIENTED_EDGE ( 'NONE', *, *, #759, .T. ) ;
#605 = ORIENTED_EDGE ( 'NONE', *, *, #761, .F. ) ;
#606 = ORIENTED_EDGE ( 'NONE', *, *, #798, .F. ) ;
#607 = ORIENTED_EDGE ( 'NONE', *, *, #748, .F. ) ;
#608 = ORIENTED_EDGE ( 'NONE', *, *, #761, .T. ) ;
#609 = ORIENTED_EDGE ( 'NONE', *, *, #755, .F. ) ;
#610 = ORIENTED_EDGE ( 'NONE', *, *, #747, .F. ) ;
#611 = ORIENTED_EDGE ( 'NONE', *, *, #749, .T. ) ;
#612 = ORIENTED_EDGE ( 'NONE', *, *, #762, .F. ) ;
#613 = ORIENTED_EDGE ( 'NONE', *, *, #775, .T. ) ;
#614 = ORIENTED_EDGE ( 'NONE', *, *, #743, .T. ) ;
#615 = ORIENTED_EDGE ( 'NONE', *, *, #778, .T. ) ;
#616 = ORIENTED_EDGE ( 'NONE', *, *, #762, .T. ) ;
#617 = ORIENTED_EDGE ( 'NONE', *, *, #797, .T. ) ;
#618 = ORIENTED_EDGE ( 'NONE', *, *, #773, .T. ) ;
#619 = ORIENTED_EDGE ( 'NONE', *, *, #769, .T. ) ;
#620 = ORIENTED_EDGE ( 'NONE', *, *, #771, .T. ) ;
#621 = ORIENTED_EDGE ( 'NONE', *, *, #769, .F. ) ;
#622 = ORIENTED_EDGE ( 'NONE', *, *, #770, .T. ) ;
#623 = ORIENTED_EDGE ( 'NONE', *, *, #784, .T. ) ;
#624 = ORIENTED_EDGE ( 'NONE', *, *, #764, .T. ) ;
#625 = ORIENTED_EDGE ( 'NONE', *, *, #736, .T. ) ;
#626 = ORIENTED_EDGE ( 'NONE', *, *, #771, .F. ) ;
#627 = ORIENTED_EDGE ( 'NONE', *, *, #763, .T. ) ;
#628 = ORIENTED_EDGE ( 'NONE', *, *, #783, .T. ) ;
#629 = ORIENTED_EDGE ( 'NONE', *, *, #799, .T. ) ;
#630 = ORIENTED_EDGE ( 'NONE', *, *, #779, .T. ) ;
#631 = ORIENTED_EDGE ( 'NONE', *, *, #746, .T. ) ;
#632 = ORIENTED_EDGE ( 'NONE', *, *, #748, .T. ) ;
#633 = ORIENTED_EDGE ( 'NONE', *, *, #736, .F. ) ;
#634 = ORIENTED_EDGE ( 'NONE', *, *, #753, .F. ) ;
#635 = ORIENTED_EDGE ( 'NONE', *, *, #749, .F. ) ;
#636 = ORIENTED_EDGE ( 'NONE', *, *, #737, .T. ) ;
#637 = ORIENTED_EDGE ( 'NONE', *, *, #805, .T. ) ;
#638 = ORIENTED_EDGE ( 'NONE', *, *, #780, .T. ) ;
#639 = ORIENTED_EDGE ( 'NONE', *, *, #774, .T. ) ;
#640 = ORIENTED_EDGE ( 'NONE', *, *, #782, .F. ) ;
#641 = ORIENTED_EDGE ( 'NONE', *, *, #745, .T. ) ;
#642 = ORIENTED_EDGE ( 'NONE', *, *, #782, .T. ) ;
#643 = ORIENTED_EDGE ( 'NONE', *, *, #747, .T. ) ;
#644 = ORIENTED_EDGE ( 'NONE', *, *, #785, .T. ) ;
#645 = ORIENTED_EDGE ( 'NONE', *, *, #775, .F. ) ;
#646 = ORIENTED_EDGE ( 'NONE', *, *, #758, .T. ) ;
#647 = ORIENTED_EDGE ( 'NONE', *, *, #822, .F. ) ;
#648 = ORIENTED_EDGE ( 'NONE', *, *, #763, .F. ) ;
#649 = ORIENTED_EDGE ( 'NONE', *, *, #777, .T. ) ;
#650 = ORIENTED_EDGE ( 'NONE', *, *, #780, .F. ) ;
#651 = FACE_OUTER_BOUND ( 'NONE', #545, .T. ) ;
#652 = FACE_OUTER_BOUND ( 'NONE', #524, .T. ) ;
#653 = ORIENTED_EDGE ( 'NONE', *, *, #741, .F. ) ;
#654 = COLOUR_RGB ( '',0.8274509803921568100, 0.6666666666666666300, 0.1294117647058823400 ) ;
#655 = CONICAL_SURFACE ( 'NONE', #794, 2.000000000000000000, 0.7853981633974501700 ) ;
#656 = ORIENTED_EDGE ( 'NONE', *, *, #740, .T. ) ;
#657 = PRESENTATION_STYLE_ASSIGNMENT (( #149 ) ) ;
#658 = ORIENTED_EDGE ( 'NONE', *, *, #779, .F. ) ;
#659 = FACE_OUTER_BOUND ( 'NONE', #551, .T. ) ;
#660 = CYLINDRICAL_SURFACE ( 'NONE', #800, 1.720000000000000200 ) ;
#661 = FACE_BOUND ( 'NONE', #541, .T. ) ;
#662 = CONICAL_SURFACE ( 'NONE', #790, 1.720000000000000200, 1.047197551196600100 ) ;
#663 = ORIENTED_EDGE ( 'NONE', *, *, #805, .F. ) ;
#664 = FACE_OUTER_BOUND ( 'NONE', #532, .T. ) ;
#665 = CYLINDRICAL_SURFACE ( 'NONE', #786, 2.000000000000000000 ) ;
#666 = ORIENTED_EDGE ( 'NONE', *, *, #753, .T. ) ;
#667 = FACE_OUTER_BOUND ( 'NONE', #528, .T. ) ;
#668 = FACE_OUTER_BOUND ( 'NONE', #546, .T. ) ;
#669 = ORIENTED_EDGE ( 'NONE', *, *, #777, .F. ) ;
#670 = ORIENTED_EDGE ( 'NONE', *, *, #752, .T. ) ;
#671 = FACE_OUTER_BOUND ( 'NONE', #533, .T. ) ;
#672 = FACE_OUTER_BOUND ( 'NONE', #530, .T. ) ;
#673 = FACE_OUTER_BOUND ( 'NONE', #543, .T. ) ;
#674 = FACE_OUTER_BOUND ( 'NONE', #538, .T. ) ;
#675 = FACE_OUTER_BOUND ( 'NONE', #534, .T. ) ;
#676 = ORIENTED_EDGE ( 'NONE', *, *, #742, .T. ) ;
#677 = ORIENTED_EDGE ( 'NONE', *, *, #784, .F. ) ;
#678 = FACE_OUTER_BOUND ( 'NONE', #529, .T. ) ;
#679 = ORIENTED_EDGE ( 'NONE', *, *, #796, .T. ) ;
#680 = CONICAL_SURFACE ( 'NONE', #806, 3.000000000000001300, 0.9948376736367700000 ) ;
#681 = FACE_OUTER_BOUND ( 'NONE', #547, .T. ) ;
#682 = FACE_OUTER_BOUND ( 'NONE', #536, .T. ) ;
#683 = FACE_OUTER_BOUND ( 'NONE', #549, .T. ) ;
#684 = CONICAL_SURFACE ( 'NONE', #817, 2.999999999999999600, 0.9948376736367700000 ) ;
#685 = FACE_OUTER_BOUND ( 'NONE', #554, .T. ) ;
#686 = FACE_BOUND ( 'NONE', #537, .T. ) ;
#687 = ORIENTED_EDGE ( 'NONE', *, *, #737, .F. ) ;
#688 = FACE_OUTER_BOUND ( 'NONE', #522, .T. ) ;
#689 = ORIENTED_EDGE ( 'NONE', *, *, #822, .T. ) ;
#690 = FACE_OUTER_BOUND ( 'NONE', #542, .T. ) ;
#691 = CONICAL_SURFACE ( 'NONE', #812, 2.999999999999999600, 0.9948376736367700000 ) ;
#692 = ORIENTED_EDGE ( 'NONE', *, *, #742, .F. ) ;
#693 = ORIENTED_EDGE ( 'NONE', *, *, #772, .F. ) ;
#694 = CONICAL_SURFACE ( 'NONE', #818, 2.999999999999999600, 0.9948376736367700000 ) ;
#695 = ORIENTED_EDGE ( 'NONE', *, *, #781, .F. ) ;
#696 = CONICAL_SURFACE ( 'NONE', #787, 2.999999999999999600, 0.9948376736367700000 ) ;
#697 = FACE_OUTER_BOUND ( 'NONE', #531, .T. ) ;
#698 = ORIENTED_EDGE ( 'NONE', *, *, #783, .F. ) ;
#699 = ORIENTED_EDGE ( 'NONE', *, *, #776, .F. ) ;
#700 = CONICAL_SURFACE ( 'NONE', #788, 2.999999999999999600, 0.9948376736367700000 ) ;
#701 = FACE_OUTER_BOUND ( 'NONE', #526, .T. ) ;
#702 = CONICAL_SURFACE ( 'NONE', #819, 3.000000000000001300, 0.9948376736367700000 ) ;
#703 = FACE_OUTER_BOUND ( 'NONE', #553, .T. ) ;
#704 = CONICAL_SURFACE ( 'NONE', #793, 3.000000000000001300, 0.9948376736367700000 ) ;
#705 = ADVANCED_FACE ( 'NONE', ( #651 ), #665, .T. ) ;
#706 = ADVANCED_FACE ( 'NONE', ( #672 ), #176, .F. ) ;
#707 = ADVANCED_FACE ( 'NONE', ( #652 ), #192, .F. ) ;
#708 = ADVANCED_FACE ( 'NONE', ( #659 ), #660, .F. ) ;
#709 = ADVANCED_FACE ( 'NONE', ( #690 ), #680, .T. ) ;
#710 = ADVANCED_FACE ( 'NONE', ( #675 ), #662, .F. ) ;
#711 = ADVANCED_FACE ( 'NONE', ( #681 ), #655, .T. ) ;
#712 = ADVANCED_FACE ( 'NONE', ( #673 ), #193, .F. ) ;
#713 = ADVANCED_FACE ( 'NONE', ( #661, #668 ), #181, .F. ) ;
#714 = ADVANCED_FACE ( 'NONE', ( #667 ), #190, .F. ) ;
#715 = ADVANCED_FACE ( 'NONE', ( #671 ), #691, .T. ) ;
#716 = ADVANCED_FACE ( 'NONE', ( #664 ), #684, .T. ) ;
#717 = ADVANCED_FACE ( 'NONE', ( #674 ), #696, .T. ) ;
#718 = ADVANCED_FACE ( 'NONE', ( #697 ), #694, .T. ) ;
#719 = ADVANCED_FACE ( 'NONE', ( #682 ), #702, .T. ) ;
#720 = ADVANCED_FACE ( 'NONE', ( #678 ), #704, .T. ) ;
#721 = ADVANCED_FACE ( 'NONE', ( #685 ), #700, .T. ) ;
#722 = ADVANCED_FACE ( 'NONE', ( #686, #688 ), #208, .T. ) ;
#723 = ADVANCED_FACE ( 'NONE', ( #683 ), #435, .F. ) ;
#724 = ADVANCED_FACE ( 'NONE', ( #701 ), #223, .F. ) ;
#725 = ADVANCED_FACE ( 'NONE', ( #703 ), #415, .T. ) ;
#726 = ADVANCED_FACE ( 'NONE', ( #426 ), #412, .F. ) ;
#727 = ADVANCED_FACE ( 'NONE', ( #436 ), #458, .T. ) ;
#728 = ADVANCED_FACE ( 'NONE', ( #430 ), #243, .F. ) ;
#729 = ADVANCED_FACE ( 'NONE', ( #413 ), #411, .T. ) ;
#730 = ADVANCED_FACE ( 'NONE', ( #417 ), #449, .T. ) ;
#731 = ADVANCED_FACE ( 'NONE', ( #425 ), #467, .T. ) ;
#732 = ADVANCED_FACE ( 'NONE', ( #438 ), #281, .F. ) ;
#733 = ADVANCED_FACE ( 'NONE', ( #439 ), #432, .T. ) ;
#734 = EDGE_CURVE ( 'NONE', #505, #497, #392, .T. ) ;
#735 = EDGE_CURVE ( 'NONE', #497, #507, #382, .T. ) ;
#736 = EDGE_CURVE ( 'NONE', #508, #510, #469, .T. ) ;
#737 = EDGE_CURVE ( 'NONE', #502, #510, #395, .T. ) ;
#738 = EDGE_CURVE ( 'NONE', #497, #516, #423, .T. ) ;
#739 = EDGE_CURVE ( 'NONE', #507, #492, #443, .T. ) ;
#740 = EDGE_CURVE ( 'NONE', #490, #515, #440, .T. ) ;
#741 = EDGE_CURVE ( 'NONE', #489, #515, #459, .T. ) ;
#742 = EDGE_CURVE ( 'NONE', #503, #489, #410, .T. ) ;
#743 = EDGE_CURVE ( 'NONE', #491, #508, #399, .T. ) ;
#744 = EDGE_CURVE ( 'NONE', #511, #505, #391, .T. ) ;
#745 = EDGE_CURVE ( 'NONE', #500, #505, #441, .T. ) ;
#746 = EDGE_CURVE ( 'NONE', #480, #514, #401, .T. ) ;
#747 = EDGE_CURVE ( 'NONE', #504, #499, #402, .T. ) ;
#748 = EDGE_CURVE ( 'NONE', #508, #516, #409, .T. ) ;
#749 = EDGE_CURVE ( 'NONE', #504, #501, #450, .T. ) ;
#750 = EDGE_CURVE ( 'NONE', #493, #500, #394, .T. ) ;
#751 = EDGE_CURVE ( 'NONE', #492, #484, #447, .T. ) ;
#752 = EDGE_CURVE ( 'NONE', #483, #503, #442, .T. ) ;
#753 = EDGE_CURVE ( 'NONE', #485, #486, #455, .T. ) ;
#754 = EDGE_CURVE ( 'NONE', #498, #493, #403, .T. ) ;
#755 = EDGE_CURVE ( 'NONE', #482, #492, #384, .T. ) ;
#756 = EDGE_CURVE ( 'NONE', #482, #491, #418, .T. ) ;
#757 = EDGE_CURVE ( 'NONE', #505, #507, #451, .T. ) ;
#758 = EDGE_CURVE ( 'NONE', #484, #498, #446, .T. ) ;
#759 = EDGE_CURVE ( 'NONE', #489, #503, #428, .T. ) ;
#760 = EDGE_CURVE ( 'NONE', #494, #498, #407, .T. ) ;
#761 = EDGE_CURVE ( 'NONE', #515, #490, #448, .T. ) ;
#762 = EDGE_CURVE ( 'NONE', #501, #480, #420, .T. ) ;
#763 = EDGE_CURVE ( 'NONE', #504, #506, #461, .T. ) ;
#764 = EDGE_CURVE ( 'NONE', #514, #501, #386, .T. ) ;
#765 = EDGE_CURVE ( 'NONE', #511, #514, #452, .T. ) ;
#766 = EDGE_CURVE ( 'NONE', #493, #496, #421, .T. ) ;
#767 = EDGE_CURVE ( 'NONE', #500, #511, #404, .T. ) ;
#768 = EDGE_CURVE ( 'NONE', #507, #482, #400, .T. ) ;
#769 = EDGE_CURVE ( 'NONE', #488, #512, #422, .T. ) ;
#770 = EDGE_CURVE ( 'NONE', #516, #480, #383, .T. ) ;
#771 = EDGE_CURVE ( 'NONE', #487, #486, #429, .T. ) ;
#772 = EDGE_CURVE ( 'NONE', #513, #502, #433, .T. ) ;
#773 = EDGE_CURVE ( 'NONE', #498, #500, #454, .T. ) ;
#774 = EDGE_CURVE ( 'NONE', #501, #496, #387, .T. ) ;
#775 = EDGE_CURVE ( 'NONE', #510, #506, #414, .T. ) ;
#776 = EDGE_CURVE ( 'NONE', #492, #513, #408, .T. ) ;
#777 = EDGE_CURVE ( 'NONE', #486, #487, #437, .T. ) ;
#778 = EDGE_CURVE ( 'NONE', #510, #491, #396, .T. ) ;
#779 = EDGE_CURVE ( 'NONE', #495, #487, #431, .T. ) ;
#780 = EDGE_CURVE ( 'NONE', #480, #508, #468, .T. ) ;
#781 = EDGE_CURVE ( 'NONE', #483, #489, #457, .T. ) ;
#782 = EDGE_CURVE ( 'NONE', #495, #485, #462, .T. ) ;
#783 = EDGE_CURVE ( 'NONE', #512, #488, #463, .T. ) ;
#784 = EDGE_CURVE ( 'NONE', #488, #486, #464, .T. ) ;
#785 = EDGE_CURVE ( 'NONE', #499, #506, #405, .T. ) ;
#786 = AXIS2_PLACEMENT_3D ( 'NONE', #154, #179, #151 ) ;
#787 = AXIS2_PLACEMENT_3D ( 'NONE', #170, #188, #210 ) ;
#788 = AXIS2_PLACEMENT_3D ( 'NONE', #212, #230, #197 ) ;
#789 = AXIS2_PLACEMENT_3D ( 'NONE', #233, #221, #242 ) ;
#790 = AXIS2_PLACEMENT_3D ( 'NONE', #153, #177, #175 ) ;
#791 = AXIS2_PLACEMENT_3D ( 'NONE', #171, #186, #174 ) ;
#792 = AXIS2_PLACEMENT_3D ( 'NONE', #166, #167, #168 ) ;
#793 = AXIS2_PLACEMENT_3D ( 'NONE', #211, #218, #235 ) ;
#794 = AXIS2_PLACEMENT_3D ( 'NONE', #169, #152, #155 ) ;
#795 = AXIS2_PLACEMENT_3D ( 'NONE', #184, #163, #189 ) ;
#796 = EDGE_CURVE ( 'NONE', #503, #490, #466, .T. ) ;
#797 = EDGE_CURVE ( 'NONE', #496, #504, #388, .T. ) ;
#798 = EDGE_CURVE ( 'NONE', #513, #484, #406, .T. ) ;
#799 = EDGE_CURVE ( 'NONE', #506, #502, #393, .T. ) ;
#800 = AXIS2_PLACEMENT_3D ( 'NONE', #157, #180, #194 ) ;
#801 = AXIS2_PLACEMENT_3D ( 'NONE', #172, #187, #164 ) ;
#802 = AXIS2_PLACEMENT_3D ( 'NONE', #225, #205, #240 ) ;
#803 = AXIS2_PLACEMENT_3D ( 'NONE', #231, #207, #232 ) ;
#804 = AXIS2_PLACEMENT_3D ( 'NONE', #214, #219, #220 ) ;
#805 = EDGE_CURVE ( 'NONE', #485, #495, #473, .T. ) ;
#806 = AXIS2_PLACEMENT_3D ( 'NONE', #195, #161, #165 ) ;
#807 = AXIS2_PLACEMENT_3D ( 'NONE', #237, #224, #213 ) ;
#808 = AXIS2_PLACEMENT_3D ( 'NONE', #202, #234, #198 ) ;
#809 = AXIS2_PLACEMENT_3D ( 'NONE', #204, #227, #236 ) ;
#810 = EDGE_CURVE ( 'NONE', #494, #499, #470, .T. ) ;
#811 =( GEOMETRIC_REPRESENTATION_CONTEXT ( 3 ) GLOBAL_UNCERTAINTY_ASSIGNED_CONTEXT ( ( #398 ) ) GLOBAL_UNIT_ASSIGNED_CONTEXT ( ( #119, #114, #133 ) ) REPRESENTATION_CONTEXT ( 'NONE', 'WORKASPACE' ) );
#812 = AXIS2_PLACEMENT_3D ( 'NONE', #196, #191, #182 ) ;
#813 = EDGE_CURVE ( 'NONE', #484, #494, #389, .T. ) ;
#814 = PRESENTATION_LAYER_ASSIGNMENT (  '', '', ( #823 ) ) ;
#815 = MECHANICAL_DESIGN_GEOMETRIC_PRESENTATION_REPRESENTATION (  '', ( #823 ), #811 ) ;
#816 = AXIS2_PLACEMENT_3D ( 'NONE', #162, #159, #160 ) ;
#817 = AXIS2_PLACEMENT_3D ( 'NONE', #178, #183, #185 ) ;
#818 = AXIS2_PLACEMENT_3D ( 'NONE', #199, #229, #206 ) ;
#819 = AXIS2_PLACEMENT_3D ( 'NONE', #222, #209, #228 ) ;
#820 = AXIS2_PLACEMENT_3D ( 'NONE', #216, #215, #226 ) ;
#821 = AXIS2_PLACEMENT_3D ( 'NONE', #217, #239, #241 ) ;
#822 = EDGE_CURVE ( 'NONE', #512, #487, #478, .T. ) ;
#823 = STYLED_ITEM ( 'NONE', ( #657 ), #385 ) ;
#824 = AXIS2_PLACEMENT_3D ( 'NONE', #273, #267, #283 ) ;
#825 = AXIS2_PLACEMENT_3D ( 'NONE', #200, #201, #203 ) ;
#826 = MECHANICAL_DESIGN_GEOMETRIC_PRESENTATION_REPRESENTATION (  '', ( #857 ), #828 ) ;
#827 = AXIS2_PLACEMENT_3D ( 'NONE', #265, #262, #248 ) ;
#828 =( GEOMETRIC_REPRESENTATION_CONTEXT ( 3 ) GLOBAL_UNCERTAINTY_ASSIGNED_CONTEXT ( ( #397 ) ) GLOBAL_UNIT_ASSIGNED_CONTEXT ( ( #88, #110, #97 ) ) REPRESENTATION_CONTEXT ( 'NONE', 'WORKASPACE' ) );
#829 = AXIS2_PLACEMENT_3D ( 'NONE', #98, #94, #103 ) ;
#830 = AXIS2_PLACEMENT_3D ( 'NONE', #339, #366, #356 ) ;
#831 = PRODUCT_RELATED_PRODUCT_CATEGORY ( 'part', '', ( #858 ) ) ;
#832 = AXIS2_PLACEMENT_3D ( 'NONE', #353, #357, #349 ) ;
#833 =( GEOMETRIC_REPRESENTATION_CONTEXT ( 3 ) GLOBAL_UNCERTAINTY_ASSIGNED_CONTEXT ( ( #390 ) ) GLOBAL_UNIT_ASSIGNED_CONTEXT ( ( #104, #111, #105 ) ) REPRESENTATION_CONTEXT ( 'NONE', 'WORKASPACE' ) );
#834 = PRESENTATION_LAYER_ASSIGNMENT (  '', '', ( #857 ) ) ;
#835 = PRODUCT_DEFINITION_FORMATION_WITH_SPECIFIED_SOURCE ( '�κ�', '', #858, .NOT_KNOWN. ) ;
#836 = AXIS2_PLACEMENT_3D ( 'NONE', #31, #25, #35 ) ;
#837 = AXIS2_PLACEMENT_3D ( 'NONE', #60, #54, #75 ) ;
#838 = AXIS2_PLACEMENT_3D ( 'NONE', #58, #59, #61 ) ;
#839 = AXIS2_PLACEMENT_3D ( 'NONE', #246, #260, #278 ) ;
#840 = AXIS2_PLACEMENT_3D ( 'NONE', #282, #255, #276 ) ;
#841 = AXIS2_PLACEMENT_3D ( 'NONE', #293, #327, #300 ) ;
#842 = AXIS2_PLACEMENT_3D ( 'NONE', #371, #359, #341 ) ;
#843 = AXIS2_PLACEMENT_3D ( 'NONE', #263, #285, #291 ) ;
#844 = AXIS2_PLACEMENT_3D ( 'NONE', #302, #331, #332 ) ;
#845 = AXIS2_PLACEMENT_3D ( 'NONE', #354, #361, #358 ) ;
#846 = AXIS2_PLACEMENT_3D ( 'NONE', #348, #364, #352 ) ;
#847 = AXIS2_PLACEMENT_3D ( 'NONE', #34, #17, #23 ) ;
#848 = AXIS2_PLACEMENT_3D ( 'NONE', #377, #344, #346 ) ;
#849 = AXIS2_PLACEMENT_3D ( 'NONE', #7, #42, #9 ) ;
#850 = AXIS2_PLACEMENT_3D ( 'NONE', #245, #247, #258 ) ;
#851 = AXIS2_PLACEMENT_3D ( 'NONE', #2, #4, #16 ) ;
#852 = AXIS2_PLACEMENT_3D ( 'NONE', #36, #22, #15 ) ;
#853 = AXIS2_PLACEMENT_3D ( 'NONE', #77, #83, #57 ) ;
#854 = AXIS2_PLACEMENT_3D ( 'NONE', #72, #78, #79 ) ;
#855 = AXIS2_PLACEMENT_3D ( 'NONE', #309, #330, #335 ) ;
#856 = PRODUCT_DEFINITION ( 'δ֪', '', #835, #380 ) ;
#857 = STYLED_ITEM ( 'NONE', ( #477 ), #381 ) ;
#858 = PRODUCT ( 'EJLC-M4-L50', 'EJLC-M4-L50', '', ( #108 ) ) ;
ENDSEC;
END-ISO-10303-21;
